<svg width="1965" height="454" viewBox="0 0 1965 454" fill="none" xmlns="http://www.w3.org/2000/svg">
<g clip-path="url(#clip0_1_22)">
<path d="M340.5 0H113.5C50.8157 0 0 50.8157 0 113.5V340.5C0 403.184 50.8157 454 113.5 454H340.5C403.184 454 454 403.184 454 340.5V113.5C454 50.8157 403.184 0 340.5 0Z" fill="url(#paint0_linear_1_22)"/>
<path d="M99.9327 191.397C98.1542 191.413 96.4023 190.958 94.8564 190.078C93.722 189.441 92.7266 188.584 91.9276 187.557C91.1291 186.53 90.5429 185.354 90.2041 184.098C89.8653 182.842 89.7801 181.531 89.9538 180.241C90.128 178.952 90.5571 177.71 91.2171 176.589C103.928 155.372 142.604 105.851 226.997 105.851C263.568 105.851 295.644 115.457 322.287 134.392C344.216 149.933 356.506 167.523 362.361 175.995C363.103 177.063 363.624 178.269 363.894 179.542C364.164 180.814 364.176 182.127 363.93 183.405C363.685 184.682 363.186 185.897 362.463 186.979C361.741 188.06 360.809 188.987 359.723 189.703C357.504 191.17 354.801 191.715 352.187 191.223C349.573 190.73 347.253 189.239 345.719 187.066C335.124 171.829 302.818 125.466 226.997 125.466C152.988 125.466 119.528 168.13 108.629 186.426C107.753 187.954 106.486 189.22 104.957 190.094C103.429 190.968 101.694 191.418 99.9327 191.397Z" fill="white"/>
<path d="M269.516 385.236C268.674 385.246 267.835 385.151 267.017 384.952C205.799 369.788 182.941 308.591 182.011 306.045L181.866 305.485C181.365 303.718 169.082 261.753 187.938 237.174C196.582 225.965 209.729 220.216 227.089 220.216C243.229 220.216 254.872 225.233 262.876 235.617C269.469 244.096 272.107 254.553 274.659 264.628C280.019 285.607 283.889 296.624 306.167 297.758C315.951 298.252 322.38 292.53 326.026 287.657C335.882 274.372 337.597 252.713 330.166 233.593C320.619 208.915 286.737 162.387 226.997 162.387C201.494 162.387 178.062 170.583 159.272 185.984C143.718 198.742 131.396 216.754 125.462 235.268C114.458 269.737 128.89 323.919 129.029 324.414C129.366 325.675 129.447 326.991 129.267 328.283C129.088 329.577 128.651 330.82 127.983 331.942C127.315 333.063 126.429 334.04 125.378 334.813C124.327 335.587 123.131 336.142 121.862 336.446C119.298 337.128 116.568 336.779 114.259 335.473C111.949 334.166 110.243 332.007 109.507 329.458C108.847 326.986 93.4321 269.196 106.144 229.36C119.989 186.195 162.72 142.68 227.017 142.68C256.731 142.68 284.805 152.781 308.238 171.855C326.382 186.689 341.203 206.614 348.957 226.532C358.813 251.962 356.17 280.503 342.238 299.149C332.955 311.584 319.736 318.085 305.093 317.379C266.945 315.467 260.088 288.838 255.09 269.414C249.947 249.489 246.657 239.883 227.017 239.883C216.23 239.883 208.654 242.85 203.94 248.995C197.512 257.401 197.011 270.541 197.723 280.075C198.19 286.717 199.317 293.296 201.085 299.716C202.654 303.672 223.087 353.78 272.021 365.905C273.286 366.204 274.479 366.753 275.53 367.517C276.581 368.281 277.47 369.247 278.145 370.358C278.82 371.469 279.267 372.703 279.46 373.988C279.654 375.274 279.591 376.585 279.274 377.845C278.677 379.973 277.4 381.847 275.638 383.182C273.876 384.516 271.726 385.238 269.516 385.236Z" fill="white"/>
<path d="M190.938 380.713C189.567 380.716 188.207 380.442 186.944 379.909C185.679 379.375 184.536 378.593 183.581 377.608C159.081 351.894 145.222 323.141 140.006 287.189V286.998C137.079 263.196 141.364 229.499 162.363 206.331C177.864 189.235 199.654 180.544 227.016 180.544C259.375 180.544 284.805 195.591 300.662 223.987C312.167 244.617 314.448 265.175 314.507 266.018C314.628 267.32 314.491 268.632 314.103 269.88C313.716 271.128 313.087 272.288 312.25 273.292C311.415 274.296 310.389 275.126 309.232 275.733C308.075 276.341 306.809 276.714 305.508 276.831C302.882 277.116 300.249 276.357 298.178 274.718C296.107 273.078 294.764 270.69 294.438 268.069C292.701 255.734 288.709 243.824 282.663 232.934C270.373 211.249 251.674 200.225 226.944 200.225C205.582 200.225 188.868 206.653 177.37 219.346C160.794 237.642 157.59 265.827 159.865 284.472C164.434 316.265 176.651 341.556 198.224 364.157C199.124 365.094 199.827 366.203 200.291 367.416C200.754 368.63 200.969 369.924 200.922 371.223C200.876 372.521 200.568 373.797 200.019 374.974C199.469 376.151 198.688 377.206 197.723 378.076C195.864 379.761 193.448 380.7 190.938 380.713Z" fill="white"/>
<path d="M303.807 352.389C282.379 352.389 264.162 346.455 249.585 334.66C220.298 311.063 217.014 272.632 216.87 271.01C216.663 268.347 217.523 265.712 219.259 263.684C220.996 261.655 223.467 260.4 226.129 260.194C228.792 259.987 231.427 260.847 233.455 262.583C235.484 264.32 236.739 266.791 236.945 269.454C237.018 270.02 239.945 301.457 262.52 319.562C275.878 330.229 293.732 334.462 315.734 331.99C318.364 331.671 321.012 332.406 323.102 334.034C325.191 335.663 326.55 338.052 326.883 340.679C327.027 341.978 326.911 343.292 326.542 344.544C326.172 345.797 325.558 346.964 324.733 347.976C323.908 348.989 322.89 349.827 321.737 350.442C320.585 351.057 319.322 351.436 318.021 351.558C313.303 352.109 308.557 352.386 303.807 352.389Z" fill="white"/>
<path d="M320.738 90.3834C312.378 84.944 282.735 68.7645 226.997 68.7645C168.489 68.7645 138.774 86.6385 132.2 91.1808C131.766 91.4475 131.359 91.7568 130.987 92.1041C130.948 92.1421 130.896 92.1654 130.842 92.1699C129.792 93.0864 128.95 94.2163 128.371 95.4836C127.793 96.7514 127.491 98.1281 127.486 99.5213C127.504 100.828 127.779 102.118 128.297 103.317C128.815 104.516 129.563 105.602 130.501 106.512C131.439 107.421 132.547 108.137 133.761 108.617C134.977 109.098 136.274 109.334 137.58 109.312C139.674 109.311 141.717 108.669 143.435 107.473C143.718 107.261 169.293 88.471 227.016 88.471C284.739 88.471 310.453 107.196 310.73 107.334C312.485 108.636 314.616 109.331 316.802 109.312C318.109 109.332 319.408 109.094 320.622 108.611C321.837 108.128 322.945 107.41 323.881 106.498C324.818 105.586 325.566 104.497 326.08 103.296C326.596 102.094 326.868 100.802 326.883 99.4952C326.883 97.5368 326.299 95.6232 325.204 93.9996C324.109 92.3759 322.554 91.1167 320.738 90.3834Z" fill="white"/>
</g>
<path d="M745.023 129.8H633.023V196.2H741.823V249H633.023V357H577.823V77H745.023V129.8ZM808.444 133C799.911 133 792.444 129.933 786.044 123.8C779.911 117.4 776.844 109.933 776.844 101.4C776.844 92.8667 779.911 85.4 786.044 79C792.444 72.6 799.911 69.4 808.444 69.4C817.244 69.4 824.711 72.6 830.844 79C837.244 85.4 840.444 92.8667 840.444 101.4C840.444 109.933 837.244 117.4 830.844 123.8C824.711 129.933 817.244 133 808.444 133ZM782.844 357V157H834.444V357H782.844ZM992.873 151.4C1014.74 151.4 1032.74 158.733 1046.87 173.4C1061.27 188.067 1068.47 208.333 1068.47 234.2V357H1016.87V240.6C1016.87 227.267 1013.27 217.133 1006.07 210.2C998.873 203 989.273 199.4 977.273 199.4C963.939 199.4 953.273 203.533 945.273 211.8C937.273 220.067 933.273 232.467 933.273 249V357H881.673V157H933.273V179.4C945.806 160.733 965.673 151.4 992.873 151.4ZM1265.73 157H1316.13V347.4C1316.13 378.333 1305.87 401.933 1285.33 418.2C1265.07 434.467 1240.53 442.6 1211.73 442.6C1190.13 442.6 1171.07 438.467 1154.53 430.2C1138.27 421.933 1125.73 409.8 1116.93 393.8L1160.93 368.6C1171.07 387.267 1188.53 396.6 1213.33 396.6C1229.6 396.6 1242.4 392.333 1251.73 383.8C1261.07 375.267 1265.73 363.133 1265.73 347.4V325.8C1250.53 346.067 1229.2 356.2 1201.73 356.2C1173.47 356.2 1149.73 346.333 1130.53 326.6C1111.6 306.6 1102.13 282.333 1102.13 253.8C1102.13 225.533 1111.73 201.4 1130.93 181.4C1150.13 161.4 1173.73 151.4 1201.73 151.4C1229.2 151.4 1250.53 161.533 1265.73 181.8V157ZM1169.33 293.4C1180 303.533 1193.47 308.6 1209.73 308.6C1226 308.6 1239.33 303.533 1249.73 293.4C1260.4 283 1265.73 269.8 1265.73 253.8C1265.73 238.067 1260.4 225.133 1249.73 215C1239.33 204.6 1226 199.4 1209.73 199.4C1193.47 199.4 1180 204.6 1169.33 215C1158.93 225.133 1153.73 238.067 1153.73 253.8C1153.73 269.8 1158.93 283 1169.33 293.4ZM1516.12 157H1566.52V347.4C1566.52 378.333 1556.26 401.933 1535.72 418.2C1515.46 434.467 1490.92 442.6 1462.12 442.6C1440.52 442.6 1421.46 438.467 1404.92 430.2C1388.66 421.933 1376.12 409.8 1367.32 393.8L1411.32 368.6C1421.46 387.267 1438.92 396.6 1463.72 396.6C1479.99 396.6 1492.79 392.333 1502.12 383.8C1511.46 375.267 1516.12 363.133 1516.12 347.4V325.8C1500.92 346.067 1479.59 356.2 1452.12 356.2C1423.86 356.2 1400.12 346.333 1380.92 326.6C1361.99 306.6 1352.52 282.333 1352.52 253.8C1352.52 225.533 1362.12 201.4 1381.32 181.4C1400.52 161.4 1424.12 151.4 1452.12 151.4C1479.59 151.4 1500.92 161.533 1516.12 181.8V157ZM1419.72 293.4C1430.39 303.533 1443.86 308.6 1460.12 308.6C1476.39 308.6 1489.72 303.533 1500.12 293.4C1510.79 283 1516.12 269.8 1516.12 253.8C1516.12 238.067 1510.79 225.133 1500.12 215C1489.72 204.6 1476.39 199.4 1460.12 199.4C1443.86 199.4 1430.39 204.6 1419.72 215C1409.32 225.133 1404.12 238.067 1404.12 253.8C1404.12 269.8 1409.32 283 1419.72 293.4ZM1656.91 278.2C1663.85 303.267 1682.65 315.8 1713.31 315.8C1733.05 315.8 1747.98 309.133 1758.11 295.8L1799.71 319.8C1779.98 348.333 1750.91 362.6 1712.51 362.6C1679.45 362.6 1652.91 352.6 1632.91 332.6C1612.91 312.6 1602.91 287.4 1602.91 257C1602.91 226.867 1612.78 201.8 1632.51 181.8C1652.25 161.533 1677.58 151.4 1708.51 151.4C1737.85 151.4 1761.98 161.533 1780.91 181.8C1800.11 202.067 1809.71 227.133 1809.71 257C1809.71 263.667 1809.05 270.733 1807.71 278.2H1656.91ZM1656.11 238.2H1758.11C1755.18 224.6 1749.05 214.467 1739.71 207.8C1730.65 201.133 1720.25 197.8 1708.51 197.8C1694.65 197.8 1683.18 201.4 1674.11 208.6C1665.05 215.533 1659.05 225.4 1656.11 238.2ZM1897.34 191.4C1902.14 178.6 1910 169 1920.94 162.6C1932.14 156.2 1944.54 153 1958.14 153V210.6C1942.4 208.733 1928.27 211.933 1915.74 220.2C1903.47 228.467 1897.34 242.2 1897.34 261.4V357H1845.74V157H1897.34V191.4Z" fill="#312E37"/>
<defs>
<linearGradient id="paint0_linear_1_22" x1="0" y1="454" x2="454" y2="0" gradientUnits="userSpaceOnUse">
<stop stop-color="#8093E7"/>
<stop offset="1" stop-color="#B05FF8"/>
</linearGradient>
<clipPath id="clip0_1_22">
<rect width="454" height="454" fill="white"/>
</clipPath>
</defs>
</svg>
