<svg width="1965" height="454" viewBox="0 0 1965 454" fill="none" xmlns="http://www.w3.org/2000/svg">
<path d="M745.023 129.8H633.023V196.2H741.823V249H633.023V357H577.823V77H745.023V129.8ZM808.444 133C799.911 133 792.444 129.933 786.044 123.8C779.911 117.4 776.844 109.933 776.844 101.4C776.844 92.8667 779.911 85.4 786.044 79C792.444 72.6 799.911 69.4 808.444 69.4C817.244 69.4 824.711 72.6 830.844 79C837.244 85.4 840.444 92.8667 840.444 101.4C840.444 109.933 837.244 117.4 830.844 123.8C824.711 129.933 817.244 133 808.444 133ZM782.844 357V157H834.444V357H782.844ZM992.873 151.4C1014.74 151.4 1032.74 158.733 1046.87 173.4C1061.27 188.067 1068.47 208.333 1068.47 234.2V357H1016.87V240.6C1016.87 227.267 1013.27 217.133 1006.07 210.2C998.873 203 989.273 199.4 977.273 199.4C963.939 199.4 953.273 203.533 945.273 211.8C937.273 220.067 933.273 232.467 933.273 249V357H881.673V157H933.273V179.4C945.806 160.733 965.673 151.4 992.873 151.4ZM1265.73 157H1316.13V347.4C1316.13 378.333 1305.87 401.933 1285.33 418.2C1265.07 434.467 1240.53 442.6 1211.73 442.6C1190.13 442.6 1171.07 438.467 1154.53 430.2C1138.27 421.933 1125.73 409.8 1116.93 393.8L1160.93 368.6C1171.07 387.267 1188.53 396.6 1213.33 396.6C1229.6 396.6 1242.4 392.333 1251.73 383.8C1261.07 375.267 1265.73 363.133 1265.73 347.4V325.8C1250.53 346.067 1229.2 356.2 1201.73 356.2C1173.47 356.2 1149.73 346.333 1130.53 326.6C1111.6 306.6 1102.13 282.333 1102.13 253.8C1102.13 225.533 1111.73 201.4 1130.93 181.4C1150.13 161.4 1173.73 151.4 1201.73 151.4C1229.2 151.4 1250.53 161.533 1265.73 181.8V157ZM1169.33 293.4C1180 303.533 1193.47 308.6 1209.73 308.6C1226 308.6 1239.33 303.533 1249.73 293.4C1260.4 283 1265.73 269.8 1265.73 253.8C1265.73 238.067 1260.4 225.133 1249.73 215C1239.33 204.6 1226 199.4 1209.73 199.4C1193.47 199.4 1180 204.6 1169.33 215C1158.93 225.133 1153.73 238.067 1153.73 253.8C1153.73 269.8 1158.93 283 1169.33 293.4ZM1516.12 157H1566.52V347.4C1566.52 378.333 1556.26 401.933 1535.72 418.2C1515.46 434.467 1490.92 442.6 1462.12 442.6C1440.52 442.6 1421.46 438.467 1404.92 430.2C1388.66 421.933 1376.12 409.8 1367.32 393.8L1411.32 368.6C1421.46 387.267 1438.92 396.6 1463.72 396.6C1479.99 396.6 1492.79 392.333 1502.12 383.8C1511.46 375.267 1516.12 363.133 1516.12 347.4V325.8C1500.92 346.067 1479.59 356.2 1452.12 356.2C1423.86 356.2 1400.12 346.333 1380.92 326.6C1361.99 306.6 1352.52 282.333 1352.52 253.8C1352.52 225.533 1362.12 201.4 1381.32 181.4C1400.52 161.4 1424.12 151.4 1452.12 151.4C1479.59 151.4 1500.92 161.533 1516.12 181.8V157ZM1419.72 293.4C1430.39 303.533 1443.86 308.6 1460.12 308.6C1476.39 308.6 1489.72 303.533 1500.12 293.4C1510.79 283 1516.12 269.8 1516.12 253.8C1516.12 238.067 1510.79 225.133 1500.12 215C1489.72 204.6 1476.39 199.4 1460.12 199.4C1443.86 199.4 1430.39 204.6 1419.72 215C1409.32 225.133 1404.12 238.067 1404.12 253.8C1404.12 269.8 1409.32 283 1419.72 293.4ZM1656.91 278.2C1663.85 303.267 1682.65 315.8 1713.31 315.8C1733.05 315.8 1747.98 309.133 1758.11 295.8L1799.71 319.8C1779.98 348.333 1750.91 362.6 1712.51 362.6C1679.45 362.6 1652.91 352.6 1632.91 332.6C1612.91 312.6 1602.91 287.4 1602.91 257C1602.91 226.867 1612.78 201.8 1632.51 181.8C1652.25 161.533 1677.58 151.4 1708.51 151.4C1737.85 151.4 1761.98 161.533 1780.91 181.8C1800.11 202.067 1809.71 227.133 1809.71 257C1809.71 263.667 1809.05 270.733 1807.71 278.2H1656.91ZM1656.11 238.2H1758.11C1755.18 224.6 1749.05 214.467 1739.71 207.8C1730.65 201.133 1720.25 197.8 1708.51 197.8C1694.65 197.8 1683.18 201.4 1674.11 208.6C1665.05 215.533 1659.05 225.4 1656.11 238.2ZM1897.34 191.4C1902.14 178.6 1910 169 1920.94 162.6C1932.14 156.2 1944.54 153 1958.14 153V210.6C1942.4 208.733 1928.27 211.933 1915.74 220.2C1903.47 228.467 1897.34 242.2 1897.34 261.4V357H1845.74V157H1897.34V191.4Z" fill="white"/>
<g clip-path="url(#clip0_1_56)">
<mask id="mask0_1_56" style="mask-type:luminance" maskUnits="userSpaceOnUse" x="0" y="0" width="454" height="454">
<path d="M454 0H0V454H454V0Z" fill="white"/>
</mask>
<g mask="url(#mask0_1_56)">
<path d="M340.5 0C403.184 0 454 50.8157 454 113.5V340.5C454 403.184 403.184 454 340.5 454H113.5C50.8157 454 0 403.184 0 340.5V113.5C0 50.8157 50.8157 0 113.5 0H340.5ZM227.016 142.68C162.72 142.68 119.99 186.195 106.144 229.36C93.4332 269.195 108.846 326.982 109.507 329.458C110.243 332.007 111.949 334.166 114.259 335.473C116.568 336.778 119.298 337.128 121.862 336.446C123.132 336.142 124.327 335.587 125.378 334.813C126.429 334.04 127.315 333.063 127.983 331.942C128.651 330.821 129.088 329.577 129.267 328.284C129.447 326.991 129.366 325.675 129.029 324.414C128.884 323.898 114.46 269.73 125.462 235.268C131.396 216.754 143.719 198.742 159.272 185.985C178.062 170.583 201.494 162.387 226.997 162.387C286.737 162.387 320.619 208.915 330.166 233.593C337.597 252.713 335.883 274.372 326.026 287.657C322.38 292.529 315.952 298.252 306.167 297.758C283.889 296.624 280.019 285.607 274.658 264.628C272.107 254.553 269.47 244.096 262.877 235.617C254.873 225.233 243.229 220.216 227.089 220.216C209.729 220.216 196.583 225.965 187.939 237.174C169.083 261.753 181.366 303.718 181.867 305.485L182.012 306.045C182.942 308.592 205.8 369.788 267.017 384.952C267.835 385.15 268.674 385.246 269.516 385.236C271.726 385.238 273.877 384.516 275.638 383.182C277.4 381.847 278.677 379.973 279.274 377.845C279.591 376.585 279.654 375.273 279.46 373.988C279.267 372.703 278.82 371.469 278.145 370.358C277.47 369.247 276.581 368.281 275.53 367.516C274.479 366.752 273.286 366.205 272.021 365.905C223.088 353.78 202.655 303.673 201.086 299.716C199.317 293.296 198.19 286.717 197.723 280.075C197.01 270.541 197.512 257.402 203.94 248.995C208.654 242.85 216.231 239.883 227.016 239.883C246.657 239.883 249.947 249.489 255.09 269.414C260.088 288.838 266.945 315.468 305.093 317.379C319.736 318.085 332.956 311.584 342.238 299.149C356.17 280.503 358.814 251.962 348.957 226.532C341.204 206.614 326.382 186.689 308.237 171.855C284.806 152.781 256.732 142.68 227.016 142.68ZM227.016 180.545C199.655 180.545 177.864 189.235 162.364 206.331C141.365 229.499 137.08 263.196 140.007 286.998V287.189C145.222 323.141 159.08 351.894 183.581 377.608C184.536 378.592 185.68 379.375 186.944 379.909C188.207 380.442 189.567 380.716 190.939 380.713C193.448 380.7 195.864 379.761 197.723 378.076C198.689 377.206 199.469 376.151 200.019 374.974C200.568 373.797 200.876 372.521 200.923 371.223C200.969 369.925 200.754 368.63 200.291 367.417C199.828 366.203 199.124 365.094 198.224 364.158C176.651 341.556 164.434 316.265 159.865 284.472C157.591 265.827 160.795 237.641 177.37 219.346C188.869 206.653 205.583 200.225 226.944 200.225C251.675 200.225 270.373 211.249 282.663 232.934C288.71 243.824 292.702 255.734 294.438 268.069C294.764 270.69 296.107 273.078 298.178 274.718C300.249 276.357 302.882 277.116 305.508 276.832C306.809 276.714 308.075 276.34 309.232 275.733C310.389 275.126 311.415 274.296 312.251 273.292C313.087 272.288 313.717 271.128 314.104 269.88C314.491 268.632 314.628 267.32 314.507 266.018C314.448 265.173 312.167 244.616 300.662 223.987C284.806 195.591 259.375 180.545 227.016 180.545ZM233.455 262.583C231.427 260.847 228.792 259.987 226.13 260.193C223.468 260.4 220.996 261.655 219.259 263.684C217.523 265.712 216.664 268.347 216.87 271.01C217.015 272.633 220.298 311.063 249.585 334.66C264.162 346.455 282.379 352.389 303.807 352.389C308.557 352.386 313.304 352.108 318.022 351.558C319.322 351.436 320.585 351.057 321.737 350.443C322.89 349.827 323.908 348.989 324.733 347.976C325.558 346.964 326.173 345.796 326.542 344.544C326.911 343.292 327.027 341.978 326.883 340.679C326.55 338.052 325.191 335.663 323.102 334.034C321.013 332.406 318.364 331.671 315.734 331.99C293.733 334.462 275.879 330.229 262.521 319.562C239.946 301.457 237.018 270.022 236.945 269.454C236.739 266.791 235.484 264.32 233.455 262.583ZM226.997 105.851C142.604 105.851 103.929 155.372 91.2171 176.589C90.5577 177.71 90.1281 178.952 89.9544 180.241C89.7802 181.53 89.8653 182.842 90.2041 184.098C90.5429 185.354 91.1291 186.53 91.9276 187.556C92.7267 188.584 93.7226 189.441 94.8565 190.078C96.4029 190.958 98.1542 191.413 99.9333 191.397C101.694 191.418 103.429 190.968 104.957 190.094C106.486 189.22 107.754 187.954 108.63 186.426C119.528 168.13 152.989 125.466 226.997 125.466C302.818 125.466 335.125 171.829 345.72 187.066C347.253 189.239 349.573 190.731 352.187 191.223C354.801 191.715 357.505 191.169 359.724 189.702C360.809 188.987 361.741 188.06 362.463 186.979C363.186 185.898 363.685 184.682 363.93 183.405C364.176 182.127 364.164 180.814 363.895 179.542C363.625 178.269 363.104 177.063 362.361 175.995C356.506 167.523 344.217 149.933 322.288 134.393C295.645 115.457 263.569 105.851 226.997 105.851ZM226.997 68.7645C168.49 68.7645 138.774 86.6385 132.2 91.1814C131.766 91.4475 131.36 91.7568 130.987 92.1041C130.948 92.1421 130.896 92.1654 130.842 92.1699C129.792 93.0865 128.95 94.2163 128.371 95.4841C127.793 96.7519 127.491 98.1281 127.487 99.5213C127.504 100.828 127.78 102.118 128.297 103.317C128.815 104.516 129.564 105.602 130.501 106.512C131.439 107.421 132.547 108.137 133.761 108.617C134.976 109.098 136.274 109.335 137.581 109.312C139.674 109.311 141.717 108.669 143.435 107.473C143.736 107.248 169.314 88.471 227.016 88.471C284.74 88.4715 310.453 107.196 310.73 107.335C312.485 108.636 314.617 109.331 316.802 109.312C318.109 109.332 319.408 109.094 320.623 108.611C321.837 108.128 322.945 107.41 323.882 106.498C324.818 105.586 325.566 104.497 326.081 103.296C326.596 102.094 326.869 100.802 326.883 99.4947C326.884 97.5368 326.299 95.6226 325.204 93.9996C324.109 92.3759 322.554 91.1167 320.739 90.3835C312.378 84.944 282.735 68.7645 226.997 68.7645Z" fill="white"/>
</g>
</g>
<defs>
<clipPath id="clip0_1_56">
<rect width="454" height="454" fill="white"/>
</clipPath>
</defs>
</svg>
