<svg width="141" height="40" viewBox="0 0 141 40" fill="none" xmlns="http://www.w3.org/2000/svg">
<circle cx="13.9472" cy="18.9937" r="13.8348" fill="url(#paint0_radial_279_12)"/>
<circle cx="20.6855" cy="29.4322" r="5.409" fill="#5E6BFF"/>
<path d="M124.535 25.9779C123.179 25.9779 122.051 25.5279 121.151 24.6279C120.263 23.7159 119.819 22.6059 119.819 21.2979C119.819 19.9899 120.263 18.8859 121.151 17.9859C122.051 17.0739 123.179 16.6179 124.535 16.6179C125.879 16.6179 126.995 17.0739 127.883 17.9859C128.783 18.8859 129.233 19.9899 129.233 21.2979C129.233 22.6059 128.783 23.7159 127.883 24.6279C126.995 25.5279 125.879 25.9779 124.535 25.9779ZM122.267 23.6019C122.855 24.2259 123.611 24.5379 124.535 24.5379C125.459 24.5379 126.209 24.2259 126.785 23.6019C127.361 22.9779 127.649 22.2099 127.649 21.2979C127.649 20.3859 127.361 19.6179 126.785 18.9939C126.209 18.3699 125.459 18.0579 124.535 18.0579C123.611 18.0579 122.855 18.3699 122.267 18.9939C121.691 19.6179 121.403 20.3859 121.403 21.2979C121.403 22.2099 121.691 22.9779 122.267 23.6019Z" fill="#F9F9F9"/>
<path d="M112.153 25.9779C110.797 25.9779 109.675 25.5279 108.787 24.6279C107.899 23.7159 107.455 22.6059 107.455 21.2979C107.455 19.9899 107.899 18.8859 108.787 17.9859C109.675 17.0739 110.797 16.6179 112.153 16.6179C113.269 16.6179 114.235 16.9299 115.051 17.5539C115.867 18.1659 116.413 18.9699 116.689 19.9659H115.033C114.817 19.3779 114.457 18.9099 113.953 18.5619C113.449 18.2139 112.849 18.0399 112.153 18.0399C111.229 18.0399 110.473 18.3519 109.885 18.9759C109.309 19.5999 109.021 20.3739 109.021 21.2979C109.021 22.2219 109.309 22.9959 109.885 23.6199C110.473 24.2439 111.229 24.5559 112.153 24.5559C112.849 24.5559 113.449 24.3819 113.953 24.0339C114.457 23.6859 114.817 23.2179 115.033 22.6299H116.689C116.425 23.6259 115.885 24.4359 115.069 25.0599C114.253 25.6719 113.281 25.9779 112.153 25.9779Z" fill="#F9F9F9"/>
<path d="M103.744 25.5459C103.492 25.8099 103.18 25.9419 102.808 25.9419C102.436 25.9419 102.118 25.8099 101.854 25.5459C101.602 25.2819 101.476 24.9639 101.476 24.5919C101.476 24.2319 101.608 23.9199 101.872 23.6559C102.136 23.3799 102.448 23.2419 102.808 23.2419C103.168 23.2419 103.48 23.3799 103.744 23.6559C104.008 23.9199 104.14 24.2319 104.14 24.5919C104.14 24.9639 104.008 25.2819 103.744 25.5459Z" fill="#F9F9F9"/>
<path d="M94.6936 25.9779C93.6856 25.9779 92.8396 25.7319 92.1556 25.2399C91.4836 24.7479 91.1116 24.0639 91.0396 23.1879H92.6236C92.7196 23.6919 92.9596 24.0639 93.3436 24.3039C93.7396 24.5439 94.1956 24.6639 94.7116 24.6639C95.2276 24.6639 95.6416 24.5619 95.9536 24.3579C96.2776 24.1539 96.4396 23.8599 96.4396 23.4759C96.4396 23.1159 96.3196 22.8219 96.0796 22.5939C95.8516 22.3659 95.4736 22.1799 94.9456 22.0359L93.6496 21.6939C92.1016 21.2859 91.3276 20.4039 91.3276 19.0479C91.3276 18.3159 91.6156 17.7279 92.1916 17.2839C92.7796 16.8399 93.5296 16.6179 94.4416 16.6179C95.3656 16.6179 96.1216 16.8639 96.7096 17.3559C97.3096 17.8359 97.6456 18.4479 97.7176 19.1919H96.1696C96.0496 18.7959 95.8336 18.4839 95.5216 18.2559C95.2216 18.0279 94.8616 17.9139 94.4416 17.9139C93.9976 17.9139 93.6256 18.0159 93.3256 18.2199C93.0376 18.4239 92.8936 18.6939 92.8936 19.0299C92.8936 19.3539 93.0016 19.6179 93.2176 19.8219C93.4336 20.0259 93.7816 20.1939 94.2616 20.3259L95.7016 20.7039C97.2376 21.0879 98.0056 21.9759 98.0056 23.3679C98.0056 24.2319 97.6996 24.8859 97.0876 25.3299C96.4756 25.7619 95.6776 25.9779 94.6936 25.9779Z" fill="#F9F9F9"/>
<path d="M85.6618 25.7979V20.5059C85.6618 19.7619 85.5058 19.1679 85.1938 18.7239C84.8938 18.2679 84.4558 18.0399 83.8798 18.0399C83.1598 18.0399 82.5718 18.3219 82.1158 18.8859C81.6718 19.4499 81.4378 20.2179 81.4138 21.1899V25.7979H79.8658V20.5059C79.8658 19.7499 79.7098 19.1499 79.3978 18.7059C79.0978 18.2619 78.6658 18.0399 78.1018 18.0399C77.3578 18.0399 76.7578 18.3399 76.3018 18.9399C75.8458 19.5279 75.6178 20.3259 75.6178 21.3339V25.7979H74.0698V16.7979H75.6178V18.1839C76.1938 17.1399 77.0998 16.6179 78.3358 16.6179C79.7038 16.6179 80.6278 17.2599 81.1078 18.5439C81.3478 17.9559 81.7318 17.4879 82.2598 17.1399C82.7878 16.7919 83.3878 16.6179 84.0598 16.6179C85.0318 16.6179 85.7998 16.9479 86.3638 17.6079C86.9278 18.2679 87.2098 19.1559 87.2098 20.2719V25.7979H85.6618Z" fill="#F9F9F9"/>
<path d="M64.6399 25.9779C63.3919 25.9779 62.3419 25.5219 61.4899 24.6099C60.6499 23.6979 60.2299 22.5939 60.2299 21.2979C60.2299 20.0019 60.6499 18.8979 61.4899 17.9859C62.3419 17.0739 63.3919 16.6179 64.6399 16.6179C65.2999 16.6179 65.9119 16.7679 66.4759 17.0679C67.0519 17.3559 67.4959 17.7279 67.8079 18.1839V16.7979H69.3559V25.7979H67.8079V24.4119C67.4959 24.8679 67.0519 25.2459 66.4759 25.5459C65.9119 25.8339 65.2999 25.9779 64.6399 25.9779ZM64.8739 24.5559C65.7619 24.5559 66.4939 24.2439 67.0699 23.6199C67.6459 22.9959 67.9339 22.2219 67.9339 21.2979C67.9339 20.3739 67.6459 19.5999 67.0699 18.9759C66.4939 18.3519 65.7619 18.0399 64.8739 18.0399C63.9739 18.0399 63.2359 18.3519 62.6599 18.9759C62.0839 19.5999 61.7959 20.3739 61.7959 21.2979C61.7959 22.2219 62.0839 22.9959 62.6599 23.6199C63.2359 24.2439 63.9739 24.5559 64.8739 24.5559Z" fill="#F9F9F9"/>
<path d="M52.5421 25.9779C51.2341 25.9779 50.1481 25.5339 49.2841 24.6459C48.4321 23.7579 48.0061 22.6419 48.0061 21.2979C48.0061 19.9419 48.4201 18.8259 49.2481 17.9499C50.0881 17.0619 51.1981 16.6179 52.5781 16.6179C53.9701 16.6179 55.0621 17.1099 55.8541 18.0939C56.6461 19.0779 56.9941 20.2839 56.8981 21.7119H49.5721C49.5961 22.5279 49.8961 23.2119 50.4721 23.7639C51.0481 24.3039 51.7441 24.5739 52.5601 24.5739C53.7841 24.5739 54.6541 24.0699 55.1701 23.0619H56.7541C56.5261 23.9019 56.0401 24.5979 55.2961 25.1499C54.5521 25.7019 53.6341 25.9779 52.5421 25.9779ZM54.3061 18.6339C53.8141 18.2019 53.2201 17.9859 52.5241 17.9859C51.8281 17.9859 51.2041 18.1959 50.6521 18.6159C50.1121 19.0359 49.7761 19.6599 49.6441 20.4879H55.2601C55.1161 19.6719 54.7981 19.0539 54.3061 18.6339Z" fill="#F9F9F9"/>
<path d="M43.6677 25.8879C42.8397 25.8879 42.1737 25.6539 41.6697 25.1859C41.1657 24.7179 40.9137 24.0339 40.9137 23.1339V18.2199H39.0057V16.7979H40.9137V14.2959H42.4617V16.7979H45.0537V18.2199H42.4617V22.9359C42.4617 23.4999 42.5817 23.8959 42.8217 24.1239C43.0617 24.3519 43.4397 24.4659 43.9557 24.4659C44.4117 24.4659 44.7777 24.4059 45.0537 24.2859V25.6719C44.6217 25.8159 44.1597 25.8879 43.6677 25.8879Z" fill="#F9F9F9"/>
<defs>
<radialGradient id="paint0_radial_279_12" cx="0" cy="0" r="1" gradientUnits="userSpaceOnUse" gradientTransform="translate(10.9287 15.7237) rotate(45) scale(18.4981)">
<stop stop-color="#766AFF"/>
<stop offset="0.0001" stop-color="#756AFF"/>
<stop offset="1" stop-color="#403A83"/>
</radialGradient>
</defs>
</svg>
