<svg width="502" height="109" viewBox="0 0 502 109" fill="none" xmlns="http://www.w3.org/2000/svg">
<path d="M119.611 92.4561V52.2561H109.211V42.4561H119.611V34.056C119.611 28.6561 121.211 24.4561 124.411 21.4561C127.611 18.3894 131.711 16.8561 136.711 16.8561C139.777 16.8561 142.511 17.2561 144.911 18.0561V27.8561C143.377 27.1894 141.411 26.8561 139.011 26.8561C136.077 26.8561 133.944 27.5227 132.611 28.8561C131.277 30.1227 130.611 32.2894 130.611 35.3561V42.4561H144.911V52.2561H130.611V92.4561H119.611ZM193.611 85.9561C188.611 90.9561 182.411 93.4561 175.011 93.4561C167.611 93.4561 161.377 90.9561 156.311 85.9561C151.311 80.8894 148.811 74.7227 148.811 67.4561C148.811 60.1894 151.311 54.0561 156.311 49.0561C161.377 43.9894 167.611 41.456 175.011 41.456C182.411 41.456 188.611 43.9894 193.611 49.0561C198.677 54.0561 201.211 60.1894 201.211 67.4561C201.211 74.7227 198.677 80.8894 193.611 85.9561ZM175.011 83.2561C179.344 83.2561 182.911 81.7561 185.711 78.7561C188.577 75.6894 190.011 71.9227 190.011 67.4561C190.011 62.9894 188.577 59.2561 185.711 56.2561C182.911 53.1894 179.344 51.6561 175.011 51.6561C170.611 51.6561 166.977 53.1894 164.111 56.2561C161.311 59.2561 159.911 62.9894 159.911 67.4561C159.911 71.9227 161.311 75.6894 164.111 78.7561C166.977 81.7561 170.611 83.2561 175.011 83.2561ZM212.274 92.4561V42.4561H223.274V51.3561C224.207 48.5561 225.907 46.2894 228.374 44.5561C230.907 42.8227 233.607 41.9561 236.474 41.9561C238.207 41.9561 239.641 42.0894 240.774 42.3561V53.6561C239.174 53.0561 237.341 52.7561 235.274 52.7561C231.941 52.7561 229.107 54.1227 226.774 56.8561C224.441 59.5227 223.274 63.2561 223.274 68.0561V92.4561H212.274ZM270.604 93.4561C263.138 93.4561 257.004 91.0227 252.204 86.1561C247.404 81.2227 245.004 74.9894 245.004 67.4561C245.004 59.9227 247.371 53.7227 252.104 48.8561C256.838 43.9227 263.038 41.456 270.704 41.456C278.438 41.456 284.671 44.1561 289.404 49.5561C294.138 54.8894 296.238 61.7561 295.704 70.1561H255.904C256.038 74.0227 257.504 77.2561 260.304 79.8561C263.104 82.4561 266.671 83.7561 271.004 83.7561C277.138 83.7561 281.338 81.4227 283.604 76.7561H295.104C293.571 81.6227 290.638 85.6227 286.304 88.7561C281.971 91.8894 276.738 93.4561 270.604 93.4561ZM270.404 50.6561C266.804 50.6561 263.704 51.6894 261.104 53.7561C258.571 55.7561 256.938 58.6227 256.204 62.3561H283.904C283.104 58.4894 281.471 55.5894 279.004 53.6561C276.538 51.6561 273.671 50.6561 270.404 50.6561ZM324.601 93.4561C318.667 93.4561 313.667 91.9894 309.601 89.0561C305.601 86.1227 303.467 82.1894 303.201 77.2561H314.601C315.401 82.1894 318.834 84.6561 324.901 84.6561C327.367 84.6561 329.334 84.2227 330.801 83.3561C332.267 82.4227 333.001 81.0894 333.001 79.3561C333.001 77.6227 332.434 76.2561 331.301 75.2561C330.167 74.2561 328.267 73.4227 325.601 72.7561L317.401 70.5561C308.867 68.2894 304.601 63.2561 304.601 55.4561C304.601 51.2561 306.301 47.8894 309.701 45.3561C313.101 42.7561 317.601 41.456 323.201 41.456C328.601 41.456 333.034 42.8227 336.501 45.5561C339.967 48.2894 341.901 51.9227 342.301 56.4561H331.301C330.234 52.3227 327.501 50.2561 323.101 50.2561C320.901 50.2561 319.134 50.7227 317.801 51.6561C316.467 52.5227 315.801 53.7561 315.801 55.3561C315.801 58.2227 318.034 60.2227 322.501 61.3561L330.901 63.5561C339.767 65.8227 344.201 70.8561 344.201 78.6561C344.201 83.3894 342.367 87.0561 338.701 89.6561C335.101 92.1894 330.401 93.4561 324.601 93.4561ZM376.064 92.9561C370.997 92.9561 366.864 91.5561 363.664 88.7561C360.531 85.8894 358.964 81.7561 358.964 76.3561V52.2561H348.564V42.4561H358.964V28.556H369.964V42.4561H384.264V52.2561H369.964V74.5561C369.964 77.6227 370.631 79.8227 371.964 81.1561C373.297 82.4227 375.431 83.0561 378.364 83.0561C380.764 83.0561 382.731 82.7227 384.264 82.0561V91.8561C381.864 92.5894 379.131 92.9561 376.064 92.9561ZM400.496 93.2561C398.163 93.2561 396.129 92.4227 394.396 90.7561C392.729 89.0227 391.896 86.9561 391.896 84.5561C391.896 82.2227 392.729 80.1894 394.396 78.4561C396.129 76.7227 398.163 75.8561 400.496 75.8561C402.896 75.8561 404.929 76.7227 406.596 78.4561C408.329 80.1894 409.196 82.2227 409.196 84.5561C409.196 86.9561 408.329 89.0227 406.596 90.7561C404.929 92.4227 402.896 93.2561 400.496 93.2561ZM441.075 93.4561C434.275 93.4561 428.541 90.9227 423.875 85.8561C419.275 80.7894 416.975 74.6561 416.975 67.4561C416.975 60.2561 419.275 54.1227 423.875 49.0561C428.541 43.9894 434.275 41.456 441.075 41.456C444.475 41.456 447.608 42.2227 450.475 43.7561C453.341 45.2227 455.541 47.0227 457.075 49.1561V42.4561H468.075V92.4561H457.075V85.7561C455.541 87.8894 453.341 89.7227 450.475 91.2561C447.608 92.7227 444.475 93.4561 441.075 93.4561ZM432.375 78.8561C435.175 81.9227 438.741 83.4561 443.075 83.4561C447.408 83.4561 450.975 81.9227 453.775 78.8561C456.575 75.7894 457.975 71.9894 457.975 67.4561C457.975 62.9227 456.575 59.1227 453.775 56.0561C450.975 52.9894 447.408 51.4561 443.075 51.4561C438.741 51.4561 435.175 52.9894 432.375 56.0561C429.575 59.1227 428.175 62.9227 428.175 67.4561C428.175 71.9894 429.575 75.7894 432.375 78.8561ZM488.477 31.5561C486.477 31.5561 484.744 30.8561 483.277 29.456C481.81 27.9894 481.077 26.2227 481.077 24.1561C481.077 22.156 481.81 20.456 483.277 19.0561C484.744 17.5894 486.477 16.8561 488.477 16.8561C490.544 16.8561 492.277 17.5894 493.677 19.0561C495.077 20.456 495.777 22.156 495.777 24.1561C495.777 26.2227 495.077 27.9894 493.677 29.456C492.277 30.8561 490.544 31.5561 488.477 31.5561ZM482.977 92.4561V42.4561H493.977V92.4561H482.977Z" fill="#F9F9F9"/>
<path d="M43.9982 2.29653C43.691 1.83581 43.2748 1.45806 42.7866 1.19679C42.2983 0.935527 41.7531 0.798828 41.1994 0.798828C40.6457 0.798828 40.1005 0.935527 39.6122 1.19679C39.124 1.45806 38.7078 1.83581 38.4006 2.29653L18.2171 32.5718C17.88 33.0783 17.6866 33.6669 17.6576 34.2746C17.6285 34.8824 17.7648 35.4867 18.052 36.0232C18.3392 36.5596 18.7666 37.0081 19.2885 37.3209C19.8104 37.6336 20.4074 37.799 21.0159 37.7993H21.6752L8.07156 59.5638C7.7533 60.073 7.57715 60.6581 7.56139 61.2584C7.54563 61.8587 7.69083 62.4522 7.98193 62.9774C8.27302 63.5026 8.69939 63.9403 9.21677 64.2451C9.73415 64.5499 10.3237 64.7106 10.9242 64.7106H12.2092L1.18898 86.751C0.931991 87.2638 0.810418 87.8339 0.83582 88.407C0.861221 88.9801 1.03275 89.5371 1.33411 90.0252C1.63547 90.5133 2.05665 90.9163 2.55761 91.1957C3.05857 91.4752 3.62268 91.6219 4.19632 91.6219H34.4716V108.442H47.9272V91.6219H78.2025C78.7761 91.6219 79.3402 91.4752 79.8412 91.1957C80.3422 90.9163 80.7633 90.5133 81.0647 90.0252C81.3661 89.5371 81.5376 88.9801 81.563 88.407C81.5884 87.8339 81.4668 87.2638 81.2098 86.751L70.1964 64.7106H71.4814C72.0819 64.7106 72.6714 64.5499 73.1888 64.2451C73.7061 63.9403 74.1325 63.5026 74.4236 62.9774C74.7147 62.4522 74.8599 61.8587 74.8441 61.2584C74.8284 60.6581 74.6522 60.073 74.334 59.5638L60.7236 37.7993H61.3829C61.9914 37.799 62.5884 37.6336 63.1103 37.3209C63.6323 37.0081 64.0596 36.5596 64.3468 36.0232C64.634 35.4867 64.7703 34.8824 64.7412 34.2746C64.7122 33.6669 64.5188 33.0783 64.1817 32.5718L43.9982 2.29653Z" fill="#F9F9F9"/>
</svg>
