<svg width="270" height="270" viewBox="0 0 270 270" fill="none" xmlns="http://www.w3.org/2000/svg">
<circle cx="135.15" cy="135.084" r="134.174" fill="white"/>
<path fill-rule="evenodd" clip-rule="evenodd" d="M83.0444 84.4059C83.0444 78.4084 87.9064 73.5464 93.904 73.5464H157.324C177.759 73.5464 193.522 91.5508 193.522 109.745C193.522 129.787 177.366 145.943 157.324 145.943H93.904C87.9064 145.943 83.0444 141.081 83.0444 135.084V84.4059ZM104.764 95.2655V124.224H157.324C165.371 124.224 171.803 117.792 171.803 109.745C171.803 102.745 164.978 95.2655 157.324 95.2655H104.764Z" fill="#226CE7"/>
<path fill-rule="evenodd" clip-rule="evenodd" d="M83.0444 135.084C83.0444 129.086 87.9064 124.224 93.904 124.224H166.301C186.786 124.224 206.119 139.036 206.119 160.423C206.119 181.81 186.786 196.621 166.301 196.621H93.904C87.9064 196.621 83.0444 191.759 83.0444 185.762V135.084ZM104.764 145.943V174.902H166.301C177.67 174.902 184.4 167.126 184.4 160.423C184.4 153.72 177.67 145.943 166.301 145.943H104.764Z" fill="#226CE7"/>
<path fill-rule="evenodd" clip-rule="evenodd" d="M134.457 174.902C140.455 174.902 145.317 179.764 145.317 185.762V211.101C145.317 217.098 140.455 221.96 134.457 221.96C128.46 221.96 123.598 217.098 123.598 211.101V185.762C123.598 179.764 128.46 174.902 134.457 174.902Z" fill="#226CE7"/>
<path fill-rule="evenodd" clip-rule="evenodd" d="M134.457 48.2074C140.455 48.2074 145.317 53.0694 145.317 59.0669V84.4059C145.317 90.4034 140.455 95.2654 134.457 95.2654C128.46 95.2654 123.598 90.4034 123.598 84.4059V59.0669C123.598 53.0694 128.46 48.2074 134.457 48.2074Z" fill="#226CE7"/>
</svg>
