<svg width="48" height="48" viewBox="0 0 48 48" fill="none" xmlns="http://www.w3.org/2000/svg">
<g clip-path="url(#clip0_755_16)">
<path d="M37 0C43.0751 5.15406e-07 48 4.92487 48 11V37C48 43.0751 43.0751 48 37 48H11C4.92487 48 1.28855e-07 43.0751 0 37V16.1758H16.1758V0H37ZM24.4209 11.8086C21.8988 11.8087 19.8124 12.4619 18.1621 13.7695C16.5428 15.0463 15.702 16.7439 15.6396 18.8613C15.5774 20.6675 16.0907 22.2253 17.1807 23.5332C18.3018 24.8411 19.9372 25.7754 22.0859 26.3359L23.8145 26.7559C25.0598 27.0984 25.8852 27.4407 26.29 27.7832C26.726 28.0946 26.9433 28.4998 26.9434 28.998C26.9434 29.5586 26.6946 29.9795 26.1963 30.2598C25.6982 30.5399 25.091 30.6796 24.375 30.6797C22.0083 30.6797 20.2637 29.7769 19.1426 27.9707L14.752 31.707C16.745 34.6966 19.9529 36.1914 24.375 36.1914C26.9284 36.1913 29.046 35.4754 30.7275 34.043C32.409 32.6106 33.2499 30.789 33.25 28.5781C33.25 24.9657 30.9921 22.5514 26.4766 21.3369L24.2812 20.6836C22.7553 20.2788 21.9922 19.609 21.9922 18.6748C21.9922 18.1765 22.2262 17.7871 22.6934 17.5068C23.1604 17.2267 23.7054 17.0869 24.3281 17.0869C25.8851 17.087 27.2089 17.7714 28.2988 19.1416L32.5029 15.7314C30.6967 13.1157 28.0021 11.8086 24.4209 11.8086Z" fill="#D9D9D9"/>
</g>
<defs>
<clipPath id="clip0_755_16">
<rect width="48" height="48" fill="white"/>
</clipPath>
</defs>
</svg>
