<svg width="572" height="382" viewBox="0 0 572 382" fill="none" xmlns="http://www.w3.org/2000/svg">
<path d="M269.834 187.887L319.218 159.323L264.121 159.958L269.834 187.887Z" fill="#6E50C7" stroke="#6E50C7" stroke-linejoin="bevel"/>
<path d="M269.834 187.887L293.828 204.391L319.218 159.323L269.834 187.887Z" fill="#7555D1" stroke="#7555D1" stroke-linejoin="bevel"/>
<path d="M319.218 159.323L298.271 107.908L264.121 159.958L319.218 159.323Z" fill="#6246B3" stroke="#6246B3" stroke-linejoin="bevel"/>
<path d="M298.271 107.908L265.391 111.082L264.121 159.958L298.271 107.908Z" fill="#8864F0" stroke="#8864F0" stroke-linejoin="bevel"/>
<path d="M293.828 204.391L355.272 180.27L319.218 159.323L293.828 204.391Z" fill="#6246B3" stroke="#6246B3" stroke-linejoin="bevel"/>
<path d="M319.218 159.323L353.368 135.837L298.271 107.908L319.218 159.323Z" fill="#8864F0" stroke="#8864F0" stroke-linejoin="bevel"/>
<path d="M216.007 202.487L246.983 222.164L269.834 187.888L216.007 202.487Z" fill="#5B41A9" stroke="#5B41A9" stroke-linejoin="bevel"/>
<path d="M269.834 187.888L246.982 222.164L293.827 204.391L269.834 187.888Z" fill="#7555D1" stroke="#7555D1" stroke-linejoin="bevel"/>
<path d="M216.007 202.487L269.834 187.887L264.121 159.958L216.007 202.487Z" fill="#4F3896" stroke="#4F3896" stroke-linejoin="bevel"/>
<path d="M355.273 180.271L353.369 135.838L319.219 159.324L355.273 180.271Z" fill="#7555D1" stroke="#7555D1" stroke-linejoin="bevel"/>
<path d="M189.982 141.551L216.007 202.487L264.122 159.959L189.982 141.551Z" fill="#4F3896" stroke="#4F3896" stroke-linejoin="bevel"/>
<path d="M246.982 222.164L297.636 252.632L293.827 204.391L246.982 222.164Z" fill="#7555D1" stroke="#7555D1" stroke-linejoin="bevel"/>
<path d="M293.828 204.391L297.637 252.633L355.272 180.271L293.828 204.391Z" fill="#8864F0" stroke="#8864F0" stroke-linejoin="bevel"/>
<path d="M423.699 95.8477L353.368 100.926V135.837L423.699 95.8477Z" fill="#6246B3" stroke="#6246B3" stroke-linejoin="bevel"/>
<path d="M353.368 135.837V100.926L298.271 107.908L353.368 135.837Z" fill="#6E50C7" stroke="#6E50C7" stroke-linejoin="bevel"/>
<path d="M223.624 63.4756L200.772 112.352L265.391 111.082L223.624 63.4756Z" fill="#815FE6" stroke="#815FE6" stroke-linejoin="bevel"/>
<path d="M246.982 222.164L294.462 269.771L297.636 252.632L246.982 222.164Z" fill="#7B5ADB" stroke="#7B5ADB" stroke-linejoin="bevel"/>
<path d="M297.637 252.633L378.124 254.537L355.272 180.271L297.637 252.633Z" fill="#6E50C7" stroke="#6E50C7" stroke-linejoin="bevel"/>
<path d="M253.33 303.413L294.462 269.771L246.982 222.164L253.33 303.413Z" fill="#7555D1" stroke="#7555D1" stroke-linejoin="bevel"/>
<path d="M200.773 112.352L189.982 141.55L264.122 159.958L200.773 112.352Z" fill="#8864F0" stroke="#8864F0" stroke-linejoin="bevel"/>
<path d="M252.061 47.6064L265.39 111.082L298.271 107.908L252.061 47.6064Z" fill="#7555D1" stroke="#7555D1" stroke-linejoin="bevel"/>
<path d="M265.391 111.082L200.772 112.352L264.121 159.958L265.391 111.082Z" fill="#49338C" stroke="#49338C" stroke-linejoin="bevel"/>
<path d="M189.982 141.551L172.971 185.349L216.007 202.487L189.982 141.551Z" fill="#6E50C7" stroke="#6E50C7" stroke-linejoin="bevel"/>
<path d="M216.006 202.486L195.06 239.937L246.983 222.164L216.006 202.486Z" fill="#684BBD" stroke="#684BBD" stroke-linejoin="bevel"/>
<path d="M159.641 150.437L172.97 185.349L189.982 141.551L159.641 150.437Z" fill="#49338C" stroke="#49338C" stroke-linejoin="bevel"/>
<path d="M172.971 185.349L195.06 239.938L216.007 202.487L172.971 185.349Z" fill="#553C9F" stroke="#553C9F" stroke-linejoin="bevel"/>
<path d="M294.463 269.771L378.124 254.537L297.637 252.633L294.463 269.771Z" fill="#6E50C7" stroke="#6E50C7" stroke-linejoin="bevel"/>
<path d="M355.272 180.271L423.699 148.533L353.368 135.838L355.272 180.271Z" fill="#49338C" stroke="#49338C" stroke-linejoin="bevel"/>
<path d="M353.368 100.926L310.332 47.6064L298.271 107.908L353.368 100.926Z" fill="#684BBD" stroke="#684BBD" stroke-linejoin="bevel"/>
<path d="M252.061 47.6064L223.624 63.4753L265.391 111.082L252.061 47.6064Z" fill="#684BBD" stroke="#684BBD" stroke-linejoin="bevel"/>
<path d="M310.331 47.6064H252.061L298.271 107.908L310.331 47.6064Z" fill="#8864F0" stroke="#8864F0" stroke-linejoin="bevel"/>
<path d="M138.06 79.9795L159.641 150.437L200.773 112.352L138.06 79.9795Z" fill="#8864F0" stroke="#8864F0" stroke-linejoin="bevel"/>
<path d="M200.773 112.352L159.641 150.437L189.982 141.55L200.773 112.352Z" fill="#815FE6" stroke="#815FE6" stroke-linejoin="bevel"/>
<path d="M431.951 175.192L423.699 148.532L355.272 180.27L431.951 175.192Z" fill="#8864F0" stroke="#8864F0" stroke-linejoin="bevel"/>
<path d="M353.368 100.926L380.663 62.8406L310.332 47.6064L353.368 100.926Z" fill="#5B41A9" stroke="#5B41A9" stroke-linejoin="bevel"/>
<path d="M423.699 95.8481L380.663 62.8408L353.368 100.926L423.699 95.8481Z" fill="#553C9F" stroke="#553C9F" stroke-linejoin="bevel"/>
<path d="M210.929 289.448L253.33 303.413L246.983 222.164L210.929 289.448Z" fill="#815FE6" stroke="#815FE6" stroke-linejoin="bevel"/>
<path d="M294.463 269.771L380.663 300.239L378.124 254.537L294.463 269.771Z" fill="#49338C" stroke="#49338C" stroke-linejoin="bevel"/>
<path d="M430.047 222.164L431.951 175.192L355.272 180.27L430.047 222.164Z" fill="#6E50C7" stroke="#6E50C7" stroke-linejoin="bevel"/>
<path d="M157.736 298.335L210.929 289.448L195.06 239.938L157.736 298.335Z" fill="#6246B3" stroke="#6246B3" stroke-linejoin="bevel"/>
<path d="M195.06 239.937L210.928 289.448L246.983 222.164L195.06 239.937Z" fill="#6E50C7" stroke="#6E50C7" stroke-linejoin="bevel"/>
<path d="M145.041 250.728L195.06 239.938L172.97 185.349L145.041 250.728Z" fill="#5B41A9" stroke="#5B41A9" stroke-linejoin="bevel"/>
<path d="M378.124 254.537L430.047 222.164L355.272 180.271L378.124 254.537Z" fill="#815FE6" stroke="#815FE6" stroke-linejoin="bevel"/>
<path d="M423.699 148.532V95.8477L353.368 135.837L423.699 148.532Z" fill="#5B41A9" stroke="#5B41A9" stroke-linejoin="bevel"/>
<path d="M472.512 125.681L423.699 95.8477V148.532L472.512 125.681Z" fill="#8864F0" stroke="#8864F0" stroke-linejoin="bevel"/>
<path d="M322.392 332.611L380.663 300.239L294.463 269.771L322.392 332.611Z" fill="#5B41A9" stroke="#5B41A9" stroke-linejoin="bevel"/>
<path d="M378.123 254.537L407.195 286.909L430.046 222.164L378.123 254.537Z" fill="#7B5ADB" stroke="#7B5ADB" stroke-linejoin="bevel"/>
<path d="M380.662 300.239L407.195 286.91L378.123 254.537L380.662 300.239Z" fill="#49338C" stroke="#49338C" stroke-linejoin="bevel"/>
<path d="M460.451 229.781L453.468 208.199L430.046 222.164L460.451 229.781Z" fill="#815FE6" stroke="#815FE6" stroke-linejoin="bevel"/>
<path d="M430.046 222.164L453.468 208.2L431.95 175.192L430.046 222.164Z" fill="#49338C" stroke="#49338C" stroke-linejoin="bevel"/>
<path d="M431.951 175.193L472.512 125.682L423.699 148.533L431.951 175.193Z" fill="#6246B3" stroke="#6246B3" stroke-linejoin="bevel"/>
<path d="M253.33 303.413L322.391 332.611L294.462 269.771L253.33 303.413Z" fill="#815FE6" stroke="#815FE6" stroke-linejoin="bevel"/>
<path d="M380.662 300.239L430.681 349.75L407.195 286.909L380.662 300.239Z" fill="#553C9F" stroke="#553C9F" stroke-linejoin="bevel"/>
<path d="M264.121 345.942L322.391 332.612L253.33 303.413L264.121 345.942Z" fill="#553C9F" stroke="#553C9F" stroke-linejoin="bevel"/>
<path d="M102.576 201.852L145.041 250.728L172.97 185.349L102.576 201.852Z" fill="#684BBD" stroke="#684BBD" stroke-linejoin="bevel"/>
<path d="M310.331 47.6066L297.001 0L252.061 47.6066H310.331Z" fill="#684BBD" stroke="#684BBD" stroke-linejoin="bevel"/>
<path d="M252.061 47.6066L214.103 0L223.624 63.4755L252.061 47.6066Z" fill="#4F3896" stroke="#4F3896" stroke-linejoin="bevel"/>
<path d="M354.003 0H297.002L310.332 47.6066L354.003 0Z" fill="#49338C" stroke="#49338C" stroke-linejoin="bevel"/>
<path d="M160.91 318.012L217.911 323.09L210.929 289.448L160.91 318.012Z" fill="#5B41A9" stroke="#5B41A9" stroke-linejoin="bevel"/>
<path d="M210.929 289.448L217.911 323.09L253.33 303.413L210.929 289.448Z" fill="#7B5ADB" stroke="#7B5ADB" stroke-linejoin="bevel"/>
<path d="M297.001 0H246.982L252.06 47.6066L297.001 0Z" fill="#7B5ADB" stroke="#7B5ADB" stroke-linejoin="bevel"/>
<path d="M172.336 34.2764L138.06 79.9787L200.773 112.351L172.336 34.2764Z" fill="#6246B3" stroke="#6246B3" stroke-linejoin="bevel"/>
<path d="M322.393 332.612L360.986 331.977L380.663 300.239L322.393 332.612Z" fill="#7555D1" stroke="#7555D1" stroke-linejoin="bevel"/>
<path d="M172.336 34.2764L200.773 112.351L223.624 63.4751L172.336 34.2764Z" fill="#6246B3" stroke="#6246B3" stroke-linejoin="bevel"/>
<path d="M159.641 150.437L102.576 201.852L172.97 185.348L159.641 150.437Z" fill="#815FE6" stroke="#815FE6" stroke-linejoin="bevel"/>
<path d="M423.698 95.8479L426.237 52.6846L380.662 62.8406L423.698 95.8479Z" fill="#8864F0" stroke="#8864F0" stroke-linejoin="bevel"/>
<path d="M380.663 62.8407L354.003 0L310.332 47.6066L380.663 62.8407Z" fill="#553C9F" stroke="#553C9F" stroke-linejoin="bevel"/>
<path d="M468.703 81.8833L426.238 52.6846L423.699 95.8479L468.703 81.8833Z" fill="#6246B3" stroke="#6246B3" stroke-linejoin="bevel"/>
<path d="M217.911 323.09L264.121 345.942L253.33 303.413L217.911 323.09Z" fill="#684BBD" stroke="#684BBD" stroke-linejoin="bevel"/>
<path d="M322.393 332.611L376.855 380.853L360.986 331.977L322.393 332.611Z" fill="#553C9F" stroke="#553C9F" stroke-linejoin="bevel"/>
<path d="M407.195 286.909L460.451 229.781L430.046 222.164L407.195 286.909Z" fill="#5B41A9" stroke="#5B41A9" stroke-linejoin="bevel"/>
<path d="M516.817 152.341L472.511 125.682L431.95 175.193L516.817 152.341Z" fill="#8864F0" stroke="#8864F0" stroke-linejoin="bevel"/>
<path d="M214.103 0L172.336 34.2768L223.624 63.4755L214.103 0Z" fill="#5B41A9" stroke="#5B41A9" stroke-linejoin="bevel"/>
<path d="M411.639 0H354.003L380.663 62.8407L411.639 0Z" fill="#4F3896" stroke="#4F3896" stroke-linejoin="bevel"/>
<path d="M138.059 79.9795L107.02 149.168L159.641 150.437L138.059 79.9795Z" fill="#49338C" stroke="#49338C" stroke-linejoin="bevel"/>
<path d="M516.817 152.341L431.95 175.192L453.468 208.199L516.817 152.341Z" fill="#7B5ADB" stroke="#7B5ADB" stroke-linejoin="bevel"/>
<path d="M246.983 0H214.103L252.061 47.6066L246.983 0Z" fill="#49338C" stroke="#49338C" stroke-linejoin="bevel"/>
<path d="M145.041 250.728L157.736 298.335L195.06 239.938L145.041 250.728Z" fill="#7555D1" stroke="#7555D1" stroke-linejoin="bevel"/>
<path d="M223.624 380.853H245.079L264.121 345.941L223.624 380.853Z" fill="#4F3896" stroke="#4F3896" stroke-linejoin="bevel"/>
<path d="M117.811 255.172L157.737 298.335L145.042 250.729L117.811 255.172Z" fill="#4F3896" stroke="#4F3896" stroke-linejoin="bevel"/>
<path d="M107.019 149.167L102.576 201.852L159.641 150.437L107.019 149.167Z" fill="#7555D1" stroke="#7555D1" stroke-linejoin="bevel"/>
<path d="M102.576 201.852L117.81 255.171L145.041 250.728L102.576 201.852Z" fill="#6246B3" stroke="#6246B3" stroke-linejoin="bevel"/>
<path d="M472.512 125.682L468.703 81.8838L423.699 95.8484L472.512 125.682Z" fill="#8864F0" stroke="#8864F0" stroke-linejoin="bevel"/>
<path d="M426.237 52.6846L411.638 0L380.662 62.8407L426.237 52.6846Z" fill="#6E50C7" stroke="#6E50C7" stroke-linejoin="bevel"/>
<path d="M97.498 344.037L160.91 318.012L157.736 298.335L97.498 344.037Z" fill="#815FE6" stroke="#815FE6" stroke-linejoin="bevel"/>
<path d="M157.736 298.335L160.91 318.012L210.929 289.448L157.736 298.335Z" fill="#7B5ADB" stroke="#7B5ADB" stroke-linejoin="bevel"/>
<path d="M147.58 0L114.637 64.745L172.336 34.2768L147.58 0Z" fill="#7B5ADB" stroke="#7B5ADB" stroke-linejoin="bevel"/>
<path d="M172.336 34.2764L114.637 64.7446L138.059 79.9787L172.336 34.2764Z" fill="#8864F0" stroke="#8864F0" stroke-linejoin="bevel"/>
<path d="M138.059 79.9795L103.211 85.6923L107.019 149.168L138.059 79.9795Z" fill="#815FE6" stroke="#815FE6" stroke-linejoin="bevel"/>
<path d="M114.637 64.7451L103.211 85.692L138.059 79.9792L114.637 64.7451Z" fill="#553C9F" stroke="#553C9F" stroke-linejoin="bevel"/>
<path d="M107.02 149.167L57.001 203.121L102.576 201.852L107.02 149.167Z" fill="#4F3896" stroke="#4F3896" stroke-linejoin="bevel"/>
<path d="M462.356 0H411.639L426.238 52.6846L462.356 0Z" fill="#5B41A9" stroke="#5B41A9" stroke-linejoin="bevel"/>
<path d="M245.078 380.853H300.175L264.121 345.941L245.078 380.853Z" fill="#7555D1" stroke="#7555D1" stroke-linejoin="bevel"/>
<path d="M264.121 345.941L300.175 380.853L322.392 332.611L264.121 345.941Z" fill="#49338C" stroke="#49338C" stroke-linejoin="bevel"/>
<path d="M223.624 380.853L264.121 345.941L217.911 323.09L223.624 380.853Z" fill="#815FE6" stroke="#815FE6" stroke-linejoin="bevel"/>
<path d="M407.195 286.909L473.781 288.179L460.451 229.781L407.195 286.909Z" fill="#49338C" stroke="#49338C" stroke-linejoin="bevel"/>
<path d="M516.817 208.199V152.341L453.469 208.199H516.817Z" fill="#8864F0" stroke="#8864F0" stroke-linejoin="bevel"/>
<path d="M430.681 349.75L473.781 288.179L407.195 286.909L430.681 349.75Z" fill="#7B5ADB" stroke="#7B5ADB" stroke-linejoin="bevel"/>
<path d="M430.681 349.75L380.663 300.239L360.985 331.977L430.681 349.75Z" fill="#6246B3" stroke="#6246B3" stroke-linejoin="bevel"/>
<path d="M527.608 50.1455H478.224L468.703 81.8832L527.608 50.1455Z" fill="#5B41A9" stroke="#5B41A9" stroke-linejoin="bevel"/>
<path d="M468.703 81.8832L478.225 50.1455L426.238 52.6845L468.703 81.8832Z" fill="#4F3896" stroke="#4F3896" stroke-linejoin="bevel"/>
<path d="M519.991 112.352L468.703 81.8838L472.512 125.682L519.991 112.352Z" fill="#7555D1" stroke="#7555D1" stroke-linejoin="bevel"/>
<path d="M214.102 0H147.58L172.336 34.2768L214.102 0Z" fill="#7B5ADB" stroke="#7B5ADB" stroke-linejoin="bevel"/>
<path d="M39.2275 93.9432L44.3056 126.95L103.211 85.6914L39.2275 93.9432Z" fill="#6246B3" stroke="#6246B3" stroke-linejoin="bevel"/>
<path d="M173.605 380.853H223.624L217.911 323.09L173.605 380.853Z" fill="#684BBD" stroke="#684BBD" stroke-linejoin="bevel"/>
<path d="M516.817 208.199H453.469L460.451 229.781L516.817 208.199Z" fill="#5B41A9" stroke="#5B41A9" stroke-linejoin="bevel"/>
<path d="M117.81 255.172L96.2285 281.832L157.736 298.335L117.81 255.172Z" fill="#684BBD" stroke="#684BBD" stroke-linejoin="bevel"/>
<path d="M160.91 318.012L173.605 380.852L217.911 323.09L160.91 318.012Z" fill="#7555D1" stroke="#7555D1" stroke-linejoin="bevel"/>
<path d="M54.4619 219.625L96.2288 281.831L117.81 255.171L54.4619 219.625Z" fill="#684BBD" stroke="#684BBD" stroke-linejoin="bevel"/>
<path d="M54.4619 219.625L117.81 255.171L102.576 201.852L54.4619 219.625Z" fill="#5B41A9" stroke="#5B41A9" stroke-linejoin="bevel"/>
<path d="M376.854 380.853L430.681 349.75L360.985 331.977L376.854 380.853Z" fill="#815FE6" stroke="#815FE6" stroke-linejoin="bevel"/>
<path d="M300.176 380.853H376.854L322.392 332.611L300.176 380.853Z" fill="#815FE6" stroke="#815FE6" stroke-linejoin="bevel"/>
<path d="M519.991 231.685L516.817 208.199L460.451 229.781L519.991 231.685Z" fill="#684BBD" stroke="#684BBD" stroke-linejoin="bevel"/>
<path d="M516.818 152.341L519.991 112.352L472.512 125.681L516.818 152.341Z" fill="#553C9F" stroke="#553C9F" stroke-linejoin="bevel"/>
<path d="M571.279 155.515L519.991 112.352L516.817 152.341L571.279 155.515Z" fill="#4F3896" stroke="#4F3896" stroke-linejoin="bevel"/>
<path d="M528.878 278.657L519.991 231.686L473.781 288.179L528.878 278.657Z" fill="#684BBD" stroke="#684BBD" stroke-linejoin="bevel"/>
<path d="M473.781 288.179L519.991 231.686L460.451 229.781L473.781 288.179Z" fill="#6246B3" stroke="#6246B3" stroke-linejoin="bevel"/>
<path d="M571.279 201.217V155.515L516.817 152.341L571.279 201.217Z" fill="#6246B3" stroke="#6246B3" stroke-linejoin="bevel"/>
<path d="M44.3057 126.951L57.0008 203.122L107.019 149.168L44.3057 126.951Z" fill="#7555D1" stroke="#7555D1" stroke-linejoin="bevel"/>
<path d="M524.434 0H462.355L478.224 50.1456L524.434 0Z" fill="#4F3896" stroke="#4F3896" stroke-linejoin="bevel"/>
<path d="M478.225 50.1456L462.356 0L426.238 52.6846L478.225 50.1456Z" fill="#5B41A9" stroke="#5B41A9" stroke-linejoin="bevel"/>
<path d="M57.0009 203.121L54.4619 219.625L102.576 201.852L57.0009 203.121Z" fill="#5B41A9" stroke="#5B41A9" stroke-linejoin="bevel"/>
<path d="M97.498 344.037L173.605 380.852L160.91 318.012L97.498 344.037Z" fill="#49338C" stroke="#49338C" stroke-linejoin="bevel"/>
<path d="M430.681 349.75L463.624 346.576L473.781 288.179L430.681 349.75Z" fill="#49338C" stroke="#49338C" stroke-linejoin="bevel"/>
<path d="M459.181 380.853L463.624 346.576L430.681 349.75L459.181 380.853Z" fill="#49338C" stroke="#49338C" stroke-linejoin="bevel"/>
<path d="M39.2275 93.9434L103.211 85.6916L61.444 37.4502L39.2275 93.9434Z" fill="#553C9F" stroke="#553C9F" stroke-linejoin="bevel"/>
<path d="M103.211 85.6914L44.3057 126.95L107.019 149.167L103.211 85.6914Z" fill="#4F3896" stroke="#4F3896" stroke-linejoin="bevel"/>
<path d="M57.001 203.122L0 183.444L54.462 219.625L57.001 203.122Z" fill="#6E50C7" stroke="#6E50C7" stroke-linejoin="bevel"/>
<path d="M376.854 380.853H431.316L430.682 349.75L376.854 380.853Z" fill="#5B41A9" stroke="#5B41A9" stroke-linejoin="bevel"/>
<path d="M520.626 347.846L473.781 288.179L463.625 346.576L520.626 347.846Z" fill="#8864F0" stroke="#8864F0" stroke-linejoin="bevel"/>
<path d="M520.626 347.845L528.878 278.657L473.781 288.179L520.626 347.845Z" fill="#4F3896" stroke="#4F3896" stroke-linejoin="bevel"/>
<path d="M571.279 201.217L516.817 152.341V208.199L571.279 201.217Z" fill="#7B5ADB" stroke="#7B5ADB" stroke-linejoin="bevel"/>
<path d="M68.4268 340.863L97.4985 344.037L96.229 281.831L68.4268 340.863Z" fill="#553C9F" stroke="#553C9F" stroke-linejoin="bevel"/>
<path d="M96.2285 281.831L97.498 344.037L157.736 298.335L96.2285 281.831Z" fill="#7555D1" stroke="#7555D1" stroke-linejoin="bevel"/>
<path d="M61.4443 37.4502L103.211 85.6916L114.637 64.7447L61.4443 37.4502Z" fill="#4F3896" stroke="#4F3896" stroke-linejoin="bevel"/>
<path d="M0 232.32L40.4974 286.909L54.462 219.625L0 232.32Z" fill="#8864F0" stroke="#8864F0" stroke-linejoin="bevel"/>
<path d="M571.279 59.6668L527.608 50.1455L519.991 112.351L571.279 59.6668Z" fill="#49338C" stroke="#49338C" stroke-linejoin="bevel"/>
<path d="M519.991 112.351L527.608 50.1455L468.703 81.8832L519.991 112.351Z" fill="#49338C" stroke="#49338C" stroke-linejoin="bevel"/>
<path d="M147.58 0H88.6113L114.636 64.745L147.58 0Z" fill="#684BBD" stroke="#684BBD" stroke-linejoin="bevel"/>
<path d="M88.6118 0L61.4443 37.4505L114.637 64.745L88.6118 0Z" fill="#7B5ADB" stroke="#7B5ADB" stroke-linejoin="bevel"/>
<path d="M431.315 380.853H459.181L430.681 349.75L431.315 380.853Z" fill="#4F3896" stroke="#4F3896" stroke-linejoin="bevel"/>
<path d="M0 183.444L57.001 203.122L44.3059 126.951L0 183.444Z" fill="#6246B3" stroke="#6246B3" stroke-linejoin="bevel"/>
<path d="M54.4617 219.625L40.4971 286.909L96.2285 281.831L54.4617 219.625Z" fill="#7B5ADB" stroke="#7B5ADB" stroke-linejoin="bevel"/>
<path d="M571.279 201.217L516.817 208.199L519.991 231.685L571.279 201.217Z" fill="#7B5ADB" stroke="#7B5ADB" stroke-linejoin="bevel"/>
<path d="M571.279 231.685V201.217L519.991 231.685H571.279Z" fill="#684BBD" stroke="#684BBD" stroke-linejoin="bevel"/>
<path d="M40.4971 286.909L68.4263 340.863L96.2285 281.831L40.4971 286.909Z" fill="#49338C" stroke="#49338C" stroke-linejoin="bevel"/>
<path d="M97.498 344.037L101.307 380.853H173.605L97.498 344.037Z" fill="#553C9F" stroke="#553C9F" stroke-linejoin="bevel"/>
<path d="M65.2529 380.853H101.307L97.4985 344.037L65.2529 380.853Z" fill="#49338C" stroke="#49338C" stroke-linejoin="bevel"/>
<path d="M571.279 155.515V110.447L519.991 112.352L571.279 155.515Z" fill="#49338C" stroke="#49338C" stroke-linejoin="bevel"/>
<path d="M571.28 272.31V231.686L528.878 278.657L571.28 272.31Z" fill="#4F3896" stroke="#4F3896" stroke-linejoin="bevel"/>
<path d="M528.878 278.657L571.279 231.686H519.991L528.878 278.657Z" fill="#8864F0" stroke="#8864F0" stroke-linejoin="bevel"/>
<path d="M571.279 0H524.435L527.608 50.1456L571.279 0Z" fill="#5B41A9" stroke="#5B41A9" stroke-linejoin="bevel"/>
<path d="M527.609 50.1456L524.435 0L478.225 50.1456H527.609Z" fill="#8864F0" stroke="#8864F0" stroke-linejoin="bevel"/>
<path d="M511.739 380.853L520.626 347.846L463.625 346.576L511.739 380.853Z" fill="#5B41A9" stroke="#5B41A9" stroke-linejoin="bevel"/>
<path d="M0 130.76V183.444L44.3059 126.951L0 130.76Z" fill="#6246B3" stroke="#6246B3" stroke-linejoin="bevel"/>
<path d="M0 130.759L44.3059 126.951L39.2278 93.9434L0 130.759Z" fill="#6E50C7" stroke="#6E50C7" stroke-linejoin="bevel"/>
<path d="M0 81.8838V130.76L39.2278 93.9441L0 81.8838Z" fill="#6E50C7" stroke="#6E50C7" stroke-linejoin="bevel"/>
<path d="M88.6116 0H48.1143L61.4441 37.4505L88.6116 0Z" fill="#4F3896" stroke="#4F3896" stroke-linejoin="bevel"/>
<path d="M0 50.7803V81.8833L39.2278 93.9436L0 50.7803Z" fill="#6246B3" stroke="#6246B3" stroke-linejoin="bevel"/>
<path d="M571.28 349.115V272.31L528.878 278.657L571.28 349.115Z" fill="#6246B3" stroke="#6246B3" stroke-linejoin="bevel"/>
<path d="M0 183.444V232.32L54.462 219.625L0 183.444Z" fill="#8864F0" stroke="#8864F0" stroke-linejoin="bevel"/>
<path d="M40.4974 286.909L0 320.551L68.4266 340.863L40.4974 286.909Z" fill="#553C9F" stroke="#553C9F" stroke-linejoin="bevel"/>
<path d="M571.279 110.447V59.667L519.991 112.352L571.279 110.447Z" fill="#49338C" stroke="#49338C" stroke-linejoin="bevel"/>
<path d="M0 50.78L39.2278 93.9434L61.4443 37.4502L0 50.78Z" fill="#684BBD" stroke="#684BBD" stroke-linejoin="bevel"/>
<path d="M459.182 380.853H511.739L463.625 346.576L459.182 380.853Z" fill="#8864F0" stroke="#8864F0" stroke-linejoin="bevel"/>
<path d="M520.626 347.845L571.279 349.115L528.878 278.657L520.626 347.845Z" fill="#553C9F" stroke="#553C9F" stroke-linejoin="bevel"/>
<path d="M0 232.32V271.04L40.4974 286.909L0 232.32Z" fill="#5B41A9" stroke="#5B41A9" stroke-linejoin="bevel"/>
<path d="M68.4267 340.863L65.2529 380.853L97.4985 344.037L68.4267 340.863Z" fill="#553C9F" stroke="#553C9F" stroke-linejoin="bevel"/>
<path d="M0 380.853H65.2528L68.4266 340.863L0 380.853Z" fill="#49338C" stroke="#49338C" stroke-linejoin="bevel"/>
<path d="M48.1144 0L0 50.7804L61.4443 37.4505L48.1144 0Z" fill="#8864F0" stroke="#8864F0" stroke-linejoin="bevel"/>
<path d="M571.28 59.6669V0L527.608 50.1456L571.28 59.6669Z" fill="#7B5ADB" stroke="#7B5ADB" stroke-linejoin="bevel"/>
<path d="M0 271.04V320.551L40.4974 286.909L0 271.04Z" fill="#6E50C7" stroke="#6E50C7" stroke-linejoin="bevel"/>
<path d="M571.279 380.853V349.115L520.626 347.846L571.279 380.853Z" fill="#4F3896" stroke="#4F3896" stroke-linejoin="bevel"/>
<path d="M48.1144 0H0V50.7804L48.1144 0Z" fill="#7555D1" stroke="#7555D1" stroke-linejoin="bevel"/>
<path d="M511.739 380.853H571.279L520.626 347.846L511.739 380.853Z" fill="#4F3896" stroke="#4F3896" stroke-linejoin="bevel"/>
<path d="M0 320.551V380.852L68.4266 340.863L0 320.551Z" fill="#5B41A9" stroke="#5B41A9" stroke-linejoin="bevel"/>
</svg>
