<svg width="39" height="38" viewBox="0 0 39 38" fill="none" xmlns="http://www.w3.org/2000/svg">
<path d="M15.0312 34.8334L14.3812 29.7667C14.0292 29.6347 13.6974 29.4764 13.3859 29.2917C13.0745 29.107 12.7698 28.909 12.4719 28.6979L7.6375 30.6771L3.16875 23.1563L7.35312 20.0688C7.32604 19.884 7.3125 19.7059 7.3125 19.5344V18.4656C7.3125 18.2941 7.32604 18.116 7.35312 17.9313L3.16875 14.8438L7.6375 7.32294L12.4719 9.3021C12.7698 9.09099 13.0812 8.89308 13.4062 8.70835C13.7312 8.52363 14.0562 8.3653 14.3812 8.23335L15.0312 3.16669H23.9687L24.6187 8.23335C24.9708 8.3653 25.3026 8.52363 25.6141 8.70835C25.9255 8.89308 26.2302 9.09099 26.5281 9.3021L31.3625 7.32294L35.8312 14.8438L31.6469 17.9313C31.674 18.116 31.6875 18.2941 31.6875 18.4656V19.5344C31.6875 19.7059 31.6604 19.884 31.6062 20.0688L35.7906 23.1563L31.3219 30.6771L26.5281 28.6979C26.2302 28.909 25.9187 29.107 25.5937 29.2917C25.2687 29.4764 24.9437 29.6347 24.6187 29.7667L23.9687 34.8334H15.0312ZM19.5812 24.5417C21.1521 24.5417 22.4927 24.0007 23.6031 22.9188C24.7135 21.8368 25.2687 20.5306 25.2687 19C25.2687 17.4695 24.7135 16.1632 23.6031 15.0813C22.4927 13.9993 21.1521 13.4584 19.5812 13.4584C17.9833 13.4584 16.6359 13.9993 15.5391 15.0813C14.4422 16.1632 13.8937 17.4695 13.8937 19C13.8937 20.5306 14.4422 21.8368 15.5391 22.9188C16.6359 24.0007 17.9833 24.5417 19.5812 24.5417Z" fill="#E8EAED"/>
<path d="M15.0312 34.8334L14.3812 29.7667C14.0292 29.6347 13.6974 29.4764 13.3859 29.2917C13.0745 29.107 12.7698 28.909 12.4719 28.6979L7.6375 30.6771L3.16875 23.1563L7.35312 20.0688C7.32604 19.884 7.3125 19.7059 7.3125 19.5344V18.4656C7.3125 18.2941 7.32604 18.116 7.35312 17.9313L3.16875 14.8438L7.6375 7.32294L12.4719 9.3021C12.7698 9.09099 13.0812 8.89308 13.4062 8.70835C13.7312 8.52363 14.0562 8.3653 14.3812 8.23335L15.0312 3.16669H23.9687L24.6187 8.23335C24.9708 8.3653 25.3026 8.52363 25.6141 8.70835C25.9255 8.89308 26.2302 9.09099 26.5281 9.3021L31.3625 7.32294L35.8312 14.8438L31.6469 17.9313C31.674 18.116 31.6875 18.2941 31.6875 18.4656V19.5344C31.6875 19.7059 31.6604 19.884 31.6062 20.0688L35.7906 23.1563L31.3219 30.6771L26.5281 28.6979C26.2302 28.909 25.9187 29.107 25.5937 29.2917C25.2687 29.4764 24.9437 29.6347 24.6187 29.7667L23.9687 34.8334H15.0312ZM19.5812 24.5417C21.1521 24.5417 22.4927 24.0007 23.6031 22.9188C24.7135 21.8368 25.2687 20.5306 25.2687 19C25.2687 17.4695 24.7135 16.1632 23.6031 15.0813C22.4927 13.9993 21.1521 13.4584 19.5812 13.4584C17.9833 13.4584 16.6359 13.9993 15.5391 15.0813C14.4422 16.1632 13.8937 17.4695 13.8937 19C13.8937 20.5306 14.4422 21.8368 15.5391 22.9188C16.6359 24.0007 17.9833 24.5417 19.5812 24.5417Z" fill="url(#paint0_linear_112_9)"/>
<defs>
<linearGradient id="paint0_linear_112_9" x1="3.16875" y1="34.8334" x2="34.8202" y2="2.1865" gradientUnits="userSpaceOnUse">
<stop stop-color="#06BD8E"/>
<stop offset="0.500781" stop-color="#00A9CD"/>
<stop offset="1" stop-color="#6380FF"/>
</linearGradient>
</defs>
</svg>
