<svg width="39" height="40" viewBox="0 0 39 40" fill="none" xmlns="http://www.w3.org/2000/svg">
<path d="M19.5 35L17.1437 32.8334C14.4083 30.3056 12.1469 28.125 10.3594 26.2917C8.57187 24.4584 7.15 22.8125 6.09375 21.3542C5.0375 19.8959 4.29948 18.5556 3.87969 17.3334C3.4599 16.1111 3.25 14.8611 3.25 13.5834C3.25 10.9722 4.10312 8.79169 5.80937 7.04169C7.51562 5.29169 9.64167 4.41669 12.1875 4.41669C13.5958 4.41669 14.9365 4.72224 16.2094 5.33335C17.4823 5.94446 18.5792 6.80558 19.5 7.91669C20.4208 6.80558 21.5177 5.94446 22.7906 5.33335C24.0635 4.72224 25.4042 4.41669 26.8125 4.41669C29.3583 4.41669 31.4844 5.29169 33.1906 7.04169C34.8969 8.79169 35.75 10.9722 35.75 13.5834C35.75 14.8611 35.5401 16.1111 35.1203 17.3334C34.7005 18.5556 33.9625 19.8959 32.9062 21.3542C31.85 22.8125 30.4281 24.4584 28.6406 26.2917C26.8531 28.125 24.5917 30.3056 21.8562 32.8334L19.5 35Z" fill="#E8EAED"/>
<path d="M19.5 35L17.1437 32.8334C14.4083 30.3056 12.1469 28.125 10.3594 26.2917C8.57187 24.4584 7.15 22.8125 6.09375 21.3542C5.0375 19.8959 4.29948 18.5556 3.87969 17.3334C3.4599 16.1111 3.25 14.8611 3.25 13.5834C3.25 10.9722 4.10312 8.79169 5.80937 7.04169C7.51562 5.29169 9.64167 4.41669 12.1875 4.41669C13.5958 4.41669 14.9365 4.72224 16.2094 5.33335C17.4823 5.94446 18.5792 6.80558 19.5 7.91669C20.4208 6.80558 21.5177 5.94446 22.7906 5.33335C24.0635 4.72224 25.4042 4.41669 26.8125 4.41669C29.3583 4.41669 31.4844 5.29169 33.1906 7.04169C34.8969 8.79169 35.75 10.9722 35.75 13.5834C35.75 14.8611 35.5401 16.1111 35.1203 17.3334C34.7005 18.5556 33.9625 19.8959 32.9062 21.3542C31.85 22.8125 30.4281 24.4584 28.6406 26.2917C26.8531 28.125 24.5917 30.3056 21.8562 32.8334L19.5 35Z" fill="url(#paint0_linear_112_11)"/>
<defs>
<linearGradient id="paint0_linear_112_11" x1="3.25" y1="35" x2="33.7769" y2="2.55997" gradientUnits="userSpaceOnUse">
<stop stop-color="#01EBAF"/>
<stop offset="0.500781" stop-color="#00A9CD"/>
<stop offset="1" stop-color="#6380FF"/>
</linearGradient>
</defs>
</svg>
