<svg width="3232" height="897" viewBox="0 0 3232 897" fill="none" xmlns="http://www.w3.org/2000/svg">
<path d="M591.738 231.49L376.184 107.04C343.156 87.9725 302.123 87.9717 269.097 107.04L53.5427 231.49C20.5165 250.558 0 286.093 0 324.229V573.13C0 611.265 20.5165 646.8 53.5427 665.868L269.097 790.319C285.609 799.853 304.125 804.62 322.64 804.62C341.155 804.62 359.67 799.853 376.184 790.319L591.738 665.868C624.764 646.8 645.281 611.265 645.281 573.13V324.229C645.281 286.093 624.764 250.558 591.738 231.49ZM591.389 573.13C591.389 592.074 581.197 609.726 564.792 619.198L349.238 743.648C332.832 753.12 312.449 753.12 296.043 743.648L80.4889 619.198C64.0841 609.726 53.8925 592.074 53.8925 573.13V324.23C53.8925 305.285 64.0841 287.633 80.4889 278.161L296.043 153.711C304.247 148.975 313.442 146.607 322.64 146.607C331.839 146.607 341.035 148.976 349.237 153.711L564.792 278.162C581.196 287.634 591.388 305.285 591.388 324.23V573.13H591.389Z" fill="#FBFBFB"/>
<path d="M546.683 339.158L355.269 449.671C345.751 455.166 339.887 465.322 339.887 476.314V694.569C339.887 706.567 352.873 714.068 363.266 708.072L548.66 601.105C560.421 594.315 567.728 581.66 567.728 568.079C567.728 568.079 567.707 412.399 567.679 351.271C567.674 340.498 556.012 333.772 546.682 339.159L546.683 339.158Z" fill="#FBFBFB"/>
<path d="M3170.71 230.991C3154.57 230.991 3140.5 225.225 3128.51 213.693C3116.51 201.699 3110.52 187.399 3110.52 170.792C3110.52 154.186 3116.51 140.116 3128.51 128.584C3140.5 116.591 3154.57 110.594 3170.71 110.594C3187.78 110.594 3202.08 116.591 3213.61 128.584C3225.61 140.116 3231.6 154.186 3231.6 170.792C3231.6 187.399 3225.61 201.699 3213.61 213.693C3202.08 225.225 3187.78 230.991 3170.71 230.991ZM3123.66 633.699V287.73H3218.46V633.699H3123.66Z" fill="#FBFBFB"/>
<path d="M2837.07 641.311C2791.4 641.311 2752.88 623.551 2721.52 588.031C2690.15 552.512 2674.46 510.073 2674.46 460.715C2674.46 411.356 2690.15 368.918 2721.52 333.398C2752.88 297.879 2791.4 280.119 2837.07 280.119C2859.21 280.119 2879.05 284.732 2896.58 293.958C2914.11 303.183 2927.48 314.024 2936.71 326.479V287.73H3031.5V633.699H2936.71V594.951C2927.48 607.406 2914.11 618.246 2896.58 627.472C2879.05 636.698 2859.21 641.311 2837.07 641.311ZM2793.48 528.525C2809.62 546.054 2830.84 554.818 2857.14 554.818C2883.43 554.818 2904.42 546.054 2920.1 528.525C2936.25 510.996 2944.32 488.392 2944.32 460.715C2944.32 433.037 2936.25 410.434 2920.1 392.905C2904.42 375.376 2883.43 366.611 2857.14 366.611C2830.84 366.611 2809.62 375.376 2793.48 392.905C2777.79 410.434 2769.95 433.037 2769.95 460.715C2769.95 488.392 2777.79 510.996 2793.48 528.525Z" fill="#FBFBFB"/>
<path d="M2555.21 639.235C2535.84 639.235 2519.46 632.546 2506.09 619.169C2492.71 605.791 2486.02 589.415 2486.02 570.041C2486.02 550.667 2492.71 534.291 2506.09 520.913C2519.46 507.536 2535.84 500.847 2555.21 500.847C2574.13 500.847 2590.27 507.766 2603.65 521.605C2617.49 534.983 2624.41 551.128 2624.41 570.041C2624.41 588.954 2617.49 605.33 2603.65 619.169C2590.27 632.546 2574.13 639.235 2555.21 639.235Z" fill="#FBFBFB"/>
<path d="M2265.9 641.311C2213.31 641.311 2169.49 624.704 2134.43 591.491C2099.83 558.278 2082.53 514.686 2082.53 460.715C2082.53 409.05 2099.83 366.15 2134.43 332.014C2169.03 297.417 2212.39 280.119 2264.51 280.119C2312.49 280.119 2352.85 295.111 2385.6 325.095C2418.35 354.617 2434.73 396.364 2434.73 450.336C2434.73 465.558 2434.27 476.399 2433.35 482.857H2174.56C2177.33 505.46 2187.25 523.22 2204.31 536.136C2221.84 548.591 2242.6 554.818 2266.59 554.818C2307.18 554.818 2336.94 540.288 2355.85 511.226L2426.43 563.813C2390.91 615.478 2337.4 641.311 2265.9 641.311ZM2178.02 418.506H2339.93C2335.78 398.671 2326.33 383.679 2311.56 373.53C2297.26 363.382 2280.66 358.308 2261.75 358.308C2242.37 358.308 2224.61 363.382 2208.47 373.53C2192.32 383.679 2182.17 398.671 2178.02 418.506Z" fill="#FBFBFB"/>
<path d="M1872.75 641.31C1850.61 641.31 1830.54 636.698 1812.55 627.472C1794.56 618.246 1781.18 607.405 1772.42 594.951V633.699H1677.62V114.745H1772.42V326.479C1781.18 314.024 1794.56 303.183 1812.55 293.957C1830.54 284.732 1850.61 280.119 1872.75 280.119C1918.42 280.119 1956.93 297.878 1988.3 333.398C2019.67 368.917 2035.35 411.356 2035.35 460.715C2035.35 510.073 2019.67 552.512 1988.3 588.031C1956.93 623.551 1918.42 641.31 1872.75 641.31ZM1788.33 528.525C1804.48 546.054 1825.7 554.818 1851.99 554.818C1878.28 554.818 1899.27 546.054 1914.96 528.525C1931.1 510.995 1939.17 488.392 1939.17 460.715C1939.17 433.037 1931.1 410.434 1914.96 392.905C1899.27 375.376 1878.28 366.611 1851.99 366.611C1825.7 366.611 1804.48 375.376 1788.33 392.905C1772.65 410.434 1764.81 433.037 1764.81 460.715C1764.81 488.392 1772.65 510.995 1788.33 528.525Z" fill="#FBFBFB"/>
<path d="M1396.77 641.311C1355.71 641.311 1323.65 627.472 1300.59 599.794C1277.99 572.117 1266.68 534.983 1266.68 488.392V287.73H1361.48V472.478C1361.48 527.371 1381.08 554.818 1420.29 554.818C1442.44 554.818 1459.74 546.515 1472.19 529.909C1485.11 513.302 1491.56 488.854 1491.56 456.563V287.73H1586.36V633.699H1491.56V594.259C1470.34 625.627 1438.75 641.311 1396.77 641.311Z" fill="#FBFBFB"/>
<path d="M1178.68 778.314H1083.88V594.951C1074.66 607.406 1061.28 618.246 1043.75 627.472C1026.22 636.698 1006.39 641.311 984.244 641.311C938.576 641.311 900.059 623.551 868.691 588.031C837.323 552.512 821.639 510.073 821.639 460.715C821.639 411.356 837.323 368.918 868.691 333.398C900.059 297.879 938.576 280.119 984.244 280.119C1006.39 280.119 1026.22 284.732 1043.75 293.958C1061.28 303.183 1074.66 314.024 1083.88 326.479V287.73H1178.68V778.314ZM940.652 528.525C956.798 546.054 978.017 554.818 1004.31 554.818C1030.6 554.818 1051.59 546.054 1067.28 528.525C1083.42 510.996 1091.49 488.392 1091.49 460.715C1091.49 433.037 1083.42 410.434 1067.28 392.905C1051.59 375.376 1030.6 366.611 1004.31 366.611C978.017 366.611 956.798 375.376 940.652 392.905C924.968 410.434 917.126 433.037 917.126 460.715C917.126 488.392 924.968 510.996 940.652 528.525Z" fill="#FBFBFB"/>
</svg>
