<svg id="visual" viewBox="0 0 4000 2000" width="4000" height="2000" xmlns="http://www.w3.org/2000/svg" xmlns:xlink="http://www.w3.org/1999/xlink" version="1.1"><g stroke-width="1" stroke-linejoin="bevel"><path d="M2034 1010L2160 1160L2206 1059Z" fill="#573ac3" stroke="#573ac3"></path><path d="M2034 1010L2025 1237L2160 1160Z" fill="#5136b9" stroke="#5136b9"></path><path d="M2160 1160L2343 1053L2206 1059Z" fill="#422a9b" stroke="#422a9b"></path><path d="M2206 1059L2204 732L2034 1010Z" fill="#5c3ece" stroke="#5c3ece"></path><path d="M2025 1237L2179 1366L2160 1160Z" fill="#422a9b" stroke="#422a9b"></path><path d="M2160 1160L2427 1204L2343 1053Z" fill="#4c32af" stroke="#4c32af"></path><path d="M2179 1366L2427 1204L2160 1160Z" fill="#5c3ece" stroke="#5c3ece"></path><path d="M2372 828L2206 1059L2343 1053Z" fill="#6746e3" stroke="#6746e3"></path><path d="M2372 828L2204 732L2206 1059Z" fill="#6242d8" stroke="#6242d8"></path><path d="M2626 1021L2372 828L2343 1053Z" fill="#472ea5" stroke="#472ea5"></path><path d="M2204 732L1955 744L2034 1010Z" fill="#331f7e" stroke="#331f7e"></path><path d="M2034 1010L1735 1173L2025 1237Z" fill="#3d2691" stroke="#3d2691"></path><path d="M1792 864L1749 984L2034 1010Z" fill="#6242d8" stroke="#6242d8"></path><path d="M1955 744L1792 864L2034 1010Z" fill="#573ac3" stroke="#573ac3"></path><path d="M1749 984L1735 1173L2034 1010Z" fill="#6746e3" stroke="#6746e3"></path><path d="M2025 1237L1955 1459L2179 1366Z" fill="#6242d8" stroke="#6242d8"></path><path d="M2179 1366L2398 1357L2427 1204Z" fill="#3d2691" stroke="#3d2691"></path><path d="M1738 1369L1955 1459L2025 1237Z" fill="#573ac3" stroke="#573ac3"></path><path d="M2179 1366L2179 1619L2398 1357Z" fill="#422a9b" stroke="#422a9b"></path><path d="M2338 558L2143 648L2204 732Z" fill="#5c3ece" stroke="#5c3ece"></path><path d="M2204 732L2143 648L1955 744Z" fill="#4c32af" stroke="#4c32af"></path><path d="M1955 1459L2068 1528L2179 1366Z" fill="#4c32af" stroke="#4c32af"></path><path d="M1792 864L1663 971L1749 984Z" fill="#422a9b" stroke="#422a9b"></path><path d="M1749 984L1663 971L1735 1173Z" fill="#573ac3" stroke="#573ac3"></path><path d="M2143 648L1995 630L1955 744Z" fill="#3d2691" stroke="#3d2691"></path><path d="M1792 631L1633 808L1792 864Z" fill="#422a9b" stroke="#422a9b"></path><path d="M1792 864L1633 808L1663 971Z" fill="#6746e3" stroke="#6746e3"></path><path d="M1622 1230L1738 1369L1735 1173Z" fill="#573ac3" stroke="#573ac3"></path><path d="M1735 1173L1738 1369L2025 1237Z" fill="#5136b9" stroke="#5136b9"></path><path d="M2136 1857L2179 1619L1942 1852Z" fill="#331f7e" stroke="#331f7e"></path><path d="M1663 971L1622 1230L1735 1173Z" fill="#422a9b" stroke="#422a9b"></path><path d="M2617 1221L2626 1021L2427 1204Z" fill="#382388" stroke="#382388"></path><path d="M2427 1204L2626 1021L2343 1053Z" fill="#6746e3" stroke="#6746e3"></path><path d="M2372 828L2338 558L2204 732Z" fill="#472ea5" stroke="#472ea5"></path><path d="M2398 1357L2617 1221L2427 1204Z" fill="#331f7e" stroke="#331f7e"></path><path d="M1792 631L1792 864L1955 744Z" fill="#5136b9" stroke="#5136b9"></path><path d="M1663 971L1407 1055L1622 1230Z" fill="#6746e3" stroke="#6746e3"></path><path d="M1995 630L1792 631L1955 744Z" fill="#382388" stroke="#382388"></path><path d="M1839 1556L2068 1528L1955 1459Z" fill="#5c3ece" stroke="#5c3ece"></path><path d="M2068 1528L2179 1619L2179 1366Z" fill="#382388" stroke="#382388"></path><path d="M2398 1357L2577 1470L2617 1221Z" fill="#573ac3" stroke="#573ac3"></path><path d="M1658 1582L1839 1556L1738 1369Z" fill="#331f7e" stroke="#331f7e"></path><path d="M1738 1369L1839 1556L1955 1459Z" fill="#6242d8" stroke="#6242d8"></path><path d="M2653 670L2338 558L2372 828Z" fill="#422a9b" stroke="#422a9b"></path><path d="M2143 648L2133 431L1995 630Z" fill="#6746e3" stroke="#6746e3"></path><path d="M1995 630L1951 396L1792 631Z" fill="#573ac3" stroke="#573ac3"></path><path d="M2839 966L2640 822L2626 1021Z" fill="#6746e3" stroke="#6746e3"></path><path d="M2626 1021L2640 822L2372 828Z" fill="#6746e3" stroke="#6746e3"></path><path d="M1426 1423L1614 1435L1622 1230Z" fill="#6746e3" stroke="#6746e3"></path><path d="M1622 1230L1614 1435L1738 1369Z" fill="#422a9b" stroke="#422a9b"></path><path d="M2470 1612L2577 1470L2398 1357Z" fill="#331f7e" stroke="#331f7e"></path><path d="M2338 558L2133 431L2143 648Z" fill="#382388" stroke="#382388"></path><path d="M2582 350L2328 468L2338 558Z" fill="#6242d8" stroke="#6242d8"></path><path d="M2338 558L2328 468L2133 431Z" fill="#6746e3" stroke="#6746e3"></path><path d="M2179 1619L2470 1612L2398 1357Z" fill="#472ea5" stroke="#472ea5"></path><path d="M2470 1612L2555 1557L2577 1470Z" fill="#4c32af" stroke="#4c32af"></path><path d="M1614 1435L1658 1582L1738 1369Z" fill="#5c3ece" stroke="#5c3ece"></path><path d="M1942 1852L2179 1619L2068 1528Z" fill="#5c3ece" stroke="#5c3ece"></path><path d="M2758 637L2653 670L2640 822Z" fill="#5c3ece" stroke="#5c3ece"></path><path d="M2640 822L2653 670L2372 828Z" fill="#331f7e" stroke="#331f7e"></path><path d="M1962 254L1951 396L2133 431Z" fill="#472ea5" stroke="#472ea5"></path><path d="M2133 431L1951 396L1995 630Z" fill="#4c32af" stroke="#4c32af"></path><path d="M1792 631L1582 609L1633 808Z" fill="#331f7e" stroke="#331f7e"></path><path d="M1391 865L1663 971L1633 808Z" fill="#472ea5" stroke="#472ea5"></path><path d="M1391 865L1407 1055L1663 971Z" fill="#382388" stroke="#382388"></path><path d="M1614 1435L1372 1542L1658 1582Z" fill="#5136b9" stroke="#5136b9"></path><path d="M1569 424L1582 609L1792 631Z" fill="#573ac3" stroke="#573ac3"></path><path d="M2747 1464L2812 1253L2617 1221Z" fill="#4c32af" stroke="#4c32af"></path><path d="M2617 1221L2812 1253L2626 1021Z" fill="#382388" stroke="#382388"></path><path d="M2747 1464L2617 1221L2577 1470Z" fill="#422a9b" stroke="#422a9b"></path><path d="M2812 1253L2839 966L2626 1021Z" fill="#4c32af" stroke="#4c32af"></path><path d="M2803 1663L2747 1464L2555 1557Z" fill="#4c32af" stroke="#4c32af"></path><path d="M2555 1557L2747 1464L2577 1470Z" fill="#5c3ece" stroke="#5c3ece"></path><path d="M1582 609L1391 865L1633 808Z" fill="#382388" stroke="#382388"></path><path d="M1250 1131L1355 1172L1407 1055Z" fill="#382388" stroke="#382388"></path><path d="M1407 1055L1355 1172L1622 1230Z" fill="#6242d8" stroke="#6242d8"></path><path d="M1355 1172L1426 1423L1622 1230Z" fill="#5136b9" stroke="#5136b9"></path><path d="M1665 1755L1728 1757L1658 1582Z" fill="#422a9b" stroke="#422a9b"></path><path d="M1658 1582L1728 1757L1839 1556Z" fill="#6746e3" stroke="#6746e3"></path><path d="M2179 1619L2462 1773L2470 1612Z" fill="#573ac3" stroke="#573ac3"></path><path d="M1942 1852L2068 1528L1839 1556Z" fill="#4c32af" stroke="#4c32af"></path><path d="M2470 1612L2462 1773L2555 1557Z" fill="#6242d8" stroke="#6242d8"></path><path d="M2136 1857L2462 1773L2179 1619Z" fill="#4c32af" stroke="#4c32af"></path><path d="M2853 801L2758 637L2640 822Z" fill="#422a9b" stroke="#422a9b"></path><path d="M2653 670L2582 350L2338 558Z" fill="#3d2691" stroke="#3d2691"></path><path d="M2839 966L2853 801L2640 822Z" fill="#422a9b" stroke="#422a9b"></path><path d="M1728 1757L1942 1852L1839 1556Z" fill="#472ea5" stroke="#472ea5"></path><path d="M1951 396L1753 363L1792 631Z" fill="#5136b9" stroke="#5136b9"></path><path d="M1582 609L1333 572L1391 865Z" fill="#422a9b" stroke="#422a9b"></path><path d="M1372 1542L1665 1755L1658 1582Z" fill="#382388" stroke="#382388"></path><path d="M1741 2000L1969 2000L1942 1852Z" fill="#4c32af" stroke="#4c32af"></path><path d="M2206 204L1962 254L2133 431Z" fill="#5136b9" stroke="#5136b9"></path><path d="M1951 396L1962 254L1753 363Z" fill="#6746e3" stroke="#6746e3"></path><path d="M2206 204L2133 431L2335 228Z" fill="#5136b9" stroke="#5136b9"></path><path d="M1471 417L1569 424L1670 207Z" fill="#382388" stroke="#382388"></path><path d="M1753 363L1569 424L1792 631Z" fill="#4c32af" stroke="#4c32af"></path><path d="M1211 1062L1250 1131L1407 1055Z" fill="#331f7e" stroke="#331f7e"></path><path d="M1355 1172L1202 1436L1426 1423Z" fill="#422a9b" stroke="#422a9b"></path><path d="M1211 1062L1407 1055L1391 865Z" fill="#472ea5" stroke="#472ea5"></path><path d="M2745 471L2582 350L2653 670Z" fill="#422a9b" stroke="#422a9b"></path><path d="M3060 1358L2973 1154L2812 1253Z" fill="#472ea5" stroke="#472ea5"></path><path d="M2812 1253L2973 1154L2839 966Z" fill="#3d2691" stroke="#3d2691"></path><path d="M2839 966L3032 863L2853 801Z" fill="#573ac3" stroke="#573ac3"></path><path d="M1202 1436L1372 1542L1426 1423Z" fill="#6746e3" stroke="#6746e3"></path><path d="M1426 1423L1372 1542L1614 1435Z" fill="#422a9b" stroke="#422a9b"></path><path d="M2335 228L2133 431L2328 468Z" fill="#331f7e" stroke="#331f7e"></path><path d="M2582 350L2335 228L2328 468Z" fill="#5c3ece" stroke="#5c3ece"></path><path d="M2985 470L2745 471L2758 637Z" fill="#422a9b" stroke="#422a9b"></path><path d="M2758 637L2745 471L2653 670Z" fill="#6746e3" stroke="#6746e3"></path><path d="M3020 535L2758 637L2853 801Z" fill="#5136b9" stroke="#5136b9"></path><path d="M2973 1154L2996 1039L2839 966Z" fill="#331f7e" stroke="#331f7e"></path><path d="M1160 815L1211 1062L1391 865Z" fill="#3d2691" stroke="#3d2691"></path><path d="M1250 1131L1202 1436L1355 1172Z" fill="#331f7e" stroke="#331f7e"></path><path d="M2739 1768L2803 1663L2555 1557Z" fill="#331f7e" stroke="#331f7e"></path><path d="M2747 1464L3060 1358L2812 1253Z" fill="#422a9b" stroke="#422a9b"></path><path d="M1670 207L1569 424L1753 363Z" fill="#6242d8" stroke="#6242d8"></path><path d="M1569 424L1471 417L1582 609Z" fill="#4c32af" stroke="#4c32af"></path><path d="M1471 417L1333 572L1582 609Z" fill="#472ea5" stroke="#472ea5"></path><path d="M1969 2000L2156 2000L2136 1857Z" fill="#573ac3" stroke="#573ac3"></path><path d="M2136 1857L2446 2000L2462 1773Z" fill="#573ac3" stroke="#573ac3"></path><path d="M2462 1773L2633 1840L2555 1557Z" fill="#382388" stroke="#382388"></path><path d="M1969 2000L2136 1857L1942 1852Z" fill="#5c3ece" stroke="#5c3ece"></path><path d="M2557 2000L2633 1840L2462 1773Z" fill="#382388" stroke="#382388"></path><path d="M1741 2000L1728 1757L1665 1755Z" fill="#6242d8" stroke="#6242d8"></path><path d="M1741 2000L1942 1852L1728 1757Z" fill="#573ac3" stroke="#573ac3"></path><path d="M2633 1840L2739 1768L2555 1557Z" fill="#5136b9" stroke="#5136b9"></path><path d="M1982 0L1858 165L1962 254Z" fill="#4c32af" stroke="#4c32af"></path><path d="M1962 254L1858 165L1753 363Z" fill="#5c3ece" stroke="#5c3ece"></path><path d="M3155 797L3032 863L3191 1013Z" fill="#6746e3" stroke="#6746e3"></path><path d="M2996 1039L3032 863L2839 966Z" fill="#573ac3" stroke="#573ac3"></path><path d="M1858 165L1670 207L1753 363Z" fill="#472ea5" stroke="#472ea5"></path><path d="M974 1337L1202 1436L1250 1131Z" fill="#382388" stroke="#382388"></path><path d="M1556 2000L1741 2000L1665 1755Z" fill="#5c3ece" stroke="#5c3ece"></path><path d="M1235 382L1241 613L1333 572Z" fill="#5c3ece" stroke="#5c3ece"></path><path d="M1333 572L1241 613L1391 865Z" fill="#472ea5" stroke="#472ea5"></path><path d="M1235 382L1333 572L1471 417Z" fill="#3d2691" stroke="#3d2691"></path><path d="M1241 613L1160 815L1391 865Z" fill="#5136b9" stroke="#5136b9"></path><path d="M950 1251L974 1337L1250 1131Z" fill="#3d2691" stroke="#3d2691"></path><path d="M2156 2000L2446 2000L2136 1857Z" fill="#3d2691" stroke="#3d2691"></path><path d="M2633 1840L2800 2000L2739 1768Z" fill="#5c3ece" stroke="#5c3ece"></path><path d="M3030 1663L3060 1358L2747 1464Z" fill="#573ac3" stroke="#573ac3"></path><path d="M2973 1154L3168 1213L2996 1039Z" fill="#6242d8" stroke="#6242d8"></path><path d="M3030 1663L2747 1464L2803 1663Z" fill="#6746e3" stroke="#6746e3"></path><path d="M1556 2000L1665 1755L1351 1854Z" fill="#472ea5" stroke="#472ea5"></path><path d="M2777 159L2606 196L2582 350Z" fill="#382388" stroke="#382388"></path><path d="M2582 350L2606 196L2335 228Z" fill="#5c3ece" stroke="#5c3ece"></path><path d="M2239 0L1982 0L2206 204Z" fill="#3d2691" stroke="#3d2691"></path><path d="M2206 204L1982 0L1962 254Z" fill="#382388" stroke="#382388"></path><path d="M2777 159L2582 350L2745 471Z" fill="#573ac3" stroke="#573ac3"></path><path d="M1062 1584L1187 1528L1202 1436Z" fill="#382388" stroke="#382388"></path><path d="M1202 1436L1187 1528L1372 1542Z" fill="#331f7e" stroke="#331f7e"></path><path d="M2446 2000L2557 2000L2462 1773Z" fill="#4c32af" stroke="#4c32af"></path><path d="M3155 797L3020 535L3032 863Z" fill="#6746e3" stroke="#6746e3"></path><path d="M3032 863L3020 535L2853 801Z" fill="#573ac3" stroke="#573ac3"></path><path d="M3020 535L2985 470L2758 637Z" fill="#6746e3" stroke="#6746e3"></path><path d="M3060 1358L3168 1213L2973 1154Z" fill="#472ea5" stroke="#472ea5"></path><path d="M1351 1854L1665 1755L1372 1542Z" fill="#5c3ece" stroke="#5c3ece"></path><path d="M2239 0L2206 204L2335 228Z" fill="#382388" stroke="#382388"></path><path d="M1858 165L1774 0L1670 207Z" fill="#331f7e" stroke="#331f7e"></path><path d="M3191 1013L3032 863L2996 1039Z" fill="#6242d8" stroke="#6242d8"></path><path d="M2393 0L2239 0L2335 228Z" fill="#331f7e" stroke="#331f7e"></path><path d="M3168 1213L3191 1013L2996 1039Z" fill="#422a9b" stroke="#422a9b"></path><path d="M1187 1753L1351 1854L1372 1542Z" fill="#422a9b" stroke="#422a9b"></path><path d="M2994 1869L2803 1663L2739 1768Z" fill="#573ac3" stroke="#573ac3"></path><path d="M2994 1869L3030 1663L2803 1663Z" fill="#422a9b" stroke="#422a9b"></path><path d="M3060 1358L3178 1390L3168 1213Z" fill="#6242d8" stroke="#6242d8"></path><path d="M2606 196L2393 0L2335 228Z" fill="#573ac3" stroke="#573ac3"></path><path d="M2624 0L2393 0L2606 196Z" fill="#6242d8" stroke="#6242d8"></path><path d="M3143 1573L3178 1390L3060 1358Z" fill="#5c3ece" stroke="#5c3ece"></path><path d="M3424 1140L3370 945L3191 1013Z" fill="#3d2691" stroke="#3d2691"></path><path d="M1340 164L1235 382L1471 417Z" fill="#5c3ece" stroke="#5c3ece"></path><path d="M1004 816L989 929L1160 815Z" fill="#472ea5" stroke="#472ea5"></path><path d="M1340 164L1471 417L1670 207Z" fill="#422a9b" stroke="#422a9b"></path><path d="M1982 0L1774 0L1858 165Z" fill="#4c32af" stroke="#4c32af"></path><path d="M1004 816L1160 815L950 583Z" fill="#5136b9" stroke="#5136b9"></path><path d="M1160 815L989 929L1211 1062Z" fill="#5c3ece" stroke="#5c3ece"></path><path d="M950 583L1160 815L1241 613Z" fill="#422a9b" stroke="#422a9b"></path><path d="M2968 233L2777 159L2745 471Z" fill="#6242d8" stroke="#6242d8"></path><path d="M1062 1584L1187 1753L1187 1528Z" fill="#5136b9" stroke="#5136b9"></path><path d="M1187 1528L1187 1753L1372 1542Z" fill="#5136b9" stroke="#5136b9"></path><path d="M1351 1854L1408 2000L1556 2000Z" fill="#6746e3" stroke="#6746e3"></path><path d="M3030 1663L3143 1573L3060 1358Z" fill="#4c32af" stroke="#4c32af"></path><path d="M2557 2000L2800 2000L2633 1840Z" fill="#4c32af" stroke="#4c32af"></path><path d="M3030 1663L3146 1869L3143 1573Z" fill="#5136b9" stroke="#5136b9"></path><path d="M1171 2000L1408 2000L1351 1854Z" fill="#6242d8" stroke="#6242d8"></path><path d="M974 1337L1062 1584L1202 1436Z" fill="#4c32af" stroke="#4c32af"></path><path d="M950 1251L1250 1131L1211 1062Z" fill="#382388" stroke="#382388"></path><path d="M989 929L950 1251L1211 1062Z" fill="#6242d8" stroke="#6242d8"></path><path d="M3020 535L3162 562L2985 470Z" fill="#4c32af" stroke="#4c32af"></path><path d="M2985 470L2968 233L2745 471Z" fill="#331f7e" stroke="#331f7e"></path><path d="M3155 797L3162 562L3020 535Z" fill="#422a9b" stroke="#422a9b"></path><path d="M3439 644L3162 562L3155 797Z" fill="#472ea5" stroke="#472ea5"></path><path d="M1774 0L1641 0L1670 207Z" fill="#573ac3" stroke="#573ac3"></path><path d="M2800 2000L2994 1869L2739 1768Z" fill="#6242d8" stroke="#6242d8"></path><path d="M1440 0L1340 164L1670 207Z" fill="#5c3ece" stroke="#5c3ece"></path><path d="M1235 382L950 583L1241 613Z" fill="#331f7e" stroke="#331f7e"></path><path d="M2777 159L2624 0L2606 196Z" fill="#6746e3" stroke="#6746e3"></path><path d="M3205 332L2968 233L2985 470Z" fill="#5c3ece" stroke="#5c3ece"></path><path d="M2777 159L2824 0L2624 0Z" fill="#4c32af" stroke="#4c32af"></path><path d="M1244 0L1261 150L1340 164Z" fill="#6746e3" stroke="#6746e3"></path><path d="M1340 164L1261 150L1235 382Z" fill="#6242d8" stroke="#6242d8"></path><path d="M963 348L950 583L1235 382Z" fill="#331f7e" stroke="#331f7e"></path><path d="M749 768L780 1028L989 929Z" fill="#5136b9" stroke="#5136b9"></path><path d="M989 929L780 1028L950 1251Z" fill="#6746e3" stroke="#6746e3"></path><path d="M1641 0L1440 0L1670 207Z" fill="#472ea5" stroke="#472ea5"></path><path d="M3421 1564L3345 1349L3178 1390Z" fill="#573ac3" stroke="#573ac3"></path><path d="M3178 1390L3345 1349L3168 1213Z" fill="#6746e3" stroke="#6746e3"></path><path d="M3191 1013L3370 945L3155 797Z" fill="#472ea5" stroke="#472ea5"></path><path d="M3421 1564L3178 1390L3143 1573Z" fill="#6242d8" stroke="#6242d8"></path><path d="M3424 1140L3191 1013L3168 1213Z" fill="#6242d8" stroke="#6242d8"></path><path d="M2800 2000L2981 2000L2994 1869Z" fill="#5c3ece" stroke="#5c3ece"></path><path d="M2994 1869L3146 1869L3030 1663Z" fill="#382388" stroke="#382388"></path><path d="M850 1633L1036 1778L1062 1584Z" fill="#6242d8" stroke="#6242d8"></path><path d="M1062 1584L1036 1778L1187 1753Z" fill="#5c3ece" stroke="#5c3ece"></path><path d="M1187 1753L1171 2000L1351 1854Z" fill="#422a9b" stroke="#422a9b"></path><path d="M850 1633L1062 1584L974 1337Z" fill="#331f7e" stroke="#331f7e"></path><path d="M2968 233L2824 0L2777 159Z" fill="#5c3ece" stroke="#5c3ece"></path><path d="M2981 2000L3146 1869L2994 1869Z" fill="#382388" stroke="#382388"></path><path d="M1036 1778L1171 2000L1187 1753Z" fill="#3d2691" stroke="#3d2691"></path><path d="M3345 1349L3424 1140L3168 1213Z" fill="#6242d8" stroke="#6242d8"></path><path d="M3162 562L3205 332L2985 470Z" fill="#331f7e" stroke="#331f7e"></path><path d="M2968 233L3056 0L2824 0Z" fill="#5136b9" stroke="#5136b9"></path><path d="M3332 438L3205 332L3162 562Z" fill="#573ac3" stroke="#573ac3"></path><path d="M3436 766L3155 797L3370 945Z" fill="#6242d8" stroke="#6242d8"></path><path d="M749 768L989 929L1004 816Z" fill="#331f7e" stroke="#331f7e"></path><path d="M950 1251L767 1374L974 1337Z" fill="#573ac3" stroke="#573ac3"></path><path d="M1261 150L963 348L1235 382Z" fill="#382388" stroke="#382388"></path><path d="M950 583L795 654L1004 816Z" fill="#331f7e" stroke="#331f7e"></path><path d="M930 173L963 348L1261 150Z" fill="#472ea5" stroke="#472ea5"></path><path d="M3542 819L3436 766L3370 945Z" fill="#573ac3" stroke="#573ac3"></path><path d="M736 1219L767 1374L950 1251Z" fill="#331f7e" stroke="#331f7e"></path><path d="M1036 1778L1008 2000L1171 2000Z" fill="#4c32af" stroke="#4c32af"></path><path d="M767 1374L850 1633L974 1337Z" fill="#382388" stroke="#382388"></path><path d="M772 369L795 654L950 583Z" fill="#382388" stroke="#382388"></path><path d="M1440 0L1244 0L1340 164Z" fill="#6746e3" stroke="#6746e3"></path><path d="M3439 644L3332 438L3162 562Z" fill="#4c32af" stroke="#4c32af"></path><path d="M3205 332L3191 157L2968 233Z" fill="#331f7e" stroke="#331f7e"></path><path d="M780 1028L736 1219L950 1251Z" fill="#573ac3" stroke="#573ac3"></path><path d="M638 1070L736 1219L780 1028Z" fill="#382388" stroke="#382388"></path><path d="M795 654L749 768L1004 816Z" fill="#331f7e" stroke="#331f7e"></path><path d="M3436 766L3439 644L3155 797Z" fill="#5c3ece" stroke="#5c3ece"></path><path d="M3384 1787L3421 1564L3143 1573Z" fill="#472ea5" stroke="#472ea5"></path><path d="M3345 1349L3626 1376L3424 1140Z" fill="#5136b9" stroke="#5136b9"></path><path d="M3579 970L3542 819L3370 945Z" fill="#573ac3" stroke="#573ac3"></path><path d="M3436 766L3542 819L3439 644Z" fill="#6746e3" stroke="#6746e3"></path><path d="M2981 2000L3165 2000L3146 1869Z" fill="#331f7e" stroke="#331f7e"></path><path d="M3146 1869L3384 1787L3143 1573Z" fill="#472ea5" stroke="#472ea5"></path><path d="M3357 257L3205 332L3332 438Z" fill="#4c32af" stroke="#4c32af"></path><path d="M3357 257L3191 157L3205 332Z" fill="#6746e3" stroke="#6746e3"></path><path d="M3191 157L3056 0L2968 233Z" fill="#382388" stroke="#382388"></path><path d="M793 1778L1008 2000L1036 1778Z" fill="#422a9b" stroke="#422a9b"></path><path d="M3579 970L3370 945L3424 1140Z" fill="#5c3ece" stroke="#5c3ece"></path><path d="M3667 421L3357 257L3332 438Z" fill="#4c32af" stroke="#4c32af"></path><path d="M3345 2000L3384 1787L3146 1869Z" fill="#472ea5" stroke="#472ea5"></path><path d="M638 858L638 1070L780 1028Z" fill="#6746e3" stroke="#6746e3"></path><path d="M736 1219L573 1349L767 1374Z" fill="#422a9b" stroke="#422a9b"></path><path d="M622 1638L793 1778L850 1633Z" fill="#331f7e" stroke="#331f7e"></path><path d="M3671 1259L3579 970L3424 1140Z" fill="#573ac3" stroke="#573ac3"></path><path d="M3626 1376L3345 1349L3421 1564Z" fill="#5136b9" stroke="#5136b9"></path><path d="M1016 0L930 173L1261 150Z" fill="#422a9b" stroke="#422a9b"></path><path d="M963 348L772 369L950 583Z" fill="#573ac3" stroke="#573ac3"></path><path d="M604 636L638 858L749 768Z" fill="#422a9b" stroke="#422a9b"></path><path d="M749 768L638 858L780 1028Z" fill="#331f7e" stroke="#331f7e"></path><path d="M604 636L749 768L795 654Z" fill="#6242d8" stroke="#6242d8"></path><path d="M453 986L620 1162L638 1070Z" fill="#6746e3" stroke="#6746e3"></path><path d="M638 1070L620 1162L736 1219Z" fill="#382388" stroke="#382388"></path><path d="M850 1633L793 1778L1036 1778Z" fill="#5c3ece" stroke="#5c3ece"></path><path d="M622 1638L850 1633L767 1374Z" fill="#5136b9" stroke="#5136b9"></path><path d="M3667 421L3332 438L3439 644Z" fill="#5c3ece" stroke="#5c3ece"></path><path d="M3191 157L3195 0L3056 0Z" fill="#382388" stroke="#382388"></path><path d="M735 270L772 369L963 348Z" fill="#6746e3" stroke="#6746e3"></path><path d="M3438 0L3195 0L3191 157Z" fill="#573ac3" stroke="#573ac3"></path><path d="M1244 0L1016 0L1261 150Z" fill="#5c3ece" stroke="#5c3ece"></path><path d="M930 173L735 270L963 348Z" fill="#6242d8" stroke="#6242d8"></path><path d="M3165 2000L3345 2000L3146 1869Z" fill="#5c3ece" stroke="#5c3ece"></path><path d="M3628 1551L3626 1376L3421 1564Z" fill="#472ea5" stroke="#472ea5"></path><path d="M3539 1735L3421 1564L3384 1787Z" fill="#5c3ece" stroke="#5c3ece"></path><path d="M461 1367L573 1349L389 1173Z" fill="#5c3ece" stroke="#5c3ece"></path><path d="M620 1162L573 1349L736 1219Z" fill="#6242d8" stroke="#6242d8"></path><path d="M772 369L604 636L795 654Z" fill="#6746e3" stroke="#6746e3"></path><path d="M638 858L453 986L638 1070Z" fill="#6746e3" stroke="#6746e3"></path><path d="M3626 1376L3671 1259L3424 1140Z" fill="#5136b9" stroke="#5136b9"></path><path d="M3769 794L3654 652L3542 819Z" fill="#472ea5" stroke="#472ea5"></path><path d="M3602 2000L3539 1735L3384 1787Z" fill="#5136b9" stroke="#5136b9"></path><path d="M3755 1340L3743 1197L3671 1259Z" fill="#6746e3" stroke="#6746e3"></path><path d="M573 1349L622 1638L767 1374Z" fill="#331f7e" stroke="#331f7e"></path><path d="M793 1778L780 2000L1008 2000Z" fill="#6242d8" stroke="#6242d8"></path><path d="M765 0L735 270L930 173Z" fill="#573ac3" stroke="#573ac3"></path><path d="M772 369L626 343L604 636Z" fill="#331f7e" stroke="#331f7e"></path><path d="M3539 1735L3628 1551L3421 1564Z" fill="#382388" stroke="#382388"></path><path d="M3769 794L3542 819L3579 970Z" fill="#6746e3" stroke="#6746e3"></path><path d="M3542 819L3654 652L3439 644Z" fill="#5c3ece" stroke="#5c3ece"></path><path d="M3357 257L3438 0L3191 157Z" fill="#6242d8" stroke="#6242d8"></path><path d="M644 1827L780 2000L793 1778Z" fill="#422a9b" stroke="#422a9b"></path><path d="M3755 1340L3671 1259L3626 1376Z" fill="#422a9b" stroke="#422a9b"></path><path d="M3671 1259L3743 1197L3579 970Z" fill="#6242d8" stroke="#6242d8"></path><path d="M430 1831L644 1827L622 1638Z" fill="#6242d8" stroke="#6242d8"></path><path d="M622 1638L644 1827L793 1778Z" fill="#5136b9" stroke="#5136b9"></path><path d="M583 198L626 343L735 270Z" fill="#3d2691" stroke="#3d2691"></path><path d="M735 270L626 343L772 369Z" fill="#382388" stroke="#382388"></path><path d="M3743 1197L3763 994L3579 970Z" fill="#6746e3" stroke="#6746e3"></path><path d="M444 636L638 858L604 636Z" fill="#422a9b" stroke="#422a9b"></path><path d="M334 823L453 986L638 858Z" fill="#472ea5" stroke="#472ea5"></path><path d="M573 1349L461 1367L622 1638Z" fill="#5136b9" stroke="#5136b9"></path><path d="M3628 1551L3755 1340L3626 1376Z" fill="#5136b9" stroke="#5136b9"></path><path d="M3743 1197L4000 1153L3763 994Z" fill="#6746e3" stroke="#6746e3"></path><path d="M3740 1670L3755 1340L3628 1551Z" fill="#573ac3" stroke="#573ac3"></path><path d="M389 1173L573 1349L620 1162Z" fill="#4c32af" stroke="#4c32af"></path><path d="M3840 611L3769 794L4000 756Z" fill="#331f7e" stroke="#331f7e"></path><path d="M3763 994L3769 794L3579 970Z" fill="#382388" stroke="#382388"></path><path d="M3654 652L3667 421L3439 644Z" fill="#6242d8" stroke="#6242d8"></path><path d="M3840 611L3667 421L3654 652Z" fill="#573ac3" stroke="#573ac3"></path><path d="M3585 198L3438 0L3357 257Z" fill="#5136b9" stroke="#5136b9"></path><path d="M3667 421L3585 198L3357 257Z" fill="#5136b9" stroke="#5136b9"></path><path d="M1016 0L765 0L930 173Z" fill="#382388" stroke="#382388"></path><path d="M626 343L444 636L604 636Z" fill="#422a9b" stroke="#422a9b"></path><path d="M453 986L389 1173L620 1162Z" fill="#6242d8" stroke="#6242d8"></path><path d="M343 390L444 636L626 343Z" fill="#382388" stroke="#382388"></path><path d="M159 1027L389 1173L453 986Z" fill="#5136b9" stroke="#5136b9"></path><path d="M3742 1750L3740 1670L3539 1735Z" fill="#573ac3" stroke="#573ac3"></path><path d="M3539 1735L3740 1670L3628 1551Z" fill="#422a9b" stroke="#422a9b"></path><path d="M3345 2000L3602 2000L3384 1787Z" fill="#5c3ece" stroke="#5c3ece"></path><path d="M765 0L583 198L735 270Z" fill="#472ea5" stroke="#472ea5"></path><path d="M188 1371L425 1611L461 1367Z" fill="#573ac3" stroke="#573ac3"></path><path d="M461 1367L425 1611L622 1638Z" fill="#4c32af" stroke="#4c32af"></path><path d="M644 1827L559 2000L780 2000Z" fill="#573ac3" stroke="#573ac3"></path><path d="M3602 2000L3742 1750L3539 1735Z" fill="#382388" stroke="#382388"></path><path d="M4000 1389L4000 1153L3755 1340Z" fill="#422a9b" stroke="#422a9b"></path><path d="M250 864L334 823L131 638Z" fill="#422a9b" stroke="#422a9b"></path><path d="M444 636L334 823L638 858Z" fill="#382388" stroke="#382388"></path><path d="M389 1173L268 1246L461 1367Z" fill="#422a9b" stroke="#422a9b"></path><path d="M4000 992L3769 794L3763 994Z" fill="#5c3ece" stroke="#5c3ece"></path><path d="M3769 794L3840 611L3654 652Z" fill="#6746e3" stroke="#6746e3"></path><path d="M3667 421L3789 374L3585 198Z" fill="#472ea5" stroke="#472ea5"></path><path d="M4000 1153L3743 1197L3755 1340Z" fill="#331f7e" stroke="#331f7e"></path><path d="M430 1831L559 2000L644 1827Z" fill="#422a9b" stroke="#422a9b"></path><path d="M3848 0L3573 0L3585 198Z" fill="#3d2691" stroke="#3d2691"></path><path d="M3585 198L3573 0L3438 0Z" fill="#422a9b" stroke="#422a9b"></path><path d="M3840 611L3789 374L3667 421Z" fill="#573ac3" stroke="#573ac3"></path><path d="M425 1611L430 1831L622 1638Z" fill="#4c32af" stroke="#4c32af"></path><path d="M200 1607L430 1831L425 1611Z" fill="#422a9b" stroke="#422a9b"></path><path d="M159 1027L268 1246L389 1173Z" fill="#422a9b" stroke="#422a9b"></path><path d="M765 0L580 0L583 198Z" fill="#422a9b" stroke="#422a9b"></path><path d="M131 638L334 823L444 636Z" fill="#331f7e" stroke="#331f7e"></path><path d="M343 390L626 343L411 192Z" fill="#573ac3" stroke="#573ac3"></path><path d="M334 823L250 864L453 986Z" fill="#4c32af" stroke="#4c32af"></path><path d="M3602 2000L3742 2000L3742 1750Z" fill="#6242d8" stroke="#6242d8"></path><path d="M4000 1389L3755 1340L4000 1545Z" fill="#573ac3" stroke="#573ac3"></path><path d="M3755 1340L3740 1670L4000 1545Z" fill="#6242d8" stroke="#6242d8"></path><path d="M4000 269L3827 250L3789 374Z" fill="#5c3ece" stroke="#5c3ece"></path><path d="M4000 1153L4000 992L3763 994Z" fill="#4c32af" stroke="#4c32af"></path><path d="M411 192L626 343L583 198Z" fill="#382388" stroke="#382388"></path><path d="M4000 430L3789 374L3840 611Z" fill="#472ea5" stroke="#472ea5"></path><path d="M3789 374L3827 250L3585 198Z" fill="#4c32af" stroke="#4c32af"></path><path d="M580 0L411 192L583 198Z" fill="#472ea5" stroke="#472ea5"></path><path d="M4000 1545L3740 1670L4000 1857Z" fill="#331f7e" stroke="#331f7e"></path><path d="M4000 992L4000 756L3769 794Z" fill="#331f7e" stroke="#331f7e"></path><path d="M0 1207L188 1371L268 1246Z" fill="#573ac3" stroke="#573ac3"></path><path d="M268 1246L188 1371L461 1367Z" fill="#331f7e" stroke="#331f7e"></path><path d="M4000 1857L3740 1670L3742 1750Z" fill="#6746e3" stroke="#6746e3"></path><path d="M0 994L159 1027L0 843Z" fill="#3d2691" stroke="#3d2691"></path><path d="M250 864L159 1027L453 986Z" fill="#573ac3" stroke="#573ac3"></path><path d="M4000 756L4000 562L3840 611Z" fill="#331f7e" stroke="#331f7e"></path><path d="M138 1762L200 1607L0 1566Z" fill="#573ac3" stroke="#573ac3"></path><path d="M188 1371L200 1607L425 1611Z" fill="#5c3ece" stroke="#5c3ece"></path><path d="M430 1831L350 2000L559 2000Z" fill="#382388" stroke="#382388"></path><path d="M261 2000L350 2000L430 1831Z" fill="#3d2691" stroke="#3d2691"></path><path d="M4000 562L4000 430L3840 611Z" fill="#5136b9" stroke="#5136b9"></path><path d="M343 390L131 638L444 636Z" fill="#5136b9" stroke="#5136b9"></path><path d="M0 1566L200 1607L188 1371Z" fill="#6242d8" stroke="#6242d8"></path><path d="M167 350L131 638L343 390Z" fill="#4c32af" stroke="#4c32af"></path><path d="M330 0L252 254L411 192Z" fill="#6242d8" stroke="#6242d8"></path><path d="M411 192L252 254L343 390Z" fill="#4c32af" stroke="#4c32af"></path><path d="M4000 0L3848 0L3827 250Z" fill="#6746e3" stroke="#6746e3"></path><path d="M3827 250L3848 0L3585 198Z" fill="#5c3ece" stroke="#5c3ece"></path><path d="M3742 2000L4000 1857L3742 1750Z" fill="#4c32af" stroke="#4c32af"></path><path d="M4000 430L4000 269L3789 374Z" fill="#573ac3" stroke="#573ac3"></path><path d="M138 1762L261 2000L430 1831Z" fill="#331f7e" stroke="#331f7e"></path><path d="M252 254L167 350L343 390Z" fill="#472ea5" stroke="#472ea5"></path><path d="M580 0L330 0L411 192Z" fill="#6746e3" stroke="#6746e3"></path><path d="M252 254L0 144L167 350Z" fill="#422a9b" stroke="#422a9b"></path><path d="M200 1607L138 1762L430 1831Z" fill="#6746e3" stroke="#6746e3"></path><path d="M0 1207L268 1246L159 1027Z" fill="#331f7e" stroke="#331f7e"></path><path d="M3742 2000L4000 2000L4000 1857Z" fill="#5136b9" stroke="#5136b9"></path><path d="M0 843L250 864L131 638Z" fill="#573ac3" stroke="#573ac3"></path><path d="M0 843L159 1027L250 864Z" fill="#4c32af" stroke="#4c32af"></path><path d="M0 994L0 1207L159 1027Z" fill="#3d2691" stroke="#3d2691"></path><path d="M0 632L0 843L131 638Z" fill="#6242d8" stroke="#6242d8"></path><path d="M0 1207L0 1349L188 1371Z" fill="#573ac3" stroke="#573ac3"></path><path d="M0 428L0 632L131 638Z" fill="#5136b9" stroke="#5136b9"></path><path d="M0 428L131 638L167 350Z" fill="#331f7e" stroke="#331f7e"></path><path d="M0 1349L0 1566L188 1371Z" fill="#5136b9" stroke="#5136b9"></path><path d="M138 1762L0 1864L261 2000Z" fill="#573ac3" stroke="#573ac3"></path><path d="M4000 269L4000 0L3827 250Z" fill="#4c32af" stroke="#4c32af"></path><path d="M330 0L211 0L252 254Z" fill="#422a9b" stroke="#422a9b"></path><path d="M0 144L0 428L167 350Z" fill="#4c32af" stroke="#4c32af"></path><path d="M0 1566L0 1864L138 1762Z" fill="#422a9b" stroke="#422a9b"></path><path d="M0 1864L0 2000L261 2000Z" fill="#4c32af" stroke="#4c32af"></path><path d="M211 0L0 144L252 254Z" fill="#472ea5" stroke="#472ea5"></path><path d="M211 0L0 0L0 144Z" fill="#5136b9" stroke="#5136b9"></path></g></svg>