<svg id="visual" viewBox="0 0 4000 2000" width="4000" height="2000" xmlns="http://www.w3.org/2000/svg" xmlns:xlink="http://www.w3.org/1999/xlink" version="1.1"><g stroke-width="1" stroke-linejoin="bevel"><path d="M1999 1000L2136 935L2065 788Z" fill="#2e1974" stroke="#2e1974"></path><path d="M2136 935L2147 848L2065 788Z" fill="#281861" stroke="#281861"></path><path d="M2065 788L1803 742L1999 1000Z" fill="#6704ff" stroke="#6704ff"></path><path d="M2147 848L2157 638L2065 788Z" fill="#2e1974" stroke="#2e1974"></path><path d="M2065 788L1950 563L1803 742Z" fill="#281861" stroke="#281861"></path><path d="M1803 742L1744 997L1999 1000Z" fill="#281861" stroke="#281861"></path><path d="M1786 1229L1995 1203L1999 1000Z" fill="#341a87" stroke="#341a87"></path><path d="M1999 1000L2197 1224L2136 935Z" fill="#5d10ea" stroke="#5d10ea"></path><path d="M2157 638L1950 563L2065 788Z" fill="#3b1b9a" stroke="#3b1b9a"></path><path d="M1995 1203L2197 1224L1999 1000Z" fill="#421bae" stroke="#421bae"></path><path d="M2136 935L2417 851L2147 848Z" fill="#421bae" stroke="#421bae"></path><path d="M2147 848L2417 851L2157 638Z" fill="#281861" stroke="#281861"></path><path d="M2447 986L2417 851L2136 935Z" fill="#5316d6" stroke="#5316d6"></path><path d="M1950 563L1752 596L1803 742Z" fill="#23154f" stroke="#23154f"></path><path d="M1571 833L1627 1016L1744 997Z" fill="#23154f" stroke="#23154f"></path><path d="M1744 997L1786 1229L1999 1000Z" fill="#5d10ea" stroke="#5d10ea"></path><path d="M1995 1203L2058 1373L2197 1224Z" fill="#3b1b9a" stroke="#3b1b9a"></path><path d="M1571 833L1744 997L1803 742Z" fill="#4a19c2" stroke="#4a19c2"></path><path d="M1744 997L1635 1156L1786 1229Z" fill="#1d133d" stroke="#1d133d"></path><path d="M2197 1224L2447 986L2136 935Z" fill="#5d10ea" stroke="#5d10ea"></path><path d="M1950 563L1862 463L1752 596Z" fill="#281861" stroke="#281861"></path><path d="M1978 344L1862 463L1950 563Z" fill="#23154f" stroke="#23154f"></path><path d="M1752 596L1571 833L1803 742Z" fill="#5d10ea" stroke="#5d10ea"></path><path d="M2417 851L2355 551L2157 638Z" fill="#4a19c2" stroke="#4a19c2"></path><path d="M2157 638L2159 396L1950 563Z" fill="#4a19c2" stroke="#4a19c2"></path><path d="M2590 618L2355 551L2417 851Z" fill="#6704ff" stroke="#6704ff"></path><path d="M1453 1026L1635 1156L1627 1016Z" fill="#341a87" stroke="#341a87"></path><path d="M1627 1016L1635 1156L1744 997Z" fill="#281861" stroke="#281861"></path><path d="M1748 1460L2058 1373L1786 1229Z" fill="#5d10ea" stroke="#5d10ea"></path><path d="M1786 1229L2058 1373L1995 1203Z" fill="#23154f" stroke="#23154f"></path><path d="M2442 1238L2554 988L2447 986Z" fill="#3b1b9a" stroke="#3b1b9a"></path><path d="M2355 551L2159 396L2157 638Z" fill="#23154f" stroke="#23154f"></path><path d="M2442 1238L2447 986L2197 1224Z" fill="#2e1974" stroke="#2e1974"></path><path d="M2447 986L2554 988L2417 851Z" fill="#5d10ea" stroke="#5d10ea"></path><path d="M2058 1373L2154 1413L2197 1224Z" fill="#2e1974" stroke="#2e1974"></path><path d="M2411 1333L2442 1238L2197 1224Z" fill="#5d10ea" stroke="#5d10ea"></path><path d="M2159 396L1978 344L1950 563Z" fill="#421bae" stroke="#421bae"></path><path d="M1607 423L1566 592L1752 596Z" fill="#1d133d" stroke="#1d133d"></path><path d="M1752 596L1566 592L1571 833Z" fill="#6704ff" stroke="#6704ff"></path><path d="M1607 423L1752 596L1862 463Z" fill="#2e1974" stroke="#2e1974"></path><path d="M2154 1413L2411 1333L2197 1224Z" fill="#23154f" stroke="#23154f"></path><path d="M2442 1238L2614 1252L2554 988Z" fill="#6704ff" stroke="#6704ff"></path><path d="M1372 821L1453 1026L1571 833Z" fill="#2e1974" stroke="#2e1974"></path><path d="M1571 833L1453 1026L1627 1016Z" fill="#2e1974" stroke="#2e1974"></path><path d="M2815 824L2638 824L2831 979Z" fill="#1d133d" stroke="#1d133d"></path><path d="M2554 988L2638 824L2417 851Z" fill="#341a87" stroke="#341a87"></path><path d="M2638 824L2590 618L2417 851Z" fill="#421bae" stroke="#421bae"></path><path d="M2355 551L2435 395L2159 396Z" fill="#2e1974" stroke="#2e1974"></path><path d="M1631 1392L1786 1229L1635 1156Z" fill="#6704ff" stroke="#6704ff"></path><path d="M1631 1392L1748 1460L1786 1229Z" fill="#1d133d" stroke="#1d133d"></path><path d="M2045 1599L2209 1540L2154 1413Z" fill="#1d133d" stroke="#1d133d"></path><path d="M1661 238L1607 423L1862 463Z" fill="#5d10ea" stroke="#5d10ea"></path><path d="M1566 592L1372 821L1571 833Z" fill="#6704ff" stroke="#6704ff"></path><path d="M1353 1195L1631 1392L1635 1156Z" fill="#341a87" stroke="#341a87"></path><path d="M2598 436L2435 395L2355 551Z" fill="#23154f" stroke="#23154f"></path><path d="M2159 396L2187 252L1978 344Z" fill="#281861" stroke="#281861"></path><path d="M2435 395L2187 252L2159 396Z" fill="#23154f" stroke="#23154f"></path><path d="M1978 344L1754 205L1862 463Z" fill="#23154f" stroke="#23154f"></path><path d="M1368 603L1372 821L1566 592Z" fill="#421bae" stroke="#421bae"></path><path d="M2045 1599L2154 1413L2058 1373Z" fill="#5316d6" stroke="#5316d6"></path><path d="M2154 1413L2209 1540L2411 1333Z" fill="#23154f" stroke="#23154f"></path><path d="M2602 1401L2614 1252L2411 1333Z" fill="#3b1b9a" stroke="#3b1b9a"></path><path d="M2411 1333L2614 1252L2442 1238Z" fill="#5316d6" stroke="#5316d6"></path><path d="M1563 1666L1791 1537L1748 1460Z" fill="#1d133d" stroke="#1d133d"></path><path d="M1748 1460L1791 1537L2058 1373Z" fill="#6704ff" stroke="#6704ff"></path><path d="M1791 1537L2045 1599L2058 1373Z" fill="#2e1974" stroke="#2e1974"></path><path d="M2187 252L1979 190L1978 344Z" fill="#3b1b9a" stroke="#3b1b9a"></path><path d="M1338 387L1368 603L1566 592Z" fill="#341a87" stroke="#341a87"></path><path d="M2770 458L2598 436L2590 618Z" fill="#4a19c2" stroke="#4a19c2"></path><path d="M2590 618L2598 436L2355 551Z" fill="#6704ff" stroke="#6704ff"></path><path d="M2435 395L2387 137L2187 252Z" fill="#4a19c2" stroke="#4a19c2"></path><path d="M1191 996L1353 1195L1453 1026Z" fill="#3b1b9a" stroke="#3b1b9a"></path><path d="M1453 1026L1353 1195L1635 1156Z" fill="#2e1974" stroke="#2e1974"></path><path d="M1631 1392L1563 1666L1748 1460Z" fill="#341a87" stroke="#341a87"></path><path d="M1191 996L1453 1026L1372 821Z" fill="#281861" stroke="#281861"></path><path d="M1979 190L1754 205L1978 344Z" fill="#2e1974" stroke="#2e1974"></path><path d="M1607 423L1338 387L1566 592Z" fill="#421bae" stroke="#421bae"></path><path d="M1754 205L1661 238L1862 463Z" fill="#5d10ea" stroke="#5d10ea"></path><path d="M2535 1658L2423 1544L2336 1764Z" fill="#5d10ea" stroke="#5d10ea"></path><path d="M2209 1540L2423 1544L2411 1333Z" fill="#1d133d" stroke="#1d133d"></path><path d="M2423 1544L2602 1401L2411 1333Z" fill="#5316d6" stroke="#5316d6"></path><path d="M2831 979L2638 824L2554 988Z" fill="#421bae" stroke="#421bae"></path><path d="M2638 824L2796 666L2590 618Z" fill="#281861" stroke="#281861"></path><path d="M2831 979L2554 988L2804 1167Z" fill="#341a87" stroke="#341a87"></path><path d="M2815 824L2796 666L2638 824Z" fill="#1d133d" stroke="#1d133d"></path><path d="M2804 1167L2554 988L2614 1252Z" fill="#6704ff" stroke="#6704ff"></path><path d="M2808 1382L2804 1167L2614 1252Z" fill="#5316d6" stroke="#5316d6"></path><path d="M2613 166L2435 395L2598 436Z" fill="#281861" stroke="#281861"></path><path d="M2613 166L2387 137L2435 395Z" fill="#5d10ea" stroke="#5d10ea"></path><path d="M2214 0L1983 0L1979 190Z" fill="#23154f" stroke="#23154f"></path><path d="M1979 190L1763 0L1754 205Z" fill="#5316d6" stroke="#5316d6"></path><path d="M1353 1195L1365 1400L1631 1392Z" fill="#4a19c2" stroke="#4a19c2"></path><path d="M1135 853L1191 996L1372 821Z" fill="#6704ff" stroke="#6704ff"></path><path d="M1353 1195L1189 1247L1365 1400Z" fill="#23154f" stroke="#23154f"></path><path d="M2796 666L2770 458L2590 618Z" fill="#2e1974" stroke="#2e1974"></path><path d="M1415 207L1338 387L1607 423Z" fill="#3b1b9a" stroke="#3b1b9a"></path><path d="M1368 603L1135 853L1372 821Z" fill="#3b1b9a" stroke="#3b1b9a"></path><path d="M1791 1537L2041 1764L2045 1599Z" fill="#23154f" stroke="#23154f"></path><path d="M2045 1599L2041 1764L2209 1540Z" fill="#421bae" stroke="#421bae"></path><path d="M1815 1861L2041 1764L1791 1537Z" fill="#3b1b9a" stroke="#3b1b9a"></path><path d="M2214 0L1979 190L2187 252Z" fill="#1d133d" stroke="#1d133d"></path><path d="M1645 0L1415 207L1661 238Z" fill="#281861" stroke="#281861"></path><path d="M1661 238L1415 207L1607 423Z" fill="#6704ff" stroke="#6704ff"></path><path d="M1168 541L1135 853L1368 603Z" fill="#2e1974" stroke="#2e1974"></path><path d="M1365 1400L1563 1666L1631 1392Z" fill="#5316d6" stroke="#5316d6"></path><path d="M2387 137L2214 0L2187 252Z" fill="#341a87" stroke="#341a87"></path><path d="M2336 1764L2423 1544L2209 1540Z" fill="#1d133d" stroke="#1d133d"></path><path d="M2423 1544L2535 1658L2602 1401Z" fill="#5d10ea" stroke="#5d10ea"></path><path d="M2602 1401L2808 1382L2614 1252Z" fill="#6704ff" stroke="#6704ff"></path><path d="M1191 996L1189 1247L1353 1195Z" fill="#6704ff" stroke="#6704ff"></path><path d="M1365 1400L1338 1645L1563 1666Z" fill="#421bae" stroke="#421bae"></path><path d="M1046 1184L1189 1247L1191 996Z" fill="#2e1974" stroke="#2e1974"></path><path d="M2816 1536L2808 1382L2602 1401Z" fill="#3b1b9a" stroke="#3b1b9a"></path><path d="M2932 1142L2956 998L2831 979Z" fill="#23154f" stroke="#23154f"></path><path d="M2148 1837L2336 1764L2209 1540Z" fill="#2e1974" stroke="#2e1974"></path><path d="M1645 0L1661 238L1754 205Z" fill="#5316d6" stroke="#5316d6"></path><path d="M1338 387L1168 541L1368 603Z" fill="#5d10ea" stroke="#5d10ea"></path><path d="M2932 1142L2831 979L2804 1167Z" fill="#3b1b9a" stroke="#3b1b9a"></path><path d="M2831 979L2956 998L2815 824Z" fill="#2e1974" stroke="#2e1974"></path><path d="M3061 761L3000 578L2796 666Z" fill="#5316d6" stroke="#5316d6"></path><path d="M2796 666L3000 578L2770 458Z" fill="#341a87" stroke="#341a87"></path><path d="M2838 252L2613 166L2598 436Z" fill="#23154f" stroke="#23154f"></path><path d="M2387 137L2349 0L2214 0Z" fill="#5316d6" stroke="#5316d6"></path><path d="M2948 1391L2932 1142L2804 1167Z" fill="#5d10ea" stroke="#5d10ea"></path><path d="M1983 0L1763 0L1979 190Z" fill="#5d10ea" stroke="#5d10ea"></path><path d="M1172 408L1168 541L1338 387Z" fill="#23154f" stroke="#23154f"></path><path d="M2646 0L2349 0L2387 137Z" fill="#5316d6" stroke="#5316d6"></path><path d="M1945 2000L2148 1837L2041 1764Z" fill="#1d133d" stroke="#1d133d"></path><path d="M2041 1764L2148 1837L2209 1540Z" fill="#2e1974" stroke="#2e1974"></path><path d="M1763 0L1645 0L1754 205Z" fill="#1d133d" stroke="#1d133d"></path><path d="M1168 541L1057 833L1135 853Z" fill="#3b1b9a" stroke="#3b1b9a"></path><path d="M1135 853L1026 973L1191 996Z" fill="#6704ff" stroke="#6704ff"></path><path d="M1178 169L1172 408L1338 387Z" fill="#421bae" stroke="#421bae"></path><path d="M1168 541L942 659L1057 833Z" fill="#281861" stroke="#281861"></path><path d="M1178 169L1338 387L1415 207Z" fill="#1d133d" stroke="#1d133d"></path><path d="M1563 1666L1815 1861L1791 1537Z" fill="#281861" stroke="#281861"></path><path d="M1057 833L1026 973L1135 853Z" fill="#3b1b9a" stroke="#3b1b9a"></path><path d="M2535 1658L2816 1536L2602 1401Z" fill="#1d133d" stroke="#1d133d"></path><path d="M2808 1382L2948 1391L2804 1167Z" fill="#4a19c2" stroke="#4a19c2"></path><path d="M2798 1845L2816 1536L2535 1658Z" fill="#2e1974" stroke="#2e1974"></path><path d="M3061 761L2796 666L2815 824Z" fill="#5316d6" stroke="#5316d6"></path><path d="M2770 458L2838 252L2598 436Z" fill="#1d133d" stroke="#1d133d"></path><path d="M1005 1393L1164 1434L1189 1247Z" fill="#281861" stroke="#281861"></path><path d="M1189 1247L1164 1434L1365 1400Z" fill="#5d10ea" stroke="#5d10ea"></path><path d="M1563 1666L1573 1832L1815 1861Z" fill="#5d10ea" stroke="#5d10ea"></path><path d="M1198 1586L1338 1645L1365 1400Z" fill="#6704ff" stroke="#6704ff"></path><path d="M1026 973L1046 1184L1191 996Z" fill="#2e1974" stroke="#2e1974"></path><path d="M3000 578L2961 448L2770 458Z" fill="#5316d6" stroke="#5316d6"></path><path d="M2961 448L2838 252L2770 458Z" fill="#281861" stroke="#281861"></path><path d="M2613 166L2646 0L2387 137Z" fill="#6704ff" stroke="#6704ff"></path><path d="M2956 998L3061 761L2815 824Z" fill="#23154f" stroke="#23154f"></path><path d="M3000 578L3230 385L2961 448Z" fill="#23154f" stroke="#23154f"></path><path d="M3162 1043L3061 761L2956 998Z" fill="#2e1974" stroke="#2e1974"></path><path d="M3162 1043L2956 998L2932 1142Z" fill="#6704ff" stroke="#6704ff"></path><path d="M2816 1536L2948 1391L2808 1382Z" fill="#4a19c2" stroke="#4a19c2"></path><path d="M1362 1859L1573 1832L1563 1666Z" fill="#2e1974" stroke="#2e1974"></path><path d="M975 1562L1198 1586L1164 1434Z" fill="#341a87" stroke="#341a87"></path><path d="M1164 1434L1198 1586L1365 1400Z" fill="#23154f" stroke="#23154f"></path><path d="M1338 1645L1362 1859L1563 1666Z" fill="#5d10ea" stroke="#5d10ea"></path><path d="M2862 0L2646 0L2613 166Z" fill="#23154f" stroke="#23154f"></path><path d="M1645 0L1400 0L1415 207Z" fill="#421bae" stroke="#421bae"></path><path d="M1863 2000L1945 2000L1815 1861Z" fill="#1d133d" stroke="#1d133d"></path><path d="M1815 1861L1945 2000L2041 1764Z" fill="#5316d6" stroke="#5316d6"></path><path d="M2450 2000L2586 1866L2336 1764Z" fill="#281861" stroke="#281861"></path><path d="M2336 1764L2586 1866L2535 1658Z" fill="#23154f" stroke="#23154f"></path><path d="M854 438L942 659L1168 541Z" fill="#3b1b9a" stroke="#3b1b9a"></path><path d="M1057 833L790 789L1026 973Z" fill="#3b1b9a" stroke="#3b1b9a"></path><path d="M809 1349L1005 1393L1046 1184Z" fill="#23154f" stroke="#23154f"></path><path d="M1048 341L1168 541L1172 408Z" fill="#281861" stroke="#281861"></path><path d="M2257 2000L2336 1764L2148 1837Z" fill="#23154f" stroke="#23154f"></path><path d="M2816 1536L3022 1564L2948 1391Z" fill="#341a87" stroke="#341a87"></path><path d="M1557 2000L1863 2000L1815 1861Z" fill="#3b1b9a" stroke="#3b1b9a"></path><path d="M1400 0L1178 169L1415 207Z" fill="#4a19c2" stroke="#4a19c2"></path><path d="M1945 2000L2257 2000L2148 1837Z" fill="#5d10ea" stroke="#5d10ea"></path><path d="M1178 169L1048 341L1172 408Z" fill="#3b1b9a" stroke="#3b1b9a"></path><path d="M3179 1181L3162 1043L2932 1142Z" fill="#421bae" stroke="#421bae"></path><path d="M3061 761L3188 637L3000 578Z" fill="#281861" stroke="#281861"></path><path d="M1046 1184L1005 1393L1189 1247Z" fill="#281861" stroke="#281861"></path><path d="M771 1012L1046 1184L1026 973Z" fill="#5d10ea" stroke="#5d10ea"></path><path d="M1209 1781L1362 1859L1338 1645Z" fill="#3b1b9a" stroke="#3b1b9a"></path><path d="M1573 1832L1557 2000L1815 1861Z" fill="#3b1b9a" stroke="#3b1b9a"></path><path d="M1209 1781L1338 1645L1198 1586Z" fill="#3b1b9a" stroke="#3b1b9a"></path><path d="M2948 1391L3179 1181L2932 1142Z" fill="#4a19c2" stroke="#4a19c2"></path><path d="M3172 1428L3179 1181L2948 1391Z" fill="#341a87" stroke="#341a87"></path><path d="M2257 2000L2450 2000L2336 1764Z" fill="#3b1b9a" stroke="#3b1b9a"></path><path d="M3220 790L3061 761L3162 1043Z" fill="#5316d6" stroke="#5316d6"></path><path d="M3220 790L3188 637L3061 761Z" fill="#5316d6" stroke="#5316d6"></path><path d="M3018 158L2862 0L2838 252Z" fill="#281861" stroke="#281861"></path><path d="M2838 252L2862 0L2613 166Z" fill="#23154f" stroke="#23154f"></path><path d="M3342 937L3220 790L3162 1043Z" fill="#23154f" stroke="#23154f"></path><path d="M1145 0L1034 241L1178 169Z" fill="#281861" stroke="#281861"></path><path d="M1178 169L1034 241L1048 341Z" fill="#4a19c2" stroke="#4a19c2"></path><path d="M854 438L854 595L942 659Z" fill="#5316d6" stroke="#5316d6"></path><path d="M2798 1845L2535 1658L2586 1866Z" fill="#23154f" stroke="#23154f"></path><path d="M2990 1748L3022 1564L2816 1536Z" fill="#341a87" stroke="#341a87"></path><path d="M1424 2000L1557 2000L1573 1832Z" fill="#5316d6" stroke="#5316d6"></path><path d="M1067 1842L1209 1781L1198 1586Z" fill="#6704ff" stroke="#6704ff"></path><path d="M1362 1859L1424 2000L1573 1832Z" fill="#2e1974" stroke="#2e1974"></path><path d="M854 438L1168 541L1048 341Z" fill="#3b1b9a" stroke="#3b1b9a"></path><path d="M942 659L790 789L1057 833Z" fill="#341a87" stroke="#341a87"></path><path d="M3018 158L2838 252L2961 448Z" fill="#23154f" stroke="#23154f"></path><path d="M2654 2000L2798 1845L2586 1866Z" fill="#2e1974" stroke="#2e1974"></path><path d="M3230 385L3018 158L2961 448Z" fill="#1d133d" stroke="#1d133d"></path><path d="M854 595L790 789L942 659Z" fill="#23154f" stroke="#23154f"></path><path d="M809 1349L975 1562L1005 1393Z" fill="#23154f" stroke="#23154f"></path><path d="M1005 1393L975 1562L1164 1434Z" fill="#1d133d" stroke="#1d133d"></path><path d="M3249 1535L3172 1428L3022 1564Z" fill="#2e1974" stroke="#2e1974"></path><path d="M3022 1564L3172 1428L2948 1391Z" fill="#23154f" stroke="#23154f"></path><path d="M3386 1169L3342 937L3162 1043Z" fill="#421bae" stroke="#421bae"></path><path d="M1400 0L1145 0L1178 169Z" fill="#1d133d" stroke="#1d133d"></path><path d="M1034 241L854 438L1048 341Z" fill="#1d133d" stroke="#1d133d"></path><path d="M1238 2000L1362 1859L1209 1781Z" fill="#421bae" stroke="#421bae"></path><path d="M1238 2000L1424 2000L1362 1859Z" fill="#5316d6" stroke="#5316d6"></path><path d="M747 267L854 438L1034 241Z" fill="#23154f" stroke="#23154f"></path><path d="M854 595L569 604L790 789Z" fill="#6704ff" stroke="#6704ff"></path><path d="M790 789L771 1012L1026 973Z" fill="#5d10ea" stroke="#5d10ea"></path><path d="M2450 2000L2654 2000L2586 1866Z" fill="#2e1974" stroke="#2e1974"></path><path d="M2798 1845L2990 1748L2816 1536Z" fill="#1d133d" stroke="#1d133d"></path><path d="M2964 2000L2990 1748L2798 1845Z" fill="#421bae" stroke="#421bae"></path><path d="M771 1012L772 1208L1046 1184Z" fill="#421bae" stroke="#421bae"></path><path d="M3188 637L3230 385L3000 578Z" fill="#281861" stroke="#281861"></path><path d="M3349 438L3230 385L3188 637Z" fill="#3b1b9a" stroke="#3b1b9a"></path><path d="M772 1208L809 1349L1046 1184Z" fill="#341a87" stroke="#341a87"></path><path d="M3386 1169L3162 1043L3179 1181Z" fill="#23154f" stroke="#23154f"></path><path d="M3220 790L3390 570L3188 637Z" fill="#341a87" stroke="#341a87"></path><path d="M2654 2000L2751 2000L2798 1845Z" fill="#421bae" stroke="#421bae"></path><path d="M3230 385L3168 170L3018 158Z" fill="#1d133d" stroke="#1d133d"></path><path d="M3018 158L3061 0L2862 0Z" fill="#6704ff" stroke="#6704ff"></path><path d="M771 1817L1067 1842L975 1562Z" fill="#421bae" stroke="#421bae"></path><path d="M975 1562L1067 1842L1198 1586Z" fill="#6704ff" stroke="#6704ff"></path><path d="M1067 1842L1238 2000L1209 1781Z" fill="#1d133d" stroke="#1d133d"></path><path d="M3168 170L3061 0L3018 158Z" fill="#341a87" stroke="#341a87"></path><path d="M3223 1743L3249 1535L3022 1564Z" fill="#2e1974" stroke="#2e1974"></path><path d="M3172 1428L3386 1169L3179 1181Z" fill="#421bae" stroke="#421bae"></path><path d="M3223 1743L3022 1564L2990 1748Z" fill="#3b1b9a" stroke="#3b1b9a"></path><path d="M3421 1436L3386 1169L3172 1428Z" fill="#23154f" stroke="#23154f"></path><path d="M3605 835L3413 847L3624 982Z" fill="#23154f" stroke="#23154f"></path><path d="M3342 937L3413 847L3220 790Z" fill="#5d10ea" stroke="#5d10ea"></path><path d="M3230 385L3443 219L3168 170Z" fill="#2e1974" stroke="#2e1974"></path><path d="M3390 570L3349 438L3188 637Z" fill="#5d10ea" stroke="#5d10ea"></path><path d="M3168 170L3189 0L3061 0Z" fill="#23154f" stroke="#23154f"></path><path d="M1145 0L964 0L1034 241Z" fill="#281861" stroke="#281861"></path><path d="M3413 847L3390 570L3220 790Z" fill="#5316d6" stroke="#5316d6"></path><path d="M809 1349L786 1565L975 1562Z" fill="#341a87" stroke="#341a87"></path><path d="M654 1463L786 1565L809 1349Z" fill="#6704ff" stroke="#6704ff"></path><path d="M826 0L747 267L1034 241Z" fill="#3b1b9a" stroke="#3b1b9a"></path><path d="M854 438L569 604L854 595Z" fill="#6704ff" stroke="#6704ff"></path><path d="M538 794L570 1065L771 1012Z" fill="#2e1974" stroke="#2e1974"></path><path d="M771 1012L580 1148L772 1208Z" fill="#281861" stroke="#281861"></path><path d="M2751 2000L2964 2000L2798 1845Z" fill="#5d10ea" stroke="#5d10ea"></path><path d="M3427 0L3189 0L3168 170Z" fill="#4a19c2" stroke="#4a19c2"></path><path d="M3237 2000L3223 1743L2990 1748Z" fill="#3b1b9a" stroke="#3b1b9a"></path><path d="M3249 1535L3421 1436L3172 1428Z" fill="#1d133d" stroke="#1d133d"></path><path d="M3223 1743L3345 1547L3249 1535Z" fill="#3b1b9a" stroke="#3b1b9a"></path><path d="M538 794L771 1012L790 789Z" fill="#2e1974" stroke="#2e1974"></path><path d="M772 1208L654 1463L809 1349Z" fill="#4a19c2" stroke="#4a19c2"></path><path d="M570 1065L580 1148L771 1012Z" fill="#421bae" stroke="#421bae"></path><path d="M1067 1842L1044 2000L1238 2000Z" fill="#341a87" stroke="#341a87"></path><path d="M840 2000L1044 2000L1067 1842Z" fill="#3b1b9a" stroke="#3b1b9a"></path><path d="M3650 1444L3421 1436L3660 1631Z" fill="#4a19c2" stroke="#4a19c2"></path><path d="M3345 1547L3421 1436L3249 1535Z" fill="#3b1b9a" stroke="#3b1b9a"></path><path d="M3624 982L3413 847L3342 937Z" fill="#23154f" stroke="#23154f"></path><path d="M580 1148L654 1463L772 1208Z" fill="#341a87" stroke="#341a87"></path><path d="M786 1565L771 1817L975 1562Z" fill="#281861" stroke="#281861"></path><path d="M609 368L569 604L854 438Z" fill="#4a19c2" stroke="#4a19c2"></path><path d="M569 604L538 794L790 789Z" fill="#1d133d" stroke="#1d133d"></path><path d="M964 0L826 0L1034 241Z" fill="#1d133d" stroke="#1d133d"></path><path d="M747 267L609 368L854 438Z" fill="#5316d6" stroke="#5316d6"></path><path d="M666 229L609 368L747 267Z" fill="#23154f" stroke="#23154f"></path><path d="M826 0L666 229L747 267Z" fill="#5d10ea" stroke="#5d10ea"></path><path d="M598 1805L771 1817L786 1565Z" fill="#6704ff" stroke="#6704ff"></path><path d="M3597 333L3443 219L3349 438Z" fill="#1d133d" stroke="#1d133d"></path><path d="M3349 438L3443 219L3230 385Z" fill="#5d10ea" stroke="#5d10ea"></path><path d="M3597 333L3349 438L3390 570Z" fill="#2e1974" stroke="#2e1974"></path><path d="M3642 622L3390 570L3413 847Z" fill="#1d133d" stroke="#1d133d"></path><path d="M3624 982L3342 937L3386 1169Z" fill="#3b1b9a" stroke="#3b1b9a"></path><path d="M419 1383L589 1552L654 1463Z" fill="#341a87" stroke="#341a87"></path><path d="M654 1463L589 1552L786 1565Z" fill="#6704ff" stroke="#6704ff"></path><path d="M419 1383L654 1463L580 1148Z" fill="#5d10ea" stroke="#5d10ea"></path><path d="M347 1254L580 1148L570 1065Z" fill="#421bae" stroke="#421bae"></path><path d="M334 864L442 960L538 794Z" fill="#6704ff" stroke="#6704ff"></path><path d="M538 794L442 960L570 1065Z" fill="#4a19c2" stroke="#4a19c2"></path><path d="M431 549L538 794L569 604Z" fill="#3b1b9a" stroke="#3b1b9a"></path><path d="M3643 1155L3624 982L3386 1169Z" fill="#4a19c2" stroke="#4a19c2"></path><path d="M3223 1743L3367 1806L3345 1547Z" fill="#4a19c2" stroke="#4a19c2"></path><path d="M3421 1436L3643 1155L3386 1169Z" fill="#1d133d" stroke="#1d133d"></path><path d="M3237 2000L3367 1806L3223 1743Z" fill="#1d133d" stroke="#1d133d"></path><path d="M544 2000L840 2000L771 1817Z" fill="#3b1b9a" stroke="#3b1b9a"></path><path d="M771 1817L840 2000L1067 1842Z" fill="#6704ff" stroke="#6704ff"></path><path d="M3650 1444L3643 1155L3421 1436Z" fill="#2e1974" stroke="#2e1974"></path><path d="M3832 796L3642 622L3605 835Z" fill="#5d10ea" stroke="#5d10ea"></path><path d="M3605 835L3642 622L3413 847Z" fill="#5316d6" stroke="#5316d6"></path><path d="M3801 964L3605 835L3624 982Z" fill="#3b1b9a" stroke="#3b1b9a"></path><path d="M347 155L465 439L609 368Z" fill="#5316d6" stroke="#5316d6"></path><path d="M609 368L465 439L569 604Z" fill="#5d10ea" stroke="#5d10ea"></path><path d="M347 155L609 368L666 229Z" fill="#2e1974" stroke="#2e1974"></path><path d="M2964 2000L3237 2000L2990 1748Z" fill="#6704ff" stroke="#6704ff"></path><path d="M465 439L431 549L569 604Z" fill="#23154f" stroke="#23154f"></path><path d="M3618 0L3427 0L3443 219Z" fill="#1d133d" stroke="#1d133d"></path><path d="M3443 219L3427 0L3168 170Z" fill="#3b1b9a" stroke="#3b1b9a"></path><path d="M3642 622L3597 333L3390 570Z" fill="#2e1974" stroke="#2e1974"></path><path d="M347 1254L570 1065L442 960Z" fill="#3b1b9a" stroke="#3b1b9a"></path><path d="M347 1254L419 1383L580 1148Z" fill="#2e1974" stroke="#2e1974"></path><path d="M589 1552L598 1805L786 1565Z" fill="#1d133d" stroke="#1d133d"></path><path d="M431 549L334 864L538 794Z" fill="#3b1b9a" stroke="#3b1b9a"></path><path d="M411 1649L598 1805L589 1552Z" fill="#341a87" stroke="#341a87"></path><path d="M3660 1631L3345 1547L3367 1806Z" fill="#341a87" stroke="#341a87"></path><path d="M3660 1631L3421 1436L3345 1547Z" fill="#23154f" stroke="#23154f"></path><path d="M3643 1155L3801 964L3624 982Z" fill="#1d133d" stroke="#1d133d"></path><path d="M258 942L347 1254L442 960Z" fill="#3b1b9a" stroke="#3b1b9a"></path><path d="M419 1383L411 1649L589 1552Z" fill="#6704ff" stroke="#6704ff"></path><path d="M3746 381L3642 250L3597 333Z" fill="#3b1b9a" stroke="#3b1b9a"></path><path d="M3597 333L3642 250L3443 219Z" fill="#2e1974" stroke="#2e1974"></path><path d="M3746 381L3597 333L3642 622Z" fill="#5d10ea" stroke="#5d10ea"></path><path d="M826 0L537 0L666 229Z" fill="#6704ff" stroke="#6704ff"></path><path d="M179 543L238 843L431 549Z" fill="#6704ff" stroke="#6704ff"></path><path d="M238 843L258 942L334 864Z" fill="#5316d6" stroke="#5316d6"></path><path d="M3650 1444L3775 1173L3643 1155Z" fill="#3b1b9a" stroke="#3b1b9a"></path><path d="M3775 1173L3801 964L3643 1155Z" fill="#23154f" stroke="#23154f"></path><path d="M334 864L258 942L442 960Z" fill="#281861" stroke="#281861"></path><path d="M238 843L334 864L431 549Z" fill="#341a87" stroke="#341a87"></path><path d="M3237 2000L3429 2000L3367 1806Z" fill="#1d133d" stroke="#1d133d"></path><path d="M3650 1444L3740 1464L3775 1173Z" fill="#2e1974" stroke="#2e1974"></path><path d="M3645 1784L3660 1631L3367 1806Z" fill="#5316d6" stroke="#5316d6"></path><path d="M3845 648L3746 381L3642 622Z" fill="#1d133d" stroke="#1d133d"></path><path d="M202 1635L411 1649L419 1383Z" fill="#5d10ea" stroke="#5d10ea"></path><path d="M226 1349L419 1383L347 1254Z" fill="#421bae" stroke="#421bae"></path><path d="M226 443L431 549L465 439Z" fill="#5d10ea" stroke="#5d10ea"></path><path d="M3660 1631L3740 1464L3650 1444Z" fill="#1d133d" stroke="#1d133d"></path><path d="M4000 1023L3832 796L3801 964Z" fill="#4a19c2" stroke="#4a19c2"></path><path d="M3801 964L3832 796L3605 835Z" fill="#281861" stroke="#281861"></path><path d="M4000 1023L3801 964L3775 1173Z" fill="#4a19c2" stroke="#4a19c2"></path><path d="M3771 0L3618 0L3642 250Z" fill="#6704ff" stroke="#6704ff"></path><path d="M3642 250L3618 0L3443 219Z" fill="#341a87" stroke="#341a87"></path><path d="M3832 796L3845 648L3642 622Z" fill="#5d10ea" stroke="#5d10ea"></path><path d="M3859 139L3771 0L3642 250Z" fill="#2e1974" stroke="#2e1974"></path><path d="M537 0L347 155L666 229Z" fill="#23154f" stroke="#23154f"></path><path d="M3660 1631L3827 1562L3740 1464Z" fill="#3b1b9a" stroke="#3b1b9a"></path><path d="M3558 2000L3645 1784L3367 1806Z" fill="#421bae" stroke="#421bae"></path><path d="M537 0L419 0L347 155Z" fill="#341a87" stroke="#341a87"></path><path d="M364 1803L544 2000L598 1805Z" fill="#281861" stroke="#281861"></path><path d="M598 1805L544 2000L771 1817Z" fill="#5d10ea" stroke="#5d10ea"></path><path d="M347 155L226 443L465 439Z" fill="#281861" stroke="#281861"></path><path d="M148 1243L347 1254L258 942Z" fill="#341a87" stroke="#341a87"></path><path d="M148 1243L226 1349L347 1254Z" fill="#6704ff" stroke="#6704ff"></path><path d="M411 1649L364 1803L598 1805Z" fill="#23154f" stroke="#23154f"></path><path d="M148 1243L258 942L0 1042Z" fill="#421bae" stroke="#421bae"></path><path d="M3429 2000L3558 2000L3367 1806Z" fill="#23154f" stroke="#23154f"></path><path d="M0 573L179 543L0 452Z" fill="#5316d6" stroke="#5316d6"></path><path d="M226 443L179 543L431 549Z" fill="#5d10ea" stroke="#5d10ea"></path><path d="M202 1635L364 1803L411 1649Z" fill="#341a87" stroke="#341a87"></path><path d="M3775 1855L3660 1631L3645 1784Z" fill="#341a87" stroke="#341a87"></path><path d="M3775 1855L3827 1562L3660 1631Z" fill="#341a87" stroke="#341a87"></path><path d="M4000 1420L4000 1185L3775 1173Z" fill="#23154f" stroke="#23154f"></path><path d="M3832 796L4000 740L3845 648Z" fill="#4a19c2" stroke="#4a19c2"></path><path d="M0 1042L258 942L238 843Z" fill="#23154f" stroke="#23154f"></path><path d="M226 1349L202 1635L419 1383Z" fill="#421bae" stroke="#421bae"></path><path d="M3859 139L3642 250L3746 381Z" fill="#23154f" stroke="#23154f"></path><path d="M253 0L186 209L347 155Z" fill="#2e1974" stroke="#2e1974"></path><path d="M347 155L186 209L226 443Z" fill="#4a19c2" stroke="#4a19c2"></path><path d="M179 543L0 765L238 843Z" fill="#341a87" stroke="#341a87"></path><path d="M4000 1185L4000 1023L3775 1173Z" fill="#6704ff" stroke="#6704ff"></path><path d="M3845 648L4000 568L3746 381Z" fill="#341a87" stroke="#341a87"></path><path d="M4000 1023L4000 740L3832 796Z" fill="#3b1b9a" stroke="#3b1b9a"></path><path d="M0 1367L202 1635L226 1349Z" fill="#1d133d" stroke="#1d133d"></path><path d="M364 1803L338 2000L544 2000Z" fill="#5316d6" stroke="#5316d6"></path><path d="M4000 251L3859 139L3746 381Z" fill="#281861" stroke="#281861"></path><path d="M4000 1420L3775 1173L3740 1464Z" fill="#23154f" stroke="#23154f"></path><path d="M3741 2000L3775 1855L3645 1784Z" fill="#281861" stroke="#281861"></path><path d="M3827 1562L4000 1420L3740 1464Z" fill="#2e1974" stroke="#2e1974"></path><path d="M419 0L253 0L347 155Z" fill="#4a19c2" stroke="#4a19c2"></path><path d="M4000 740L4000 568L3845 648Z" fill="#341a87" stroke="#341a87"></path><path d="M226 1852L338 2000L364 1803Z" fill="#4a19c2" stroke="#4a19c2"></path><path d="M3558 2000L3741 2000L3645 1784Z" fill="#2e1974" stroke="#2e1974"></path><path d="M4000 1652L4000 1420L3827 1562Z" fill="#23154f" stroke="#23154f"></path><path d="M4000 1652L3827 1562L4000 1770Z" fill="#23154f" stroke="#23154f"></path><path d="M179 543L226 443L0 452Z" fill="#2e1974" stroke="#2e1974"></path><path d="M0 573L0 765L179 543Z" fill="#5316d6" stroke="#5316d6"></path><path d="M148 1243L0 1367L226 1349Z" fill="#2e1974" stroke="#2e1974"></path><path d="M0 765L0 1042L238 843Z" fill="#281861" stroke="#281861"></path><path d="M4000 568L4000 342L3746 381Z" fill="#341a87" stroke="#341a87"></path><path d="M3859 139L4000 0L3771 0Z" fill="#421bae" stroke="#421bae"></path><path d="M0 1740L226 1852L202 1635Z" fill="#5d10ea" stroke="#5d10ea"></path><path d="M202 1635L226 1852L364 1803Z" fill="#3b1b9a" stroke="#3b1b9a"></path><path d="M0 1042L0 1180L148 1243Z" fill="#5d10ea" stroke="#5d10ea"></path><path d="M0 452L226 443L186 209Z" fill="#4a19c2" stroke="#4a19c2"></path><path d="M4000 342L4000 251L3746 381Z" fill="#6704ff" stroke="#6704ff"></path><path d="M0 202L0 452L186 209Z" fill="#341a87" stroke="#341a87"></path><path d="M0 1180L0 1367L148 1243Z" fill="#3b1b9a" stroke="#3b1b9a"></path><path d="M4000 1770L3827 1562L3775 1855Z" fill="#421bae" stroke="#421bae"></path><path d="M0 2000L224 2000L226 1852Z" fill="#6704ff" stroke="#6704ff"></path><path d="M226 1852L224 2000L338 2000Z" fill="#5d10ea" stroke="#5d10ea"></path><path d="M0 0L0 202L186 209Z" fill="#281861" stroke="#281861"></path><path d="M4000 2000L4000 1770L3775 1855Z" fill="#341a87" stroke="#341a87"></path><path d="M0 1367L0 1626L202 1635Z" fill="#4a19c2" stroke="#4a19c2"></path><path d="M4000 251L4000 0L3859 139Z" fill="#281861" stroke="#281861"></path><path d="M0 1626L0 1740L202 1635Z" fill="#421bae" stroke="#421bae"></path><path d="M253 0L0 0L186 209Z" fill="#6704ff" stroke="#6704ff"></path><path d="M3741 2000L4000 2000L3775 1855Z" fill="#2e1974" stroke="#2e1974"></path><path d="M0 1740L0 2000L226 1852Z" fill="#5d10ea" stroke="#5d10ea"></path></g></svg>