<svg id="visual" viewBox="0 0 900 600" width="900" height="600" xmlns="http://www.w3.org/2000/svg" xmlns:xlink="http://www.w3.org/1999/xlink" version="1.1"><g stroke-width="1" stroke-linejoin="bevel"><path d="M455.5 279L420.5 261L403.5 294Z" fill="#1d1871" stroke="#1d1871"></path><path d="M433.5 211L387.6 237L420.5 261Z" fill="#5613e7" stroke="#5613e7"></path><path d="M420.5 261L387.6 237L403.5 294Z" fill="#131145" stroke="#131145"></path><path d="M455.5 279L484.5 238L420.5 261Z" fill="#4719cf" stroke="#4719cf"></path><path d="M369.6 343L416.5 359L403.5 294Z" fill="#6704ff" stroke="#6704ff"></path><path d="M403.5 294L416.5 359L455.5 279Z" fill="#4719cf" stroke="#4719cf"></path><path d="M455.5 279L526.4 308L484.5 238Z" fill="#1d1871" stroke="#1d1871"></path><path d="M387.6 237L355.6 291L403.5 294Z" fill="#251a88" stroke="#251a88"></path><path d="M484.5 238L433.5 211L420.5 261Z" fill="#131145" stroke="#131145"></path><path d="M416.5 359L493.5 334L455.5 279Z" fill="#131145" stroke="#131145"></path><path d="M355.6 291L369.6 343L403.5 294Z" fill="#251a88" stroke="#251a88"></path><path d="M493.5 334L526.4 308L455.5 279Z" fill="#17155b" stroke="#17155b"></path><path d="M489.5 416L515.4 337L493.5 334Z" fill="#6704ff" stroke="#6704ff"></path><path d="M493.5 334L515.4 337L526.4 308Z" fill="#2f1b9f" stroke="#2f1b9f"></path><path d="M433.5 211L362.6 210L387.6 237Z" fill="#3a1bb7" stroke="#3a1bb7"></path><path d="M387.6 237L313.6 240L355.6 291Z" fill="#3a1bb7" stroke="#3a1bb7"></path><path d="M575.4 315L543.4 267L526.4 308Z" fill="#100b30" stroke="#100b30"></path><path d="M526.4 308L543.4 267L484.5 238Z" fill="#4719cf" stroke="#4719cf"></path><path d="M484.5 238L484.5 184L433.5 211Z" fill="#6704ff" stroke="#6704ff"></path><path d="M528.4 198L484.5 184L484.5 238Z" fill="#4719cf" stroke="#4719cf"></path><path d="M433.5 211L380.6 148L362.6 210Z" fill="#100b30" stroke="#100b30"></path><path d="M311.6 368L369.6 392L369.6 343Z" fill="#4719cf" stroke="#4719cf"></path><path d="M369.6 343L369.6 392L416.5 359Z" fill="#100b30" stroke="#100b30"></path><path d="M416.5 359L489.5 416L493.5 334Z" fill="#3a1bb7" stroke="#3a1bb7"></path><path d="M362.6 210L313.6 240L387.6 237Z" fill="#1d1871" stroke="#1d1871"></path><path d="M355.6 291L311.6 368L369.6 343Z" fill="#5613e7" stroke="#5613e7"></path><path d="M369.6 392L405.5 410L416.5 359Z" fill="#17155b" stroke="#17155b"></path><path d="M313.6 240L300.6 280L355.6 291Z" fill="#2f1b9f" stroke="#2f1b9f"></path><path d="M543.4 267L528.4 198L484.5 238Z" fill="#6704ff" stroke="#6704ff"></path><path d="M362.6 210L329.6 199L313.6 240Z" fill="#4719cf" stroke="#4719cf"></path><path d="M380.6 148L329.6 199L362.6 210Z" fill="#2f1b9f" stroke="#2f1b9f"></path><path d="M405.5 410L489.5 416L416.5 359Z" fill="#251a88" stroke="#251a88"></path><path d="M515.4 337L568.4 329L526.4 308Z" fill="#1d1871" stroke="#1d1871"></path><path d="M300.6 280L311.6 368L355.6 291Z" fill="#17155b" stroke="#17155b"></path><path d="M360.6 432L415.5 433L405.5 410Z" fill="#09001c" stroke="#09001c"></path><path d="M466.5 142L433.5 211L484.5 184Z" fill="#131145" stroke="#131145"></path><path d="M466.5 142L424.5 143L433.5 211Z" fill="#5613e7" stroke="#5613e7"></path><path d="M543.4 402L568.4 329L515.4 337Z" fill="#2f1b9f" stroke="#2f1b9f"></path><path d="M543.4 267L568.4 234L528.4 198Z" fill="#100b30" stroke="#100b30"></path><path d="M424.5 143L380.6 148L433.5 211Z" fill="#251a88" stroke="#251a88"></path><path d="M360.6 432L405.5 410L369.6 392Z" fill="#09001c" stroke="#09001c"></path><path d="M405.5 410L415.5 433L489.5 416Z" fill="#251a88" stroke="#251a88"></path><path d="M575.4 315L568.4 234L543.4 267Z" fill="#131145" stroke="#131145"></path><path d="M568.4 329L575.4 315L526.4 308Z" fill="#251a88" stroke="#251a88"></path><path d="M548.4 159L484.5 184L528.4 198Z" fill="#131145" stroke="#131145"></path><path d="M512.4 117L466.5 142L484.5 184Z" fill="#100b30" stroke="#100b30"></path><path d="M306.6 412L360.6 432L369.6 392Z" fill="#251a88" stroke="#251a88"></path><path d="M258.7 302L274.7 331L300.6 280Z" fill="#5613e7" stroke="#5613e7"></path><path d="M300.6 280L274.7 331L311.6 368Z" fill="#4719cf" stroke="#4719cf"></path><path d="M311.6 368L306.6 412L369.6 392Z" fill="#6704ff" stroke="#6704ff"></path><path d="M258.7 302L300.6 280L247.7 239Z" fill="#100b30" stroke="#100b30"></path><path d="M489.5 416L543.4 402L515.4 337Z" fill="#2f1b9f" stroke="#2f1b9f"></path><path d="M568.4 329L655.3 359L575.4 315Z" fill="#3a1bb7" stroke="#3a1bb7"></path><path d="M247.7 239L300.6 280L313.6 240Z" fill="#131145" stroke="#131145"></path><path d="M576.4 167L548.4 159L528.4 198Z" fill="#1d1871" stroke="#1d1871"></path><path d="M475.5 114L406.5 113L424.5 143Z" fill="#251a88" stroke="#251a88"></path><path d="M424.5 143L406.5 113L380.6 148Z" fill="#17155b" stroke="#17155b"></path><path d="M380.6 148L337.6 136L329.6 199Z" fill="#09001c" stroke="#09001c"></path><path d="M475.5 114L424.5 143L466.5 142Z" fill="#100b30" stroke="#100b30"></path><path d="M254.7 385L306.6 412L311.6 368Z" fill="#100b30" stroke="#100b30"></path><path d="M254.7 385L311.6 368L274.7 331Z" fill="#131145" stroke="#131145"></path><path d="M358.6 108L337.6 136L380.6 148Z" fill="#5613e7" stroke="#5613e7"></path><path d="M251.7 215L247.7 239L313.6 240Z" fill="#09001c" stroke="#09001c"></path><path d="M409.5 480L463.5 461L415.5 433Z" fill="#3a1bb7" stroke="#3a1bb7"></path><path d="M415.5 433L463.5 461L489.5 416Z" fill="#6704ff" stroke="#6704ff"></path><path d="M531.4 466L569.4 438L543.4 402Z" fill="#251a88" stroke="#251a88"></path><path d="M512.4 117L475.5 114L466.5 142Z" fill="#1d1871" stroke="#1d1871"></path><path d="M655.3 264L590.4 205L568.4 234Z" fill="#6704ff" stroke="#6704ff"></path><path d="M568.4 234L590.4 205L528.4 198Z" fill="#3a1bb7" stroke="#3a1bb7"></path><path d="M251.7 215L313.6 240L329.6 199Z" fill="#5613e7" stroke="#5613e7"></path><path d="M588.4 81L512.4 117L548.4 159Z" fill="#09001c" stroke="#09001c"></path><path d="M548.4 159L512.4 117L484.5 184Z" fill="#1d1871" stroke="#1d1871"></path><path d="M590.4 205L576.4 167L528.4 198Z" fill="#100b30" stroke="#100b30"></path><path d="M255.7 155L251.7 215L329.6 199Z" fill="#6704ff" stroke="#6704ff"></path><path d="M406.5 113L358.6 108L380.6 148Z" fill="#131145" stroke="#131145"></path><path d="M337.6 136L255.7 155L329.6 199Z" fill="#1d1871" stroke="#1d1871"></path><path d="M388.6 33L358.6 108L406.5 113Z" fill="#251a88" stroke="#251a88"></path><path d="M354.6 484L409.5 480L360.6 432Z" fill="#3a1bb7" stroke="#3a1bb7"></path><path d="M360.6 432L409.5 480L415.5 433Z" fill="#2f1b9f" stroke="#2f1b9f"></path><path d="M218.8 348L274.7 331L258.7 302Z" fill="#131145" stroke="#131145"></path><path d="M218.8 348L254.7 385L274.7 331Z" fill="#251a88" stroke="#251a88"></path><path d="M301.6 469L354.6 484L360.6 432Z" fill="#4719cf" stroke="#4719cf"></path><path d="M358.6 108L320.6 113L337.6 136Z" fill="#5613e7" stroke="#5613e7"></path><path d="M409.5 480L476.5 487L463.5 461Z" fill="#6704ff" stroke="#6704ff"></path><path d="M463.5 461L531.4 466L489.5 416Z" fill="#251a88" stroke="#251a88"></path><path d="M531.4 466L543.4 402L489.5 416Z" fill="#6704ff" stroke="#6704ff"></path><path d="M543.4 402L600.4 404L568.4 329Z" fill="#17155b" stroke="#17155b"></path><path d="M575.4 315L655.3 264L568.4 234Z" fill="#17155b" stroke="#17155b"></path><path d="M476.5 487L531.4 466L463.5 461Z" fill="#131145" stroke="#131145"></path><path d="M569.4 438L600.4 404L543.4 402Z" fill="#251a88" stroke="#251a88"></path><path d="M301.6 469L360.6 432L306.6 412Z" fill="#2f1b9f" stroke="#2f1b9f"></path><path d="M427.5 546L469.5 539L476.5 487Z" fill="#4719cf" stroke="#4719cf"></path><path d="M320.6 113L255.7 155L337.6 136Z" fill="#2f1b9f" stroke="#2f1b9f"></path><path d="M204.8 258L258.7 302L247.7 239Z" fill="#09001c" stroke="#09001c"></path><path d="M209.8 299L258.7 302L204.8 258Z" fill="#09001c" stroke="#09001c"></path><path d="M209.8 299L218.8 348L258.7 302Z" fill="#131145" stroke="#131145"></path><path d="M204.8 258L247.7 239L222.8 188Z" fill="#1d1871" stroke="#1d1871"></path><path d="M244.7 462L301.6 469L306.6 412Z" fill="#17155b" stroke="#17155b"></path><path d="M244.7 462L306.6 412L254.7 385Z" fill="#3a1bb7" stroke="#3a1bb7"></path><path d="M655.3 359L654.3 289L575.4 315Z" fill="#5613e7" stroke="#5613e7"></path><path d="M590.4 205L645.3 188L576.4 167Z" fill="#3a1bb7" stroke="#3a1bb7"></path><path d="M222.8 188L247.7 239L251.7 215Z" fill="#09001c" stroke="#09001c"></path><path d="M654.3 289L655.3 264L575.4 315Z" fill="#251a88" stroke="#251a88"></path><path d="M255.7 155L222.8 188L251.7 215Z" fill="#2f1b9f" stroke="#2f1b9f"></path><path d="M531.4 466L588.4 517L569.4 438Z" fill="#4719cf" stroke="#4719cf"></path><path d="M569.4 438L623.3 416L600.4 404Z" fill="#6704ff" stroke="#6704ff"></path><path d="M476.5 487L527.4 497L531.4 466Z" fill="#17155b" stroke="#17155b"></path><path d="M469.5 539L527.4 497L476.5 487Z" fill="#131145" stroke="#131145"></path><path d="M626.3 463L623.3 416L569.4 438Z" fill="#2f1b9f" stroke="#2f1b9f"></path><path d="M600.4 404L655.3 359L568.4 329Z" fill="#3a1bb7" stroke="#3a1bb7"></path><path d="M623.3 416L655.3 359L600.4 404Z" fill="#6704ff" stroke="#6704ff"></path><path d="M654.3 289L672.2 283L655.3 264Z" fill="#1d1871" stroke="#1d1871"></path><path d="M655.3 264L645.3 188L590.4 205Z" fill="#131145" stroke="#131145"></path><path d="M576.4 167L588.4 81L548.4 159Z" fill="#17155b" stroke="#17155b"></path><path d="M512.4 117L457.5 46L475.5 114Z" fill="#6704ff" stroke="#6704ff"></path><path d="M475.5 114L457.5 46L406.5 113Z" fill="#100b30" stroke="#100b30"></path><path d="M358.6 108L317.6 54L320.6 113Z" fill="#3a1bb7" stroke="#3a1bb7"></path><path d="M536.4 33L457.5 46L512.4 117Z" fill="#09001c" stroke="#09001c"></path><path d="M681.2 336L672.2 283L654.3 289Z" fill="#17155b" stroke="#17155b"></path><path d="M655.3 264L687.2 215L645.3 188Z" fill="#5613e7" stroke="#5613e7"></path><path d="M211.8 446L140.8 396L177.8 462Z" fill="#251a88" stroke="#251a88"></path><path d="M218.8 348L223.8 418L254.7 385Z" fill="#3a1bb7" stroke="#3a1bb7"></path><path d="M223.8 418L218.8 348L166.8 354Z" fill="#1d1871" stroke="#1d1871"></path><path d="M320.6 113L248.7 117L255.7 155Z" fill="#3a1bb7" stroke="#3a1bb7"></path><path d="M255.7 155L191.8 153L222.8 188Z" fill="#2f1b9f" stroke="#2f1b9f"></path><path d="M254.7 69L248.7 117L320.6 113Z" fill="#100b30" stroke="#100b30"></path><path d="M457.5 46L420.5 37L406.5 113Z" fill="#3a1bb7" stroke="#3a1bb7"></path><path d="M223.8 418L244.7 462L254.7 385Z" fill="#5613e7" stroke="#5613e7"></path><path d="M383.6 551L409.5 480L354.6 484Z" fill="#251a88" stroke="#251a88"></path><path d="M736.2 315L683.2 260L672.2 283Z" fill="#6704ff" stroke="#6704ff"></path><path d="M672.2 283L683.2 260L655.3 264Z" fill="#1d1871" stroke="#1d1871"></path><path d="M427.5 546L409.5 480L383.6 551Z" fill="#3a1bb7" stroke="#3a1bb7"></path><path d="M427.5 546L476.5 487L409.5 480Z" fill="#5613e7" stroke="#5613e7"></path><path d="M685.2 387L681.2 336L655.3 359Z" fill="#6704ff" stroke="#6704ff"></path><path d="M655.3 359L681.2 336L654.3 289Z" fill="#17155b" stroke="#17155b"></path><path d="M699.2 166L644.3 146L645.3 188Z" fill="#4719cf" stroke="#4719cf"></path><path d="M645.3 188L644.3 146L576.4 167Z" fill="#6704ff" stroke="#6704ff"></path><path d="M420.5 37L388.6 33L406.5 113Z" fill="#17155b" stroke="#17155b"></path><path d="M388.6 33L317.6 54L358.6 108Z" fill="#3a1bb7" stroke="#3a1bb7"></path><path d="M299.6 512L354.6 484L301.6 469Z" fill="#251a88" stroke="#251a88"></path><path d="M644.3 146L588.4 81L576.4 167Z" fill="#2f1b9f" stroke="#2f1b9f"></path><path d="M274.7 500L299.6 512L301.6 469Z" fill="#5613e7" stroke="#5613e7"></path><path d="M244.7 462L274.7 500L301.6 469Z" fill="#4719cf" stroke="#4719cf"></path><path d="M588.4 517L626.3 463L569.4 438Z" fill="#1d1871" stroke="#1d1871"></path><path d="M623.3 416L685.2 387L655.3 359Z" fill="#09001c" stroke="#09001c"></path><path d="M588.4 517L531.4 466L527.4 497Z" fill="#6704ff" stroke="#6704ff"></path><path d="M699.2 166L687.2 215L722.2 217Z" fill="#3a1bb7" stroke="#3a1bb7"></path><path d="M683.2 260L687.2 215L655.3 264Z" fill="#131145" stroke="#131145"></path><path d="M313.6 544L383.6 551L354.6 484Z" fill="#5613e7" stroke="#5613e7"></path><path d="M223.8 418L211.8 446L244.7 462Z" fill="#5613e7" stroke="#5613e7"></path><path d="M206.8 519L271.7 529L274.7 500Z" fill="#09001c" stroke="#09001c"></path><path d="M166.8 354L218.8 348L209.8 299Z" fill="#6704ff" stroke="#6704ff"></path><path d="M620.3 81L576.4 59L588.4 81Z" fill="#1d1871" stroke="#1d1871"></path><path d="M588.4 81L576.4 59L512.4 117Z" fill="#100b30" stroke="#100b30"></path><path d="M457.5 46L424.5 0L420.5 37Z" fill="#4719cf" stroke="#4719cf"></path><path d="M156.8 262L209.8 299L204.8 258Z" fill="#100b30" stroke="#100b30"></path><path d="M145.8 303L166.8 354L209.8 299Z" fill="#100b30" stroke="#100b30"></path><path d="M248.7 117L191.8 153L255.7 155Z" fill="#5613e7" stroke="#5613e7"></path><path d="M158.8 210L156.8 262L204.8 258Z" fill="#09001c" stroke="#09001c"></path><path d="M193.8 94L191.8 153L248.7 117Z" fill="#17155b" stroke="#17155b"></path><path d="M158.8 210L204.8 258L222.8 188Z" fill="#6704ff" stroke="#6704ff"></path><path d="M699.2 435L685.2 387L623.3 416Z" fill="#2f1b9f" stroke="#2f1b9f"></path><path d="M722.2 217L687.2 215L683.2 260Z" fill="#1d1871" stroke="#1d1871"></path><path d="M576.4 59L536.4 33L512.4 117Z" fill="#6704ff" stroke="#6704ff"></path><path d="M420.5 37L424.5 0L388.6 33Z" fill="#1d1871" stroke="#1d1871"></path><path d="M259.7 0L254.7 69L317.6 54Z" fill="#6704ff" stroke="#6704ff"></path><path d="M317.6 54L254.7 69L320.6 113Z" fill="#100b30" stroke="#100b30"></path><path d="M571.4 561L588.4 517L527.4 497Z" fill="#5613e7" stroke="#5613e7"></path><path d="M626.3 463L699.2 435L623.3 416Z" fill="#4719cf" stroke="#4719cf"></path><path d="M644.3 146L620.3 81L588.4 81Z" fill="#5613e7" stroke="#5613e7"></path><path d="M576.4 0L533.4 0L536.4 33Z" fill="#1d1871" stroke="#1d1871"></path><path d="M637.3 60L620.3 81L706.2 119Z" fill="#2f1b9f" stroke="#2f1b9f"></path><path d="M191.8 153L158.8 210L222.8 188Z" fill="#17155b" stroke="#17155b"></path><path d="M271.7 529L313.6 544L299.6 512Z" fill="#251a88" stroke="#251a88"></path><path d="M299.6 512L313.6 544L354.6 484Z" fill="#3a1bb7" stroke="#3a1bb7"></path><path d="M271.7 529L299.6 512L274.7 500Z" fill="#5613e7" stroke="#5613e7"></path><path d="M156.8 262L145.8 303L209.8 299Z" fill="#100b30" stroke="#100b30"></path><path d="M101.9 303L145.8 303L156.8 262Z" fill="#5613e7" stroke="#5613e7"></path><path d="M469.5 0L424.5 0L457.5 46Z" fill="#4719cf" stroke="#4719cf"></path><path d="M388.6 33L369.6 0L317.6 54Z" fill="#131145" stroke="#131145"></path><path d="M536.4 33L469.5 0L457.5 46Z" fill="#1d1871" stroke="#1d1871"></path><path d="M206.8 519L274.7 500L244.7 462Z" fill="#5613e7" stroke="#5613e7"></path><path d="M424.5 0L369.6 0L388.6 33Z" fill="#17155b" stroke="#17155b"></path><path d="M488.5 600L514.4 569L469.5 539Z" fill="#3a1bb7" stroke="#3a1bb7"></path><path d="M469.5 539L514.4 569L527.4 497Z" fill="#1d1871" stroke="#1d1871"></path><path d="M435.5 600L469.5 539L427.5 546Z" fill="#17155b" stroke="#17155b"></path><path d="M435.5 600L427.5 546L383.6 551Z" fill="#5613e7" stroke="#5613e7"></path><path d="M722.2 217L683.2 260L734.2 243Z" fill="#251a88" stroke="#251a88"></path><path d="M687.2 215L699.2 166L645.3 188Z" fill="#1d1871" stroke="#1d1871"></path><path d="M655.3 537L633.3 504L588.4 517Z" fill="#1d1871" stroke="#1d1871"></path><path d="M588.4 517L633.3 504L626.3 463Z" fill="#5613e7" stroke="#5613e7"></path><path d="M736.2 315L672.2 283L681.2 336Z" fill="#17155b" stroke="#17155b"></path><path d="M729.2 414L730.2 331L685.2 387Z" fill="#6704ff" stroke="#6704ff"></path><path d="M685.2 387L730.2 331L681.2 336Z" fill="#4719cf" stroke="#4719cf"></path><path d="M254.7 69L193.8 94L248.7 117Z" fill="#4719cf" stroke="#4719cf"></path><path d="M191.8 153L144.8 164L158.8 210Z" fill="#6704ff" stroke="#6704ff"></path><path d="M210.8 33L193.8 94L254.7 69Z" fill="#3a1bb7" stroke="#3a1bb7"></path><path d="M576.4 0L536.4 33L576.4 59Z" fill="#5613e7" stroke="#5613e7"></path><path d="M536.4 33L533.4 0L469.5 0Z" fill="#6704ff" stroke="#6704ff"></path><path d="M140.8 396L211.8 446L223.8 418Z" fill="#2f1b9f" stroke="#2f1b9f"></path><path d="M211.8 446L206.8 519L244.7 462Z" fill="#6704ff" stroke="#6704ff"></path><path d="M140.8 396L223.8 418L166.8 354Z" fill="#4719cf" stroke="#4719cf"></path><path d="M706.2 119L620.3 81L644.3 146Z" fill="#09001c" stroke="#09001c"></path><path d="M620.3 81L637.3 60L576.4 59Z" fill="#6704ff" stroke="#6704ff"></path><path d="M736.2 315L734.2 243L683.2 260Z" fill="#1d1871" stroke="#1d1871"></path><path d="M731.2 167L706.2 119L699.2 166Z" fill="#5613e7" stroke="#5613e7"></path><path d="M672.2 507L699.2 435L626.3 463Z" fill="#09001c" stroke="#09001c"></path><path d="M788.1 263L736.2 315L807.1 298Z" fill="#5613e7" stroke="#5613e7"></path><path d="M730.2 331L736.2 315L681.2 336Z" fill="#1d1871" stroke="#1d1871"></path><path d="M93.9 335L140.8 396L166.8 354Z" fill="#3a1bb7" stroke="#3a1bb7"></path><path d="M514.4 569L571.4 561L527.4 497Z" fill="#100b30" stroke="#100b30"></path><path d="M369.6 0L312.6 0L317.6 54Z" fill="#131145" stroke="#131145"></path><path d="M169.8 108L144.8 164L191.8 153Z" fill="#131145" stroke="#131145"></path><path d="M88.9 244L101.9 303L156.8 262Z" fill="#09001c" stroke="#09001c"></path><path d="M145.8 303L93.9 335L166.8 354Z" fill="#09001c" stroke="#09001c"></path><path d="M381.6 600L435.5 600L383.6 551Z" fill="#09001c" stroke="#09001c"></path><path d="M514.4 569L538.4 600L571.4 561Z" fill="#251a88" stroke="#251a88"></path><path d="M381.6 600L383.6 551L313.6 544Z" fill="#2f1b9f" stroke="#2f1b9f"></path><path d="M148.8 42L169.8 108L193.8 94Z" fill="#1d1871" stroke="#1d1871"></path><path d="M193.8 94L169.8 108L191.8 153Z" fill="#6704ff" stroke="#6704ff"></path><path d="M296.6 600L381.6 600L313.6 544Z" fill="#1d1871" stroke="#1d1871"></path><path d="M435.5 600L488.5 600L469.5 539Z" fill="#6704ff" stroke="#6704ff"></path><path d="M637.3 60L576.4 0L576.4 59Z" fill="#100b30" stroke="#100b30"></path><path d="M177.8 462L206.8 519L211.8 446Z" fill="#4719cf" stroke="#4719cf"></path><path d="M272.7 600L296.6 600L313.6 544Z" fill="#1d1871" stroke="#1d1871"></path><path d="M159.8 513L206.8 519L177.8 462Z" fill="#09001c" stroke="#09001c"></path><path d="M731.2 167L699.2 166L722.2 217Z" fill="#3a1bb7" stroke="#3a1bb7"></path><path d="M699.2 166L706.2 119L644.3 146Z" fill="#100b30" stroke="#100b30"></path><path d="M637.3 60L647.3 0L576.4 0Z" fill="#17155b" stroke="#17155b"></path><path d="M797.1 209L731.2 167L722.2 217Z" fill="#09001c" stroke="#09001c"></path><path d="M750.2 465L729.2 414L699.2 435Z" fill="#131145" stroke="#131145"></path><path d="M699.2 435L729.2 414L685.2 387Z" fill="#251a88" stroke="#251a88"></path><path d="M633.3 504L672.2 507L626.3 463Z" fill="#1d1871" stroke="#1d1871"></path><path d="M655.3 537L672.2 507L633.3 504Z" fill="#4719cf" stroke="#4719cf"></path><path d="M88.9 244L156.8 262L158.8 210Z" fill="#6704ff" stroke="#6704ff"></path><path d="M169.8 108L124.9 162L144.8 164Z" fill="#4719cf" stroke="#4719cf"></path><path d="M144.8 164L124.9 162L158.8 210Z" fill="#3a1bb7" stroke="#3a1bb7"></path><path d="M488.5 600L538.4 600L514.4 569Z" fill="#131145" stroke="#131145"></path><path d="M571.4 561L655.3 537L588.4 517Z" fill="#5613e7" stroke="#5613e7"></path><path d="M312.6 0L259.7 0L317.6 54Z" fill="#131145" stroke="#131145"></path><path d="M259.7 0L210.8 33L254.7 69Z" fill="#5613e7" stroke="#5613e7"></path><path d="M169.8 108L105.9 87L124.9 162Z" fill="#6704ff" stroke="#6704ff"></path><path d="M623.3 600L655.3 537L571.4 561Z" fill="#100b30" stroke="#100b30"></path><path d="M672.2 507L750.2 465L699.2 435Z" fill="#4719cf" stroke="#4719cf"></path><path d="M41.9 298L93.9 335L101.9 303Z" fill="#5613e7" stroke="#5613e7"></path><path d="M101.9 303L93.9 335L145.8 303Z" fill="#1d1871" stroke="#1d1871"></path><path d="M84.9 463L159.8 513L177.8 462Z" fill="#3a1bb7" stroke="#3a1bb7"></path><path d="M272.7 600L313.6 544L271.7 529Z" fill="#131145" stroke="#131145"></path><path d="M96.9 192L88.9 244L158.8 210Z" fill="#5613e7" stroke="#5613e7"></path><path d="M124.9 162L96.9 192L158.8 210Z" fill="#09001c" stroke="#09001c"></path><path d="M61.9 204L96.9 192L48.9 161Z" fill="#1d1871" stroke="#1d1871"></path><path d="M538.4 600L581.4 600L571.4 561Z" fill="#1d1871" stroke="#1d1871"></path><path d="M211.8 564L272.7 600L271.7 529Z" fill="#2f1b9f" stroke="#2f1b9f"></path><path d="M84.9 463L177.8 462L140.8 396Z" fill="#09001c" stroke="#09001c"></path><path d="M206.8 519L211.8 564L271.7 529Z" fill="#131145" stroke="#131145"></path><path d="M159.8 513L211.8 564L206.8 519Z" fill="#131145" stroke="#131145"></path><path d="M737.2 106L697.2 54L706.2 119Z" fill="#100b30" stroke="#100b30"></path><path d="M706.2 119L697.2 54L637.3 60Z" fill="#1d1871" stroke="#1d1871"></path><path d="M804.1 158L737.2 106L731.2 167Z" fill="#6704ff" stroke="#6704ff"></path><path d="M731.2 167L737.2 106L706.2 119Z" fill="#09001c" stroke="#09001c"></path><path d="M797.1 209L722.2 217L734.2 243Z" fill="#251a88" stroke="#251a88"></path><path d="M807.1 298L736.2 315L805.1 367Z" fill="#17155b" stroke="#17155b"></path><path d="M736.2 315L788.1 263L734.2 243Z" fill="#17155b" stroke="#17155b"></path><path d="M682.2 0L647.3 0L637.3 60Z" fill="#251a88" stroke="#251a88"></path><path d="M93.9 335L89.9 408L140.8 396Z" fill="#5613e7" stroke="#5613e7"></path><path d="M34.9 364L89.9 408L93.9 335Z" fill="#1d1871" stroke="#1d1871"></path><path d="M259.7 0L207.8 0L210.8 33Z" fill="#1d1871" stroke="#1d1871"></path><path d="M210.8 33L148.8 42L193.8 94Z" fill="#3a1bb7" stroke="#3a1bb7"></path><path d="M754.2 510L750.2 465L672.2 507Z" fill="#2f1b9f" stroke="#2f1b9f"></path><path d="M729.2 414L784.1 391L730.2 331Z" fill="#1d1871" stroke="#1d1871"></path><path d="M672.2 569L672.2 507L655.3 537Z" fill="#6704ff" stroke="#6704ff"></path><path d="M581.4 600L623.3 600L571.4 561Z" fill="#17155b" stroke="#17155b"></path><path d="M750.2 465L784.1 391L729.2 414Z" fill="#4719cf" stroke="#4719cf"></path><path d="M158.8 0L148.8 42L210.8 33Z" fill="#5613e7" stroke="#5613e7"></path><path d="M623.3 600L672.2 569L655.3 537Z" fill="#2f1b9f" stroke="#2f1b9f"></path><path d="M836.1 247L797.1 209L788.1 263Z" fill="#2f1b9f" stroke="#2f1b9f"></path><path d="M788.1 263L797.1 209L734.2 243Z" fill="#251a88" stroke="#251a88"></path><path d="M90.9 520L143.8 532L159.8 513Z" fill="#100b30" stroke="#100b30"></path><path d="M159.8 513L143.8 532L211.8 564Z" fill="#5613e7" stroke="#5613e7"></path><path d="M211.8 564L207.8 600L272.7 600Z" fill="#100b30" stroke="#100b30"></path><path d="M96.9 192L61.9 204L88.9 244Z" fill="#1d1871" stroke="#1d1871"></path><path d="M88.9 244L41.9 298L101.9 303Z" fill="#5613e7" stroke="#5613e7"></path><path d="M48.9 161L96.9 192L124.9 162Z" fill="#2f1b9f" stroke="#2f1b9f"></path><path d="M805.1 367L736.2 315L730.2 331Z" fill="#100b30" stroke="#100b30"></path><path d="M148.8 42L105.9 87L169.8 108Z" fill="#5613e7" stroke="#5613e7"></path><path d="M737.2 106L743.2 70L697.2 54Z" fill="#6704ff" stroke="#6704ff"></path><path d="M697.2 54L682.2 0L637.3 60Z" fill="#3a1bb7" stroke="#3a1bb7"></path><path d="M796.1 98L743.2 70L737.2 106Z" fill="#5613e7" stroke="#5613e7"></path><path d="M752.2 0L682.2 0L697.2 54Z" fill="#131145" stroke="#131145"></path><path d="M150.8 600L207.8 600L211.8 564Z" fill="#251a88" stroke="#251a88"></path><path d="M833.1 381L805.1 367L784.1 391Z" fill="#3a1bb7" stroke="#3a1bb7"></path><path d="M784.1 391L805.1 367L730.2 331Z" fill="#3a1bb7" stroke="#3a1bb7"></path><path d="M89.9 408L84.9 463L140.8 396Z" fill="#5613e7" stroke="#5613e7"></path><path d="M64.9 435L84.9 463L89.9 408Z" fill="#3a1bb7" stroke="#3a1bb7"></path><path d="M35.9 230L41.9 298L88.9 244Z" fill="#17155b" stroke="#17155b"></path><path d="M31.9 381L64.9 435L89.9 408Z" fill="#09001c" stroke="#09001c"></path><path d="M207.8 0L158.8 0L210.8 33Z" fill="#4719cf" stroke="#4719cf"></path><path d="M148.8 42L107.9 54L105.9 87Z" fill="#17155b" stroke="#17155b"></path><path d="M737.2 553L754.2 510L672.2 507Z" fill="#251a88" stroke="#251a88"></path><path d="M840.1 445L833.1 381L784.1 391Z" fill="#5613e7" stroke="#5613e7"></path><path d="M797.1 209L804.1 158L731.2 167Z" fill="#131145" stroke="#131145"></path><path d="M847.1 201L804.1 158L797.1 209Z" fill="#17155b" stroke="#17155b"></path><path d="M117.9 0L107.9 54L148.8 42Z" fill="#131145" stroke="#131145"></path><path d="M0 198L35.9 230L61.9 204Z" fill="#100b30" stroke="#100b30"></path><path d="M48.9 161L124.9 162L59.9 119Z" fill="#09001c" stroke="#09001c"></path><path d="M61.9 204L35.9 230L88.9 244Z" fill="#251a88" stroke="#251a88"></path><path d="M59.9 119L124.9 162L105.9 87Z" fill="#131145" stroke="#131145"></path><path d="M0 320L34.9 364L41.9 298Z" fill="#3a1bb7" stroke="#3a1bb7"></path><path d="M41.9 298L34.9 364L93.9 335Z" fill="#100b30" stroke="#100b30"></path><path d="M69.9 42L59.9 119L105.9 87Z" fill="#5613e7" stroke="#5613e7"></path><path d="M623.3 600L687.2 600L672.2 569Z" fill="#4719cf" stroke="#4719cf"></path><path d="M672.2 569L737.2 553L672.2 507Z" fill="#17155b" stroke="#17155b"></path><path d="M687.2 600L737.2 553L672.2 569Z" fill="#6704ff" stroke="#6704ff"></path><path d="M847.1 319L836.1 247L807.1 298Z" fill="#6704ff" stroke="#6704ff"></path><path d="M807.1 298L836.1 247L788.1 263Z" fill="#100b30" stroke="#100b30"></path><path d="M0 358L31.9 381L34.9 364Z" fill="#4719cf" stroke="#4719cf"></path><path d="M34.9 364L31.9 381L89.9 408Z" fill="#17155b" stroke="#17155b"></path><path d="M68.9 518L84.9 463L0 485Z" fill="#251a88" stroke="#251a88"></path><path d="M68.9 518L90.9 520L84.9 463Z" fill="#3a1bb7" stroke="#3a1bb7"></path><path d="M84.9 463L90.9 520L159.8 513Z" fill="#100b30" stroke="#100b30"></path><path d="M143.8 532L150.8 600L211.8 564Z" fill="#17155b" stroke="#17155b"></path><path d="M834.1 99L796.1 98L804.1 158Z" fill="#4719cf" stroke="#4719cf"></path><path d="M804.1 158L796.1 98L737.2 106Z" fill="#251a88" stroke="#251a88"></path><path d="M743.2 70L752.2 0L697.2 54Z" fill="#2f1b9f" stroke="#2f1b9f"></path><path d="M812.1 465L784.1 391L750.2 465Z" fill="#09001c" stroke="#09001c"></path><path d="M805.1 367L847.1 319L807.1 298Z" fill="#5613e7" stroke="#5613e7"></path><path d="M781.1 510L750.2 465L754.2 510Z" fill="#4719cf" stroke="#4719cf"></path><path d="M737.2 553L781.1 510L754.2 510Z" fill="#100b30" stroke="#100b30"></path><path d="M862.1 350L847.1 319L805.1 367Z" fill="#6704ff" stroke="#6704ff"></path><path d="M107.9 600L150.8 600L143.8 532Z" fill="#4719cf" stroke="#4719cf"></path><path d="M781.1 510L812.1 465L750.2 465Z" fill="#09001c" stroke="#09001c"></path><path d="M158.8 0L117.9 0L148.8 42Z" fill="#5613e7" stroke="#5613e7"></path><path d="M107.9 54L69.9 42L105.9 87Z" fill="#09001c" stroke="#09001c"></path><path d="M900 230L847.1 201L836.1 247Z" fill="#17155b" stroke="#17155b"></path><path d="M836.1 247L847.1 201L797.1 209Z" fill="#100b30" stroke="#100b30"></path><path d="M0 485L84.9 463L64.9 435Z" fill="#251a88" stroke="#251a88"></path><path d="M90.9 520L87.9 564L143.8 532Z" fill="#251a88" stroke="#251a88"></path><path d="M0 244L0 320L41.9 298Z" fill="#17155b" stroke="#17155b"></path><path d="M31.9 381L0 416L64.9 435Z" fill="#3a1bb7" stroke="#3a1bb7"></path><path d="M0 244L41.9 298L35.9 230Z" fill="#1d1871" stroke="#1d1871"></path><path d="M0 244L35.9 230L0 198Z" fill="#3a1bb7" stroke="#3a1bb7"></path><path d="M783.1 36L743.2 70L796.1 98Z" fill="#131145" stroke="#131145"></path><path d="M783.1 36L752.2 0L743.2 70Z" fill="#5613e7" stroke="#5613e7"></path><path d="M0 198L61.9 204L48.9 161Z" fill="#2f1b9f" stroke="#2f1b9f"></path><path d="M834.1 99L783.1 36L796.1 98Z" fill="#2f1b9f" stroke="#2f1b9f"></path><path d="M117.9 0L69.9 42L107.9 54Z" fill="#251a88" stroke="#251a88"></path><path d="M0 151L0 198L48.9 161Z" fill="#131145" stroke="#131145"></path><path d="M0 320L0 358L34.9 364Z" fill="#1d1871" stroke="#1d1871"></path><path d="M833.1 381L862.1 350L805.1 367Z" fill="#251a88" stroke="#251a88"></path><path d="M847.1 319L900 302L836.1 247Z" fill="#6704ff" stroke="#6704ff"></path><path d="M900 344L862.1 350L900 383Z" fill="#09001c" stroke="#09001c"></path><path d="M0 151L48.9 161L59.9 119Z" fill="#1d1871" stroke="#1d1871"></path><path d="M830.1 520L840.1 445L812.1 465Z" fill="#131145" stroke="#131145"></path><path d="M812.1 465L840.1 445L784.1 391Z" fill="#2f1b9f" stroke="#2f1b9f"></path><path d="M32.9 543L87.9 564L68.9 518Z" fill="#4719cf" stroke="#4719cf"></path><path d="M68.9 518L87.9 564L90.9 520Z" fill="#6704ff" stroke="#6704ff"></path><path d="M900 203L852.1 163L847.1 201Z" fill="#3a1bb7" stroke="#3a1bb7"></path><path d="M847.1 201L852.1 163L804.1 158Z" fill="#3a1bb7" stroke="#3a1bb7"></path><path d="M852.1 163L834.1 99L804.1 158Z" fill="#100b30" stroke="#100b30"></path><path d="M0 358L0 416L31.9 381Z" fill="#09001c" stroke="#09001c"></path><path d="M58.9 600L107.9 600L87.9 564Z" fill="#3a1bb7" stroke="#3a1bb7"></path><path d="M87.9 564L107.9 600L143.8 532Z" fill="#251a88" stroke="#251a88"></path><path d="M0 97L0 151L59.9 119Z" fill="#100b30" stroke="#100b30"></path><path d="M737.2 553L812.1 547L781.1 510Z" fill="#17155b" stroke="#17155b"></path><path d="M781.1 510L830.1 520L812.1 465Z" fill="#1d1871" stroke="#1d1871"></path><path d="M687.2 600L757.2 600L737.2 553Z" fill="#100b30" stroke="#100b30"></path><path d="M830.1 0L786.1 0L783.1 36Z" fill="#251a88" stroke="#251a88"></path><path d="M783.1 36L786.1 0L752.2 0Z" fill="#5613e7" stroke="#5613e7"></path><path d="M0 416L0 450L64.9 435Z" fill="#131145" stroke="#131145"></path><path d="M117.9 0L66.9 0L69.9 42Z" fill="#131145" stroke="#131145"></path><path d="M69.9 42L0 97L59.9 119Z" fill="#100b30" stroke="#100b30"></path><path d="M782.1 600L812.1 547L737.2 553Z" fill="#131145" stroke="#131145"></path><path d="M812.1 547L830.1 520L781.1 510Z" fill="#2f1b9f" stroke="#2f1b9f"></path><path d="M900 344L847.1 319L862.1 350Z" fill="#6704ff" stroke="#6704ff"></path><path d="M0 49L0 97L69.9 42Z" fill="#251a88" stroke="#251a88"></path><path d="M862.1 350L833.1 381L900 383Z" fill="#2f1b9f" stroke="#2f1b9f"></path><path d="M900 344L900 302L847.1 319Z" fill="#2f1b9f" stroke="#2f1b9f"></path><path d="M852.1 163L900 135L834.1 99Z" fill="#4719cf" stroke="#4719cf"></path><path d="M812.1 547L842.1 564L830.1 520Z" fill="#3a1bb7" stroke="#3a1bb7"></path><path d="M757.2 600L782.1 600L737.2 553Z" fill="#2f1b9f" stroke="#2f1b9f"></path><path d="M0 485L32.9 543L68.9 518Z" fill="#2f1b9f" stroke="#2f1b9f"></path><path d="M0 450L0 485L64.9 435Z" fill="#131145" stroke="#131145"></path><path d="M900 302L900 230L836.1 247Z" fill="#4719cf" stroke="#4719cf"></path><path d="M862.1 41L830.1 0L783.1 36Z" fill="#17155b" stroke="#17155b"></path><path d="M900 383L833.1 381L840.1 445Z" fill="#5613e7" stroke="#5613e7"></path><path d="M900 230L900 203L847.1 201Z" fill="#17155b" stroke="#17155b"></path><path d="M900 450L900 383L840.1 445Z" fill="#100b30" stroke="#100b30"></path><path d="M0 600L58.9 600L32.9 543Z" fill="#5613e7" stroke="#5613e7"></path><path d="M32.9 543L58.9 600L87.9 564Z" fill="#2f1b9f" stroke="#2f1b9f"></path><path d="M0 0L0 49L69.9 42Z" fill="#2f1b9f" stroke="#2f1b9f"></path><path d="M862.1 41L783.1 36L834.1 99Z" fill="#3a1bb7" stroke="#3a1bb7"></path><path d="M900 203L900 135L852.1 163Z" fill="#6704ff" stroke="#6704ff"></path><path d="M0 485L0 535L32.9 543Z" fill="#3a1bb7" stroke="#3a1bb7"></path><path d="M840.1 600L842.1 564L812.1 547Z" fill="#5613e7" stroke="#5613e7"></path><path d="M900 505L900 450L840.1 445Z" fill="#3a1bb7" stroke="#3a1bb7"></path><path d="M900 82L862.1 41L834.1 99Z" fill="#6704ff" stroke="#6704ff"></path><path d="M900 505L840.1 445L830.1 520Z" fill="#5613e7" stroke="#5613e7"></path><path d="M900 135L900 82L834.1 99Z" fill="#09001c" stroke="#09001c"></path><path d="M862.1 41L900 0L830.1 0Z" fill="#131145" stroke="#131145"></path><path d="M66.9 0L0 0L69.9 42Z" fill="#2f1b9f" stroke="#2f1b9f"></path><path d="M782.1 600L840.1 600L812.1 547Z" fill="#100b30" stroke="#100b30"></path><path d="M900 555L900 505L830.1 520Z" fill="#5613e7" stroke="#5613e7"></path><path d="M900 555L830.1 520L842.1 564Z" fill="#3a1bb7" stroke="#3a1bb7"></path><path d="M0 535L0 600L32.9 543Z" fill="#3a1bb7" stroke="#3a1bb7"></path><path d="M900 82L900 37L862.1 41Z" fill="#5613e7" stroke="#5613e7"></path><path d="M900 600L900 555L842.1 564Z" fill="#09001c" stroke="#09001c"></path><path d="M900 37L900 0L862.1 41Z" fill="#4719cf" stroke="#4719cf"></path><path d="M840.1 600L900 600L842.1 564Z" fill="#251a88" stroke="#251a88"></path></g></svg>