<svg width="668" height="668" viewBox="0 0 668 668" fill="none" xmlns="http://www.w3.org/2000/svg">
<path fill-rule="evenodd" clip-rule="evenodd" d="M334 0.666748C149.905 0.666748 0.666748 149.905 0.666748 334C0.666748 518.093 149.905 667.333 334 667.333C518.093 667.333 667.333 518.093 667.333 334C667.333 149.905 518.093 0.666748 334 0.666748ZM308.247 219.635L241.079 273.123C212.898 295.563 198.808 306.787 201.558 319.313L201.705 319.933C204.838 332.383 222.699 337.17 258.42 346.743C278.27 352.06 288.197 354.72 292.853 362.243L293.09 362.64C297.583 370.253 295.027 379.79 289.917 398.863L288.58 403.847C274.41 456.727 267.326 483.163 280.97 491.703C294.613 500.24 316.323 482.953 359.743 448.38L426.91 394.89C455.09 372.45 469.18 361.23 466.43 348.7L466.287 348.08C463.15 335.63 445.29 330.843 409.57 321.273C389.72 315.953 379.793 313.293 375.137 305.77L374.9 305.373C370.407 297.76 372.963 288.223 378.073 269.153L379.41 264.167C393.577 211.288 400.663 184.849 387.017 176.31C373.373 167.772 351.663 185.06 308.247 219.635Z" fill="#F7F7F7"/>
</svg>
