<svg xmlns="http://www.w3.org/2000/svg" version="1.1" xmlns:xlink="http://www.w3.org/1999/xlink" xmlns:svgjs="http://svgjs.dev/svgjs" width="1440" height="560" preserveAspectRatio="none" viewBox="0 0 1440 560"><g mask="url(&quot;#SvgjsMask1008&quot;)" fill="none"><rect width="1440" height="560" x="0" y="0" fill="#0e2a47"></rect><path d="M 0,135 C 57.6,158.2 172.8,263.8 288,251 C 403.2,238.2 460.8,67.6 576,71 C 691.2,74.4 748.8,275.4 864,268 C 979.2,260.6 1036.8,34.8 1152,34 C 1267.2,33.2 1382.4,218 1440,264L1440 560L0 560z" fill="#184a7e"></path><path d="M 0,427 C 96,415 288,351.6 480,367 C 672,382.4 768,495.2 960,504 C 1152,512.8 1344,429.6 1440,411L1440 560L0 560z" fill="#2264ab"></path></g><defs><mask id="SvgjsMask1008"><rect width="1440" height="560" fill="#ffffff"></rect></mask></defs></svg>