<svg width="145" height="32" viewBox="0 0 145 32" fill="none" xmlns="http://www.w3.org/2000/svg">
<path d="M38.7808 15.5127C38.7808 11.3985 37.1464 7.45275 34.2372 4.54356C31.328 1.63437 27.3823 5.39515e-07 23.2681 0C19.1539 -5.39514e-07 15.2082 1.63437 12.299 4.54356C9.38974 7.45275 7.75537 11.3985 7.75537 15.5127H12.6032C14.2096 15.5127 15.4624 14.1665 16.0508 12.6717C16.4371 11.6903 17.0233 10.7884 17.7835 10.0281C19.2381 8.57352 21.211 7.75634 23.2681 7.75634C25.3252 7.75634 27.2981 8.57352 28.7527 10.0281C30.2073 11.4827 31.0244 13.4556 31.0244 15.5127H38.7808Z" fill="url(#paint0_linear_184_66)"/>
<path d="M29.8444 21.4491C30.624 19.567 31.0253 17.5498 31.0253 15.5127H38.7808C38.7808 24.0801 31.8355 31.0253 23.2681 31.0253C21.9264 31.0253 20.6244 30.855 19.3828 30.5348C20.0853 30.3538 20.7758 30.1233 21.449 29.8445C23.3311 29.0649 25.0412 27.9223 26.4817 26.4818C27.9222 25.0413 29.0649 23.3312 29.8444 21.4491Z" fill="#FBCF8E"/>
<path d="M0 15.5127C-2.91433e-07 17.5499 0.401247 19.5671 1.18083 21.4492C1.96042 23.3313 3.10307 25.0414 4.54356 26.4819C5.98404 27.9223 7.69415 29.065 9.57623 29.8446C11.4583 30.6242 13.4755 31.0254 15.5127 31.0254C17.5498 31.0254 19.567 30.6242 21.4491 29.8446C23.3312 29.065 25.0413 27.9223 26.4818 26.4819C27.9223 25.0414 29.0649 23.3313 29.8445 21.4492C30.6241 19.5671 31.0254 17.5499 31.0254 15.5127H26.1776C24.5712 15.5127 23.3184 16.8589 22.73 18.3536C22.7133 18.3962 22.6961 18.4386 22.6786 18.481C22.2888 19.422 21.7175 20.2771 20.9972 20.9973C20.277 21.7175 19.4219 22.2889 18.4809 22.6787C17.5399 23.0685 16.5313 23.2691 15.5127 23.2691C14.4941 23.2691 13.4855 23.0685 12.5445 22.6787C11.6034 22.2889 10.7484 21.7175 10.0281 20.9973C9.30787 20.2771 8.73655 19.422 8.34676 18.481C7.95696 17.5399 7.75634 16.5313 7.75634 15.5127H0Z" fill="url(#paint1_linear_184_66)"/>
<path d="M142.15 8.23762C141.533 8.23762 140.999 8.02183 140.547 7.59026C140.095 7.13813 139.869 6.59352 139.869 5.95643C139.869 5.33989 140.095 4.81583 140.547 4.38425C140.999 3.93212 141.533 3.70605 142.15 3.70605C142.787 3.70605 143.321 3.93212 143.753 4.38425C144.184 4.81583 144.4 5.33989 144.4 5.95643C144.4 6.59352 144.184 7.13813 143.753 7.59026C143.321 8.02183 142.787 8.23762 142.15 8.23762ZM140.454 27.0113V11.5978H143.845V27.0113H140.454Z" fill="#F6F6F6"/>
<path d="M128 27.3197C126.233 27.3197 124.835 26.734 123.807 25.5625C122.78 24.3706 122.266 22.7881 122.266 20.8152V11.5979H125.657V20.2603C125.657 21.4934 125.924 22.4696 126.459 23.1889C126.993 23.8876 127.753 24.237 128.74 24.237C129.891 24.237 130.805 23.8054 131.483 22.9422C132.162 22.0585 132.501 20.8049 132.501 19.1813V11.5979H135.892V27.0114H132.501V24.9152C131.596 26.5182 130.096 27.3197 128 27.3197Z" fill="#F6F6F6"/>
<path d="M107.569 27.0114H104.178V3.89111H107.569V13.6941C108.535 12.0911 110.097 11.2896 112.255 11.2896C114.043 11.2896 115.471 11.8753 116.54 13.0467C117.609 14.2182 118.143 15.7801 118.143 17.7324V27.0114H114.752V18.2873C114.752 17.0542 114.464 16.0986 113.889 15.4204C113.313 14.7217 112.532 14.3723 111.546 14.3723C110.374 14.3723 109.419 14.8141 108.679 15.6979C107.939 16.5816 107.569 17.8249 107.569 19.4279V27.0114Z" fill="#F6F6F6"/>
<path d="M98.4345 27.1653C96.8726 27.1653 95.5984 26.7338 94.6119 25.8706C93.646 24.9869 93.163 23.7127 93.163 22.048V14.6187H89.957V11.5977H93.163V7.31274H96.554V11.5977H100.962V14.6187H96.554V21.4932C96.554 22.4385 96.7595 23.1167 97.1705 23.5277C97.5816 23.9182 98.2392 24.1135 99.1435 24.1135C99.8833 24.1135 100.49 24.0107 100.962 23.8052V26.8262C100.222 27.0523 99.3798 27.1653 98.4345 27.1653Z" fill="#F6F6F6"/>
<path d="M86.2929 25.0076C84.7516 26.5489 82.8403 27.3196 80.5591 27.3196C78.2779 27.3196 76.3563 26.5489 74.7944 25.0076C73.2531 23.4457 72.4824 21.5447 72.4824 19.3046C72.4824 17.0645 73.2531 15.1738 74.7944 13.6324C76.3563 12.0705 78.2779 11.2896 80.5591 11.2896C82.8403 11.2896 84.7516 12.0705 86.2929 13.6324C87.8548 15.1738 88.6358 17.0645 88.6358 19.3046C88.6358 21.5447 87.8548 23.4457 86.2929 25.0076ZM80.5591 24.1752C81.8949 24.1752 82.9944 23.7128 83.8576 22.788C84.7413 21.8427 85.1831 20.6815 85.1831 19.3046C85.1831 17.9276 84.7413 16.7768 83.8576 15.8519C82.9944 14.9066 81.8949 14.4339 80.5591 14.4339C79.2027 14.4339 78.0827 14.9066 77.199 15.8519C76.3358 16.7768 75.9042 17.9276 75.9042 19.3046C75.9042 20.6815 76.3358 21.8427 77.199 22.788C78.0827 23.7128 79.2027 24.1752 80.5591 24.1752Z" fill="#F6F6F6"/>
<path d="M65.6445 27.0114V3.89111H69.0355V27.0114H65.6445Z" fill="#F6F6F6"/>
<path d="M56.5478 27.3196C55.1297 27.3196 53.8761 27.0524 52.7869 26.5181C51.6977 25.9632 50.8859 25.1412 50.3516 24.0519L52.8485 22.264C53.1568 22.9216 53.6501 23.4457 54.3282 23.8361C55.0064 24.2061 55.7463 24.391 56.5478 24.391C57.1849 24.391 57.7089 24.2472 58.12 23.9594C58.5515 23.6717 58.7673 23.271 58.7673 22.7572C58.7673 22.3051 58.5926 21.9351 58.2433 21.6474C57.9145 21.3597 57.2979 21.072 56.3937 20.7843L55.0373 20.4143C52.3039 19.6745 50.9578 18.1023 50.9989 15.6978C50.9989 14.362 51.523 13.2933 52.5711 12.4918C53.6192 11.6903 54.9345 11.2896 56.517 11.2896C58.9009 11.2896 60.6375 12.163 61.7267 13.9098L59.3839 15.6978C58.6029 14.6497 57.6267 14.1256 56.4553 14.1256C55.9004 14.1256 55.4175 14.2592 55.0064 14.5264C54.5954 14.773 54.3899 15.1224 54.3899 15.5745C54.3899 15.9855 54.5235 16.3349 54.7907 16.6226C55.0578 16.9103 55.5408 17.1672 56.2395 17.3933L57.8117 17.8557C59.2503 18.2873 60.3292 18.873 61.0485 19.6128C61.7678 20.3321 62.1275 21.3083 62.1275 22.5414C62.1275 24.0006 61.6034 25.1617 60.5553 26.0249C59.5072 26.888 58.1713 27.3196 56.5478 27.3196Z" fill="#F6F6F6"/>
<defs>
<linearGradient id="paint0_linear_184_66" x1="38.7808" y1="7.75634" x2="7.75537" y2="7.75634" gradientUnits="userSpaceOnUse">
<stop stop-color="#73E5E2"/>
<stop offset="1" stop-color="#394F87"/>
</linearGradient>
<linearGradient id="paint1_linear_184_66" x1="1.01712e-06" y1="23.2691" x2="31.0254" y2="23.2691" gradientUnits="userSpaceOnUse">
<stop stop-color="#FBDC8E"/>
<stop offset="1" stop-color="#FB958E"/>
</linearGradient>
</defs>
</svg>
