<svg width="712" height="800" viewBox="0 0 712 800" fill="none" xmlns="http://www.w3.org/2000/svg">
<path d="M709.48 385.074C705.647 367.077 694.662 350.455 676.473 339.955L611.452 302.414L501.267 238.75L104.062 9.40647C70.5984 -9.90915 31.15 2.19553 11.8344 30.4877C4.48906 41.3737 0 54.7049 0 69.5299V450.342C57.3141 455.208 115.978 457.758 175.705 457.758C250.68 457.758 323.908 453.627 394.952 446.031L352.722 400.228L394.969 446.031C506.231 434.139 611.823 413.36 709.48 385.074Z" fill="#3CB65A"/>
<path d="M352.588 400.081L21.9 758.517L11.8344 769.536C5.57656 760.288 1.35938 749.267 0.407813 737.027C0.135938 734.852 0 732.672 0 730.497V69.5297C0 54.7047 4.48906 41.3735 11.8344 30.4875L352.588 400.081Z" fill="#5677BA"/>
<path d="M711.025 401.984C710.481 424.567 698.919 447.147 676.473 460.069L501.267 561.273L352.587 400.081L501.267 238.75L611.451 302.414L676.473 339.955C700.278 353.697 711.842 377.908 711.025 401.984Z" fill="#F7B529"/>
<path d="M11.8608 769.519C31.1858 797.825 70.6093 809.891 104.011 790.606L501.211 561.281L352.53 400.017L11.8608 769.519Z" fill="#EF3F3F"/>
</svg>
