<svg width="330" height="80" viewBox="0 0 330 80" fill="none" xmlns="http://www.w3.org/2000/svg">
<path d="M324.447 58.3615V44.2113C324.447 42.1635 324.061 40.5689 323.289 39.4275C322.55 38.2861 321.442 37.7153 319.965 37.7153C318.186 37.7153 316.759 38.4036 315.685 39.78C314.61 41.1564 314.04 43.0867 313.973 45.571V58.3615H308.433V44.2113C308.433 42.1635 308.047 40.5689 307.275 39.4275C306.537 38.2861 305.429 37.7153 303.952 37.7153C302.105 37.7153 300.628 38.4371 299.52 39.8807C298.446 41.3242 297.909 43.3553 297.909 45.9738V58.3615H292.37V33.1833H297.909V36.6075C299.453 33.989 301.837 32.6797 305.059 32.6797C308.853 32.6797 311.455 34.3415 312.865 37.665C313.57 36.0872 314.644 34.8618 316.088 33.989C317.565 33.1161 319.176 32.6797 320.922 32.6797C323.742 32.6797 325.957 33.6365 327.569 35.55C329.18 37.4636 329.986 40.0485 329.986 43.3049V58.3615H324.447Z" fill="white" fill-opacity="0.96"/>
<path d="M271.773 58.8651C268.349 58.8651 265.462 57.5894 263.112 55.038C260.795 52.4866 259.637 49.3981 259.637 45.7724C259.637 42.1467 260.795 39.0582 263.112 36.5068C265.462 33.9554 268.349 32.6797 271.773 32.6797C273.485 32.6797 275.063 33.0658 276.506 33.8379C277.95 34.5765 279.058 35.4829 279.83 36.5571V33.1833H285.369V58.3615H279.83V54.9876C279.058 56.0619 277.95 56.9851 276.506 57.7573C275.063 58.4958 273.485 58.8651 271.773 58.8651ZM267.392 51.513C268.802 53.0573 270.598 53.8294 272.78 53.8294C274.962 53.8294 276.758 53.0573 278.168 51.513C279.578 49.9688 280.283 48.0552 280.283 45.7724C280.283 43.4896 279.578 41.576 278.168 40.0317C276.758 38.4875 274.962 37.7153 272.78 37.7153C270.598 37.7153 268.802 38.4875 267.392 40.0317C265.982 41.576 265.277 43.4896 265.277 45.7724C265.277 48.0552 265.982 49.9688 267.392 51.513Z" fill="white" fill-opacity="0.96"/>
<path d="M243.66 58.3598V33.1815H249.199V37.6632C249.669 36.2532 250.525 35.1118 251.767 34.239C253.043 33.3661 254.402 32.9297 255.846 32.9297C256.719 32.9297 257.441 32.9968 258.011 33.1311V38.8214C257.206 38.5193 256.282 38.3682 255.242 38.3682C253.563 38.3682 252.136 39.0564 250.961 40.4328C249.786 41.7757 249.199 43.6556 249.199 46.0728V58.3598H243.66Z" fill="white" fill-opacity="0.96"/>
<path d="M224.169 69.3896C220.745 69.3896 217.925 68.5504 215.71 66.8718C213.527 65.1932 212.269 63.0111 211.933 60.3254H217.371C218.345 63.2126 220.661 64.6561 224.321 64.6561C226.301 64.6561 227.929 64.0015 229.205 62.6922C230.514 61.4165 231.169 59.6037 231.169 57.2537V54.2827C230.363 55.4241 229.239 56.3641 227.795 57.1026C226.352 57.8412 224.79 58.2105 223.112 58.2105C219.721 58.2105 216.851 56.9851 214.501 54.5344C212.185 52.0502 211.026 49.012 211.026 45.4199C211.026 41.8614 212.185 38.8568 214.501 36.4061C216.851 33.9218 219.721 32.6797 223.112 32.6797C224.79 32.6797 226.352 33.049 227.795 33.7875C229.239 34.4925 230.363 35.4157 231.169 36.5571V33.1833H236.708V56.8005C236.708 60.9633 235.516 64.1022 233.133 66.2172C230.783 68.3321 227.795 69.3896 224.169 69.3896ZM218.781 50.9591C220.225 52.4027 222.004 53.1245 224.119 53.1245C226.234 53.1245 228.013 52.4027 229.457 50.9591C230.9 49.482 231.622 47.6356 231.622 45.4199C231.622 43.2042 230.9 41.3746 229.457 39.931C228.013 38.4539 226.234 37.7153 224.119 37.7153C222.004 37.7153 220.225 38.4539 218.781 39.931C217.338 41.3746 216.616 43.2042 216.616 45.4199C216.616 47.6356 217.338 49.482 218.781 50.9591Z" fill="white" fill-opacity="0.96"/>
<path d="M192.192 58.8651C188.768 58.8651 185.88 57.5894 183.531 55.038C181.214 52.4866 180.056 49.3981 180.056 45.7724C180.056 42.1467 181.214 39.0582 183.531 36.5068C185.88 33.9554 188.768 32.6797 192.192 32.6797C193.904 32.6797 195.482 33.0658 196.925 33.8379C198.369 34.5765 199.477 35.4829 200.249 36.5571V33.1833H205.788V58.3615H200.249V54.9876C199.477 56.0619 198.369 56.9851 196.925 57.7573C195.482 58.4958 193.904 58.8651 192.192 58.8651ZM187.811 51.513C189.221 53.0573 191.017 53.8294 193.199 53.8294C195.381 53.8294 197.177 53.0573 198.587 51.513C199.997 49.9688 200.702 48.0552 200.702 45.7724C200.702 43.4896 199.997 41.576 198.587 40.0317C197.177 38.4875 195.381 37.7153 193.199 37.7153C191.017 37.7153 189.221 38.4875 187.811 40.0317C186.401 41.576 185.696 43.4896 185.696 45.7724C185.696 48.0552 186.401 49.9688 187.811 51.513Z" fill="white" fill-opacity="0.96"/>
<path d="M173.334 58.6132C170.783 58.6132 168.701 57.9082 167.09 56.4982C165.512 55.0547 164.723 52.9733 164.723 50.254V38.1181H159.486V33.1832H164.723V26.1836H170.262V33.1832H177.463V38.1181H170.262V49.3476C170.262 50.8919 170.598 51.9997 171.27 52.6712C171.941 53.309 173.015 53.6279 174.492 53.6279C175.701 53.6279 176.691 53.4601 177.463 53.1244V58.0593C176.255 58.4286 174.878 58.6132 173.334 58.6132Z" fill="white" fill-opacity="0.96"/>
<path d="M141.81 58.8651C138.385 58.8651 135.498 57.5894 133.148 55.038C130.832 52.4866 129.674 49.3981 129.674 45.7724C129.674 42.1467 130.832 39.0582 133.148 36.5068C135.498 33.9554 138.385 32.6797 141.81 32.6797C143.522 32.6797 145.099 33.0658 146.543 33.8379C147.987 34.5765 149.094 35.4829 149.867 36.5571V33.1833H155.406V58.3615H149.867V54.9876C149.094 56.0619 147.987 56.9851 146.543 57.7573C145.099 58.4958 143.522 58.8651 141.81 58.8651ZM137.428 51.513C138.838 53.0573 140.635 53.8294 142.817 53.8294C144.999 53.8294 146.795 53.0573 148.205 51.513C149.615 49.9688 150.32 48.0552 150.32 45.7724C150.32 43.4896 149.615 41.576 148.205 40.0317C146.795 38.4875 144.999 37.7153 142.817 37.7153C140.635 37.7153 138.838 38.4875 137.428 40.0317C136.019 41.576 135.314 43.4896 135.314 45.7724C135.314 48.0552 136.019 49.9688 137.428 51.513Z" fill="white" fill-opacity="0.96"/>
<path d="M96.4509 58.3606V22.6074H107.429C112.733 22.6074 117.181 24.3195 120.773 27.7438C124.365 31.168 126.161 35.4148 126.161 40.484C126.161 45.5532 124.365 49.8 120.773 53.2242C117.181 56.6485 112.733 58.3606 107.429 58.3606H96.4509ZM102.343 52.8717H107.429C111.189 52.8717 114.244 51.6967 116.594 49.3468C118.977 46.9968 120.169 44.0425 120.169 40.484C120.169 36.9255 118.977 33.9712 116.594 31.6212C114.244 29.2713 111.189 28.0963 107.429 28.0963H102.343V52.8717Z" fill="white" fill-opacity="0.96"/>
<path fill-rule="evenodd" clip-rule="evenodd" d="M31.4051 78.9914L0.907959 61.4441L1.04386 15.6822L48.026 0.886719L78.5232 18.434L78.3873 64.196L31.4051 78.9914ZM32.219 32.0015L43.6242 28.4093L43.6777 10.3804L11.9867 20.3628L32.219 32.0015ZM51.3802 25.9666L67.3381 20.9405L51.4224 11.7811L51.3802 25.9666ZM8.67905 53.9204L30.0082 47.2034L30.0437 35.223L8.77092 22.9831L8.67905 53.9204ZM70.6669 54.664L70.7582 23.9251L51.3682 30.0312L51.3281 43.5368L70.6669 54.664ZM33.8861 45.9823L43.581 42.9292L43.6121 32.4737L33.9172 35.5269L33.8861 45.9823ZM33.8144 70.1139L64.9436 60.3105L46.9889 49.9798L33.862 54.1137L33.8144 70.1139ZM29.9428 69.2116L29.984 55.335L14.3739 60.2508L29.9428 69.2116Z" fill="#7C25F7"/>
</svg>
