<svg width="48" height="48" viewBox="0 0 48 48" fill="none" xmlns="http://www.w3.org/2000/svg">
<path d="M40.2915 6.66309C40.5466 6.71516 40.7387 6.94043 40.7388 7.21094V38.6807C40.7385 40.154 39.5441 41.3485 38.0708 41.3486C36.5973 41.3486 35.4031 40.1541 35.4028 38.6807V21.249C35.367 21.3032 35.332 21.358 35.2944 21.4111L24.2759 36.9893C24.1657 37.145 23.9871 37.2383 23.7964 37.2383C23.6071 37.2382 23.4292 37.1469 23.3188 36.9932L12.5073 21.9268V38.7256C12.5072 40.1741 11.3329 41.3486 9.88428 41.3486C8.43568 41.3486 7.26132 40.1742 7.26123 38.7256V7.18066C7.26147 6.8885 7.49826 6.65161 7.79053 6.65137C7.94137 6.65137 8.08432 6.71566 8.18408 6.82617L8.22412 6.87598L23.8794 29.1006L39.7231 6.88574L39.7661 6.83398C39.8714 6.7186 40.0209 6.65137 40.1792 6.65137L40.2915 6.66309Z" fill="#292929" stroke="#292929"/>
</svg>
