<svg width="120" height="48" viewBox="0 0 120 48" fill="none" xmlns="http://www.w3.org/2000/svg">
<path d="M116.94 32.2132C115.141 32.2132 113.659 31.7226 112.493 30.7412C111.349 29.7395 110.776 28.2982 110.776 26.4173V20.7134H107.709V16.6961H110.776V12.4335H115.407V16.6961H119.7V20.7134H115.407V25.4666C115.407 26.3866 115.611 27.0511 116.02 27.46C116.429 27.8688 117.093 28.0733 118.013 28.0733C118.708 28.0733 119.271 27.9813 119.7 27.7973V31.9066C119.025 32.111 118.105 32.2132 116.94 32.2132Z" fill="#292929"/>
<path d="M96.5079 32.3662C94.5248 32.3662 92.8382 31.5791 91.448 30.0049C90.0782 28.4307 89.3933 26.5498 89.3933 24.3623C89.3933 22.1748 90.0782 20.2939 91.448 18.7197C92.8382 17.1455 94.5248 16.3584 96.5079 16.3584C98.2661 16.3584 99.6563 16.9819 100.679 18.229V16.6957H105.309V32.0289H100.679V30.4956C99.6563 31.7426 98.2661 32.3662 96.5079 32.3662ZM95.0052 27.0916C95.6595 27.8071 96.5079 28.1649 97.5505 28.1649C98.5932 28.1649 99.4314 27.8071 100.065 27.0916C100.719 26.3761 101.047 25.4663 101.047 24.3623C101.047 23.2583 100.719 22.3485 100.065 21.633C99.4314 20.9175 98.5932 20.5597 97.5505 20.5597C96.5079 20.5597 95.6595 20.9175 95.0052 21.633C94.3715 22.3485 94.0546 23.2583 94.0546 24.3623C94.0546 25.4663 94.3715 26.3761 95.0052 27.0916Z" fill="#292929"/>
<path d="M76.4958 32.0291H71.8652V9.02942H76.4958V18.26C77.3749 16.9924 78.7958 16.3587 80.7585 16.3587C82.6189 16.3587 84.0704 16.9822 85.1131 18.2293C86.1762 19.4764 86.7077 21.1222 86.7077 23.1666V32.0291H82.0771V23.9639C82.0771 21.6946 81.2491 20.5599 79.5931 20.5599C78.6731 20.5599 77.9269 20.8973 77.3545 21.5719C76.7821 22.2466 76.4958 23.2484 76.4958 24.5772V32.0291Z" fill="#292929"/>
<path d="M62.0627 32.3662C59.773 32.3662 57.841 31.6098 56.2668 30.0969C54.6926 28.584 53.9055 26.6725 53.9055 24.3623C53.9055 22.0521 54.6926 20.1406 56.2668 18.6277C57.841 17.1148 59.773 16.3584 62.0627 16.3584C63.6369 16.3584 65.0885 16.7673 66.4174 17.585C67.7462 18.4028 68.7378 19.4864 69.392 20.8357L65.344 22.9823C64.6694 21.449 63.5756 20.6823 62.0627 20.6823C61.0814 20.6823 60.2534 21.0299 59.5788 21.725C58.9041 22.4201 58.5668 23.2992 58.5668 24.3623C58.5668 25.4254 58.9041 26.3045 59.5788 26.9996C60.2534 27.6947 61.0814 28.0423 62.0627 28.0423C63.5756 28.0423 64.6694 27.2756 65.344 25.7423L69.392 27.8889C68.7378 29.2382 67.7462 30.3218 66.4174 31.1395C65.0885 31.9573 63.6369 32.3662 62.0627 32.3662Z" fill="#292929"/>
<path d="M43.9821 38.4383H38.9835L42.1728 31.1397L35.7942 16.6959H40.8541L44.6567 26.1718L48.4287 16.6959H53.5193L43.9821 38.4383Z" fill="#292929"/>
<path d="M19.7268 32.0289V16.6957H24.3574V18.2597C25.2365 16.9922 26.6574 16.3584 28.62 16.3584C30.4804 16.3584 31.932 16.9819 32.9746 18.229C34.0377 19.4761 34.5693 21.1219 34.5693 23.1663V32.0289H29.9387V23.9636C29.9387 21.6943 29.1107 20.5597 27.4547 20.5597C26.5347 20.5597 25.7885 20.897 25.2161 21.5717C24.6436 22.2463 24.3574 23.2481 24.3574 24.577V32.0289H19.7268Z" fill="#292929"/>
<path d="M7.11458 32.3662C5.13149 32.3662 3.44485 31.5791 2.05464 30.0049C0.68488 28.4307 0 26.5498 0 24.3623C0 22.1748 0.68488 20.2939 2.05464 18.7197C3.44485 17.1455 5.13149 16.3584 7.11458 16.3584C8.87278 16.3584 10.263 16.9819 11.2852 18.229V16.6957H15.9158V32.0289H11.2852V30.4956C10.263 31.7426 8.87278 32.3662 7.11458 32.3662ZM5.61193 27.0916C6.26614 27.8071 7.11458 28.1649 8.15723 28.1649C9.19988 28.1649 10.0381 27.8071 10.6719 27.0916C11.3261 26.3761 11.6532 25.4663 11.6532 24.3623C11.6532 23.2583 11.3261 22.3485 10.6719 21.633C10.0381 20.9175 9.19988 20.5597 8.15723 20.5597C7.11458 20.5597 6.26614 20.9175 5.61193 21.633C4.97816 22.3485 4.66127 23.2583 4.66127 24.3623C4.66127 25.4663 4.97816 26.3761 5.61193 27.0916Z" fill="#292929"/>
</svg>
