<svg width="120" height="27" viewBox="0 0 120 27" fill="none" xmlns="http://www.w3.org/2000/svg">
<circle cx="13.5054" cy="13.4962" r="13.374" fill="url(#paint0_linear_210_26)"/>
<path fill-rule="evenodd" clip-rule="evenodd" d="M1.38574 19.1583L11.5405 9.00306C11.5415 9.00202 11.5435 9.0041 11.5444 9.00306C12.6289 7.92225 14.3833 7.92011 15.4663 9.00306L25.625 19.1585C24.8203 20.8779 23.6606 22.3979 22.2402 23.6241L13.5054 14.8895L4.77051 23.6241C3.3501 22.3978 2.19043 20.8778 1.38574 19.1583Z" fill="#D9D9D9"/>
<path d="M35.4654 20.9962L41.5454 6.79622H44.4254L50.5054 20.9962H47.1854L45.9254 17.9962H40.0454L38.7854 20.9962H35.4654ZM42.9854 10.9762L41.1854 15.2362H44.7654L42.9854 10.9762ZM51.7254 20.9962V5.99621H54.7454V20.9962H51.7254ZM57.2332 20.9962V5.99621H60.2532V20.9962H57.2332ZM67.841 21.1162C66.6676 21.1162 65.701 20.7962 64.941 20.1562C64.1943 19.5029 63.821 18.5629 63.821 17.3362V13.6162H61.821V10.9962H63.821V8.21621H66.841V10.9962H69.641V13.6162H66.841V16.7162C66.841 17.3162 66.9743 17.7495 67.241 18.0162C67.5076 18.2829 67.941 18.4162 68.541 18.4162C68.9943 18.4162 69.361 18.3562 69.641 18.2362V20.9162C69.201 21.0495 68.601 21.1162 67.841 21.1162ZM79.7729 19.7162C78.7462 20.7162 77.5062 21.2162 76.0529 21.2162C74.5995 21.2162 73.3595 20.7162 72.3329 19.7162C71.3062 18.7029 70.7929 17.4629 70.7929 15.9962C70.7929 14.5295 71.3062 13.2962 72.3329 12.2962C73.3595 11.2829 74.5995 10.7762 76.0529 10.7762C77.5062 10.7762 78.7462 11.2829 79.7729 12.2962C80.7995 13.2962 81.3129 14.5295 81.3129 15.9962C81.3129 17.4629 80.7995 18.7029 79.7729 19.7162ZM74.4529 17.7362C74.8795 18.1762 75.4129 18.3962 76.0529 18.3962C76.6929 18.3962 77.2195 18.1762 77.6329 17.7362C78.0595 17.2962 78.2729 16.7162 78.2729 15.9962C78.2729 15.2762 78.0595 14.6962 77.6329 14.2562C77.2195 13.8162 76.6929 13.5962 76.0529 13.5962C75.4129 13.5962 74.8795 13.8162 74.4529 14.2562C74.0395 14.6962 73.8329 15.2762 73.8329 15.9962C73.8329 16.7162 74.0395 17.2962 74.4529 17.7362ZM91.5307 19.7162C90.504 20.7162 89.264 21.2162 87.8107 21.2162C86.3573 21.2162 85.1173 20.7162 84.0907 19.7162C83.064 18.7029 82.5507 17.4629 82.5507 15.9962C82.5507 14.5295 83.064 13.2962 84.0907 12.2962C85.1173 11.2829 86.3573 10.7762 87.8107 10.7762C89.264 10.7762 90.504 11.2829 91.5307 12.2962C92.5573 13.2962 93.0707 14.5295 93.0707 15.9962C93.0707 17.4629 92.5573 18.7029 91.5307 19.7162ZM86.2107 17.7362C86.6373 18.1762 87.1707 18.3962 87.8107 18.3962C88.4507 18.3962 88.9773 18.1762 89.3907 17.7362C89.8173 17.2962 90.0307 16.7162 90.0307 15.9962C90.0307 15.2762 89.8173 14.6962 89.3907 14.2562C88.9773 13.8162 88.4507 13.5962 87.8107 13.5962C87.1707 13.5962 86.6373 13.8162 86.2107 14.2562C85.7973 14.6962 85.5907 15.2762 85.5907 15.9962C85.5907 16.7162 85.7973 17.2962 86.2107 17.7362ZM94.9285 20.9962V5.99621H97.9485V20.9962H94.9285ZM104.476 21.2162C103.143 21.2162 102.043 20.8895 101.176 20.2362C100.323 19.5695 99.8696 18.7362 99.8163 17.7362H102.996C103.023 18.1229 103.183 18.4229 103.476 18.6362C103.77 18.8362 104.136 18.9362 104.576 18.9362C105.323 18.9362 105.696 18.7229 105.696 18.2962C105.696 18.0829 105.61 17.9229 105.436 17.8162C105.276 17.6962 104.983 17.5762 104.556 17.4562L102.536 16.9362C100.856 16.4962 100.016 15.4495 100.016 13.7962C100.016 12.9029 100.39 12.1762 101.136 11.6162C101.883 11.0562 102.903 10.7762 104.196 10.7762C105.343 10.7762 106.296 11.0629 107.056 11.6362C107.83 12.1962 108.256 12.9895 108.336 14.0162H105.296C105.176 13.4029 104.79 13.0962 104.136 13.0962C103.456 13.0962 103.116 13.3095 103.116 13.7362C103.116 14.1095 103.456 14.3695 104.136 14.5162L105.956 14.9962C106.956 15.2629 107.676 15.6495 108.116 16.1562C108.556 16.6629 108.776 17.3229 108.776 18.1362C108.776 19.0562 108.376 19.8029 107.576 20.3762C106.776 20.9362 105.743 21.2162 104.476 21.2162Z" fill="#D9D9D9"/>
<defs>
<linearGradient id="paint0_linear_210_26" x1="0.131348" y1="26.8702" x2="26.8794" y2="0.122192" gradientUnits="userSpaceOnUse">
<stop stop-color="#A54EFF"/>
<stop offset="0.521615" stop-color="#8584FF"/>
<stop offset="1" stop-color="#5AB4FE"/>
</linearGradient>
</defs>
</svg>
