<svg width="418" height="90" viewBox="0 0 418 90" fill="none" xmlns="http://www.w3.org/2000/svg">
<g clip-path="url(#clip0_670_40)">
<path d="M93.5964 38.8303C93.5964 27.7559 84.6279 18.7819 73.548 18.7819C71.4275 18.7819 69.4177 19.1981 67.5124 19.7989C67.4598 8.76056 58.5221 -0.171875 47.4656 -0.171875C36.4165 -0.171875 27.4661 8.76056 27.4245 19.7989C25.5193 19.1981 23.5093 18.7819 21.3889 18.7819C10.309 18.7819 1.34033 27.7559 1.34033 38.8303C1.34033 47.7029 7.13715 55.1335 15.1306 57.7716C12.7352 61.0787 11.297 65.0973 11.297 69.4811C11.297 80.5554 20.2654 89.5312 31.3435 89.5312C37.9853 89.5312 43.8165 86.2801 47.4658 81.3064C51.1206 86.2801 56.9518 89.5312 63.5863 89.5312C74.6716 89.5312 83.6347 80.5556 83.6347 69.4811C83.6347 65.0973 82.1945 61.0787 79.8064 57.7716C87.7996 55.1336 93.5964 47.7031 93.5964 38.8303ZM47.4656 59.3529C41.7049 59.3529 37.0279 54.6832 37.0279 48.9224C37.0279 43.1598 41.7049 38.4901 47.4656 38.4901C53.2316 38.4901 57.9032 43.1598 57.9032 48.9224C57.9034 54.6832 53.2318 59.3529 47.4656 59.3529Z" fill="#8A6BF1"/>
<path d="M364.628 77.0774V15.9238H388.745C394.372 15.9238 398.937 17.7039 402.44 21.264C405.942 24.8241 407.694 29.1881 407.694 34.356C407.694 42.0505 403.703 47.3045 395.721 50.1181L417.341 77.0774H400.889L380.476 51.8408H378.323V77.0774H364.628ZM378.323 40.213H387.108C389.175 40.213 390.841 39.6675 392.104 38.5765C393.425 37.4855 394.085 36.0787 394.085 34.356C394.085 32.5185 393.425 31.083 392.104 30.0494C390.841 29.0159 389.175 28.4991 387.108 28.4991H378.323V40.213Z" fill="#3C3849"/>
<path d="M329.672 77.0768L316.666 47.1891L303.66 77.0768H290.654L276.529 15.9232H291.171L299.526 54.6825L316.666 14.8896L333.893 54.6825L342.247 15.9232H356.89L342.678 77.0768H329.672Z" fill="#3C3849"/>
<path d="M228.56 59.4198C232.063 63.0373 236.283 64.8461 241.221 64.8461C246.159 64.8461 250.351 63.0373 253.796 59.4198C257.242 55.8022 258.964 51.4956 258.964 46.5C258.964 41.5044 257.242 37.1978 253.796 33.5802C250.351 29.9627 246.159 28.1539 241.221 28.1539C236.283 28.1539 232.063 29.9627 228.56 33.5802C225.115 37.1978 223.392 41.5044 223.392 46.5C223.392 51.4956 225.115 55.8022 228.56 59.4198ZM263.529 68.8081C257.385 75.0096 249.949 78.1104 241.221 78.1104C232.493 78.1104 225.028 75.0383 218.827 68.8943C212.683 62.6928 209.611 55.228 209.611 46.5C209.611 37.772 212.683 30.3359 218.827 24.1919C225.028 17.9904 232.493 14.8896 241.221 14.8896C249.949 14.8896 257.385 17.9904 263.529 24.1919C269.731 30.3934 272.832 37.8294 272.832 46.5C272.832 55.1706 269.731 62.6066 263.529 68.8081Z" fill="#3C3849"/>
<path d="M168.308 77.0774V15.9238H182.003V63.9853H207.326V77.0774H168.308Z" fill="#3C3849"/>
<path d="M121.373 77.0774V15.9238H159.013V29.0159H135.068V40.0407H153.759V53.1327H135.068V77.0774H121.373Z" fill="#3C3849"/>
</g>
<defs>
<clipPath id="clip0_670_40">
<rect width="417" height="90" fill="white" transform="translate(0.268066)"/>
</clipPath>
</defs>
</svg>
