<svg width="176" height="36" viewBox="0 0 176 36" fill="none" xmlns="http://www.w3.org/2000/svg">
<g clip-path="url(#clip0_36_17)">
<path d="M169.462 12.3008H175.22L169.869 27.6958C169.035 30.053 167.856 31.7532 166.333 32.7962C164.81 33.8392 162.839 34.3086 160.419 34.2043V29.3229C161.525 29.3229 162.359 29.1873 162.923 28.9161C163.486 28.645 163.945 28.1547 164.299 27.4455L158.041 12.3008H163.861L167.022 21.3751L169.462 12.3008Z" fill="#5E3B8F"/>
<path d="M151.338 12.3009H156.532V27.9462H151.338V26.5068C150.274 27.7585 148.793 28.3843 146.894 28.3843C144.808 28.3843 143.056 27.602 141.638 26.0375C140.24 24.4521 139.541 22.4808 139.541 20.1235C139.541 17.7663 140.24 15.8054 141.638 14.2409C143.056 12.6555 144.808 11.8628 146.894 11.8628C148.793 11.8628 150.274 12.4886 151.338 13.7402V12.3009ZM145.674 22.5955C146.279 23.2213 147.072 23.5342 148.052 23.5342C149.033 23.5342 149.825 23.2213 150.43 22.5955C151.035 21.9697 151.338 21.1457 151.338 20.1235C151.338 19.1014 151.035 18.2774 150.43 17.6516C149.825 17.0258 149.033 16.7128 148.052 16.7128C147.072 16.7128 146.279 17.0258 145.674 17.6516C145.069 18.2774 144.767 19.1014 144.767 20.1235C144.767 21.1457 145.069 21.9697 145.674 22.5955Z" fill="#5E3B8F"/>
<path d="M130.678 11.8628C132.765 11.8628 134.506 12.6555 135.904 14.2409C137.323 15.8054 138.032 17.7663 138.032 20.1235C138.032 22.4808 137.323 24.4521 135.904 26.0375C134.506 27.602 132.765 28.3843 130.678 28.3843C128.78 28.3843 127.299 27.7585 126.235 26.5068V34.2043H121.041V12.3009H126.235V13.7402C127.299 12.4886 128.78 11.8628 130.678 11.8628ZM127.143 22.5955C127.748 23.2213 128.54 23.5342 129.521 23.5342C130.501 23.5342 131.294 23.2213 131.899 22.5955C132.504 21.9697 132.806 21.1457 132.806 20.1235C132.806 19.1014 132.504 18.2774 131.899 17.6516C131.294 17.0258 130.501 16.7128 129.521 16.7128C128.54 16.7128 127.748 17.0258 127.143 17.6516C126.538 18.2774 126.235 19.1014 126.235 20.1235C126.235 21.1457 126.538 21.9697 127.143 22.5955Z" fill="#5E3B8F"/>
<path d="M112.464 11.8628C114.154 11.8628 115.531 12.4469 116.594 13.6151C117.679 14.7624 118.222 16.4208 118.222 18.5903V27.9462H113.027V19.2474C113.027 18.4338 112.808 17.8185 112.37 17.4012C111.953 16.984 111.39 16.7754 110.681 16.7754C109.867 16.7754 109.231 17.0258 108.772 17.5264C108.334 18.0062 108.115 18.705 108.115 19.6229V27.9462H102.92V12.3009H108.115V13.8654C109.053 12.5303 110.503 11.8628 112.464 11.8628Z" fill="#5E3B8F"/>
<path d="M92.2814 28.3843C89.9659 28.3843 87.9946 27.5916 86.3674 26.0062C84.7403 24.3999 83.9268 22.439 83.9268 20.1235C83.9268 17.808 84.7403 15.8576 86.3674 14.2722C87.9946 12.6659 89.9659 11.8628 92.2814 11.8628C94.6177 11.8628 96.5891 12.6659 98.1953 14.2722C99.8224 15.8576 100.636 17.808 100.636 20.1235C100.636 22.439 99.8224 24.3999 98.1953 26.0062C96.5891 27.5916 94.6177 28.3843 92.2814 28.3843ZM92.2814 23.3778C93.1992 23.3778 93.9502 23.0753 94.5343 22.4703C95.1393 21.8654 95.4417 21.0831 95.4417 20.1235C95.4417 19.164 95.1393 18.3817 94.5343 17.7767C93.9502 17.1718 93.1992 16.8693 92.2814 16.8693C91.3844 16.8693 90.6334 17.1718 90.0284 17.7767C89.4444 18.3817 89.1523 19.164 89.1523 20.1235C89.1523 21.0831 89.4444 21.8654 90.0284 22.4703C90.6334 23.0753 91.3844 23.3778 92.2814 23.3778Z" fill="#5E3B8F"/>
<path d="M74.0387 28.3843C71.7232 28.3843 69.7518 27.5916 68.1247 26.0062C66.4976 24.3999 65.6841 22.439 65.6841 20.1235C65.6841 17.808 66.4976 15.8576 68.1247 14.2722C69.7518 12.6659 71.7232 11.8628 74.0387 11.8628C76.375 11.8628 78.3464 12.6659 79.9526 14.2722C81.5797 15.8576 82.3933 17.808 82.3933 20.1235C82.3933 22.439 81.5797 24.3999 79.9526 26.0062C78.3464 27.5916 76.375 28.3843 74.0387 28.3843ZM74.0387 23.3778C74.9565 23.3778 75.7075 23.0753 76.2916 22.4703C76.8966 21.8654 77.199 21.0831 77.199 20.1235C77.199 19.164 76.8966 18.3817 76.2916 17.7767C75.7075 17.1718 74.9565 16.8693 74.0387 16.8693C73.1417 16.8693 72.3907 17.1718 71.7857 17.7767C71.2016 18.3817 70.9096 19.164 70.9096 20.1235C70.9096 21.0831 71.2016 21.8654 71.7857 22.4703C72.3907 23.0753 73.1417 23.3778 74.0387 23.3778Z" fill="#5E3B8F"/>
<path d="M63.1746 6.04297V27.9465H57.6049V16.1499L52.2855 24.9425H51.7222L46.4341 16.1812V27.9465H40.8331V6.04297H46.4341L52.0038 15.3989L57.6049 6.04297H63.1746Z" fill="#5E3B8F"/>
<circle cx="10.6526" cy="23.5657" r="10.6526" fill="#5E3B8F"/>
<circle cx="25.6841" cy="8.5332" r="6.75146" fill="#5E3B8F"/>
</g>
<defs>
<clipPath id="clip0_36_17">
<rect width="176" height="36" fill="white"/>
</clipPath>
</defs>
</svg>
