<svg width="284" height="50" viewBox="0 0 284 50" fill="none" xmlns="http://www.w3.org/2000/svg">
<g clip-path="url(#clip0_170_44)">
<path d="M41.5143 32.0434C41.5143 43.0823 34.7213 47.9263 29.4721 49.5598C28.3527 49.908 27.6169 48.6032 28.2866 47.6408C30.5709 44.3581 33.2115 39.3497 33.2115 34.638C33.2115 29.5769 28.9456 23.6017 25.6146 19.9163C24.8531 19.0738 23.5249 19.6311 23.4834 20.7663C23.3456 24.5264 22.7522 29.5572 20.1936 33.5C19.7818 34.1347 18.9077 34.1871 18.4383 33.5937C17.6389 32.5826 16.8395 31.3338 16.0401 30.347C15.6094 29.8156 14.8311 29.8084 14.3344 30.2785C12.3979 32.1121 9.68667 34.9717 9.68667 38.53C9.68667 40.9428 10.6214 43.4723 11.6761 45.5073C12.2563 46.6269 11.2246 47.9745 10.108 47.3886C5.48267 44.9614 0 40.0442 0 32.0434C0 23.8796 11.1837 12.5701 15.4538 1.88561C16.1275 0.199632 18.2043 -0.592617 19.6485 0.507617C28.3956 7.17082 41.5143 20.0512 41.5143 32.0434Z" fill="white" fill-opacity="0.5"/>
<path d="M227.017 40.1067V13.9348H234.146V18.5002H234.292C235.073 15.2776 237.197 13.3977 240.249 13.3977C241.03 13.3977 241.763 13.5198 242.3 13.6663V19.9407C241.714 19.6965 240.737 19.55 239.712 19.55C236.196 19.55 234.146 21.6497 234.146 25.4583V40.1067H227.017Z" fill="white"/>
<path d="M211.147 40.6438C203.14 40.6438 198.281 35.4436 198.281 27.0696V27.0452C198.281 18.72 203.188 13.3977 210.854 13.3977C218.521 13.3977 223.33 18.5979 223.33 26.5081V28.7053H205.312C205.386 32.8801 207.656 35.3215 211.294 35.3215C214.224 35.3215 216.006 33.7102 216.519 32.2454L216.567 32.0989H223.11L223.037 32.3674C222.231 36.2249 218.618 40.6438 211.147 40.6438ZM210.977 18.72C208.047 18.72 205.85 20.6731 205.386 24.2131H216.494C216.055 20.5999 213.931 18.72 210.977 18.72Z" fill="white"/>
<path d="M156.069 40.1067V13.9348H163.198V18.3293H163.345C164.419 15.3508 167.153 13.3977 170.669 13.3977C174.331 13.3977 176.992 15.3508 177.871 18.7932H178.018C179.189 15.4973 182.314 13.3977 186.147 13.3977C191.274 13.3977 194.717 16.9377 194.717 22.2112V40.1067H187.588V23.9934C187.588 20.9661 186.074 19.3059 183.315 19.3059C180.605 19.3059 178.823 21.2834 178.823 24.1887V40.1067H171.963V23.7737C171.963 20.9661 170.376 19.3059 167.739 19.3059C165.029 19.3059 163.198 21.3567 163.198 24.3108V40.1067H156.069Z" fill="white"/>
<path d="M133.218 48.7249C131.826 48.7249 130.41 48.554 129.58 48.4075V43.1096C130.093 43.2073 130.923 43.3538 131.973 43.3538C134.097 43.3538 135.269 42.7434 135.903 40.9612L136.221 40.1067L126.968 13.9348H134.805L140.322 34.3938H140.518L146.06 13.9348H153.579L144.595 40.5706C142.544 46.7473 139.028 48.7249 133.218 48.7249Z" fill="white"/>
<path d="M109.658 40.5217C104.409 40.5217 100.869 37.2258 100.869 32.6116V32.5627C100.869 27.802 104.556 25.0188 111.05 24.6038L117.52 24.2131V22.6018C117.52 20.2825 116.006 18.842 113.223 18.842C110.562 18.842 108.95 20.0872 108.608 21.7717L108.56 21.9915H102.041L102.065 21.6985C102.456 16.8645 106.606 13.3977 113.516 13.3977C120.278 13.3977 124.648 16.8889 124.648 22.1624V40.1067H117.52V36.2004H117.373C115.884 38.886 113.101 40.5217 109.658 40.5217ZM107.925 32.2454C107.925 34.1741 109.512 35.3215 111.978 35.3215C115.176 35.3215 117.52 33.2708 117.52 30.5364V28.6565L112.124 28.9983C109.365 29.1692 107.925 30.3411 107.925 32.1965V32.2454Z" fill="white"/>
<path d="M89.9316 40.1067V4.8772H97.0605V40.1067H89.9316Z" fill="white"/>
<path d="M62.9297 40.1067V4.8772H86.001V10.9563H70.3027V20.4045H84.6338V26.2395H70.3027V40.1067H62.9297Z" fill="white"/>
</g>
<defs>
<clipPath id="clip0_170_44">
<rect width="284" height="50" fill="white"/>
</clipPath>
</defs>
</svg>
