<svg width="241" height="63" viewBox="0 0 241 63" fill="none" xmlns="http://www.w3.org/2000/svg">
<path d="M24.6396 7.55957C38.1376 7.55957 49.08 18.5019 49.0801 32C49.0801 45.498 38.1376 56.4404 24.6396 56.4404C11.1416 56.4404 0.199219 45.498 0.199219 32C0.199264 18.502 11.1416 7.55958 24.6396 7.55957ZM24.6387 15.5508C23.1972 15.5511 22.2331 17.2816 20.3047 20.7412L19.8047 21.6357C19.2568 22.6189 18.9829 23.1112 18.5557 23.4355C18.1284 23.7598 17.5963 23.8804 16.5322 24.1211L15.5635 24.3398C11.8184 25.1872 9.94568 25.6113 9.5 27.0439C9.05448 28.4764 10.3306 29.9693 12.8838 32.9551L13.5449 33.7275C14.2704 34.5759 14.6327 35.0004 14.7959 35.5254C14.9591 36.0501 14.9046 36.6163 14.7949 37.748L14.6953 38.7793C14.3093 42.7626 14.116 44.7543 15.2822 45.6396C16.4487 46.5252 18.2023 45.7182 21.709 44.1035L22.6162 43.6855C23.6126 43.2271 24.1108 42.9972 24.6387 42.9971C25.1667 42.9971 25.6654 43.2269 26.6621 43.6855L27.5693 44.1035C31.076 45.7182 32.8297 46.5252 33.9961 45.6396C35.1621 44.7543 34.9691 42.7623 34.583 38.7793L34.4834 37.748C34.3738 36.6162 34.3192 36.0501 34.4824 35.5254C34.6457 35.0005 35.0081 34.5759 35.7334 33.7275L36.3945 32.9551C38.9476 29.9693 40.2238 28.4764 39.7783 27.0439C39.3327 25.6113 37.4602 25.1872 33.7148 24.3398L32.7461 24.1211C31.6821 23.8804 31.1499 23.7597 30.7227 23.4355C30.2954 23.1112 30.0205 22.6189 29.4727 21.6357L28.9736 20.7412C27.045 17.2813 26.0804 15.5508 24.6387 15.5508Z" fill="white"/>
<path d="M197.165 58.1523H189.506L194.392 46.9695L184.619 24.8389H192.372L198.198 39.3577L203.978 24.8389H211.777L197.165 58.1523Z" fill="white"/>
<path d="M173.653 48.3321V13.0923H180.748V48.3321H173.653Z" fill="white"/>
<path d="M156.684 48.8487C153.144 48.8487 150.168 47.7367 147.757 45.5127C145.376 43.2573 144.186 40.2815 144.186 36.5852C144.186 33.0769 145.36 30.1638 147.71 27.8458C150.059 25.4964 153.003 24.3218 156.543 24.3218C159.832 24.3218 162.604 25.3242 164.86 27.3289C167.115 29.3337 168.243 32.1528 168.243 35.7865C168.243 36.6949 168.196 37.525 168.102 38.2768H151.046C151.234 39.6237 151.876 40.6574 152.972 41.3779C154.068 42.067 155.337 42.4116 156.778 42.4116C158.062 42.4116 159.206 42.161 160.208 41.6598C161.21 41.1273 161.962 40.4851 162.463 39.7333L167.726 43.6802C166.598 45.2777 165.079 46.5464 163.168 47.4861C161.257 48.3945 159.096 48.8487 156.684 48.8487ZM151.234 33.6251H161.195C160.913 32.4661 160.318 31.589 159.409 30.9939C158.501 30.3987 157.483 30.1011 156.355 30.1011C155.165 30.1011 154.084 30.3987 153.113 30.9939C152.142 31.5577 151.515 32.4348 151.234 33.6251Z" fill="white"/>
<path d="M136.263 48.6141C133.506 48.6141 131.235 47.8623 129.45 46.3588C127.696 44.8239 126.819 42.6155 126.819 39.7337V30.9942H122.12V24.839H126.819V18.3079H133.914V24.839H140.492V30.9942H133.914V38.2771C133.914 39.6867 134.227 40.7047 134.853 41.3312C135.48 41.9577 136.498 42.271 137.908 42.271C138.973 42.271 139.834 42.13 140.492 41.8481V48.1443C139.458 48.4575 138.049 48.6141 136.263 48.6141Z" fill="white"/>
<path d="M104.017 48.8487C100.979 48.8487 98.3944 47.6427 96.2643 45.2307C94.1656 42.8188 93.1162 39.9369 93.1162 36.5852C93.1162 33.2335 94.1656 30.3517 96.2643 27.9397C98.3944 25.5278 100.979 24.3218 104.017 24.3218C106.711 24.3218 108.841 25.2772 110.407 27.188V24.8386H117.502V48.3318H110.407V45.9825C108.841 47.8933 106.711 48.8487 104.017 48.8487ZM101.715 40.767C102.717 41.8634 104.017 42.4116 105.615 42.4116C107.212 42.4116 108.496 41.8634 109.467 40.767C110.47 39.6707 110.971 38.2768 110.971 36.5852C110.971 34.8937 110.47 33.4998 109.467 32.4034C108.496 31.3071 107.212 30.7589 105.615 30.7589C104.017 30.7589 102.717 31.3071 101.715 32.4034C100.744 33.4998 100.258 34.8937 100.258 36.5852C100.258 38.2768 100.744 39.6707 101.715 40.767Z" fill="white"/>
<path d="M64.1426 48.3318V14.9714H77.2988C80.3686 14.9714 82.8588 15.9425 84.7696 17.8846C86.6804 19.8267 87.6358 22.2073 87.6358 25.0265C87.6358 29.224 85.4588 32.0902 81.1047 33.6251L92.8983 48.3318H83.9239L72.7881 34.5648H71.6134V48.3318H64.1426ZM71.6134 28.2216H76.406C77.5337 28.2216 78.4421 27.924 79.1313 27.3289C79.8517 26.7337 80.2119 25.9663 80.2119 25.0265C80.2119 24.0242 79.8517 23.2411 79.1313 22.6772C78.4421 22.1134 77.5337 21.8315 76.406 21.8315H71.6134V28.2216Z" fill="white"/>
</svg>
