<svg width="800" height="800" viewBox="0 0 800 800" fill="none" xmlns="http://www.w3.org/2000/svg">
<path fill-rule="evenodd" clip-rule="evenodd" d="M502.082 115.128C526.318 87.0386 542.655 47.916 538.184 8.99023C503.259 10.3199 461.006 31.3005 435.963 59.3565C413.475 84.2545 393.845 124.038 399.122 162.199C438.081 165.091 477.847 143.25 502.082 115.128ZM589.446 362.187C590.421 462.809 681.549 496.281 682.557 496.714C681.818 499.074 668.002 544.407 634.556 591.278C605.614 631.767 575.597 672.091 528.302 672.955C481.847 673.786 466.888 646.563 413.744 646.563C360.634 646.563 344.028 672.087 300.061 673.783C254.413 675.412 219.622 629.978 190.478 589.623C130.847 507.083 85.2995 356.373 146.477 254.654C176.865 204.16 231.152 172.135 290.111 171.337C334.919 170.506 377.239 200.229 404.635 200.229C432.03 200.229 483.46 164.495 537.512 169.747C560.134 170.644 623.665 178.487 664.439 235.695C661.145 237.657 588.639 278.086 589.446 362.187Z" fill="white"/>
</svg>
