<svg xmlns="http://www.w3.org/2000/svg" version="1.1" xmlns:xlink="http://www.w3.org/1999/xlink" xmlns:svgjs="http://svgjs.com/svgjs" width="1440" height="560" preserveAspectRatio="none" viewBox="0 0 1440 560"><g mask="url(&quot;#SvgjsMask1000&quot;)" fill="none"><rect width="1440" height="560" x="0" y="0" fill="#0e2a47"></rect><path d="M 0,91 C 57.6,128.2 172.8,269.2 288,277 C 403.2,284.8 460.8,150.8 576,130 C 691.2,109.2 748.8,185 864,173 C 979.2,161 1036.8,50.8 1152,70 C 1267.2,89.2 1382.4,229.2 1440,269L1440 560L0 560z" fill="#184a7e"></path><path d="M 0,299 C 96,342 288,498 480,514 C 672,530 768,388.6 960,379 C 1152,369.4 1344,448.6 1440,466L1440 560L0 560z" fill="#2264ab"></path></g><defs><mask id="SvgjsMask1000"><rect width="1440" height="560" fill="#ffffff"></rect></mask></defs></svg>