<svg xmlns="http://www.w3.org/2000/svg" version="1.1" xmlns:xlink="http://www.w3.org/1999/xlink" xmlns:svgjs="http://svgjs.dev/svgjs" width="1440" height="560" preserveAspectRatio="none" viewBox="0 0 1440 560"><g mask="url(&quot;#SvgjsMask1092&quot;)" fill="none"><rect width="1440" height="560" x="0" y="0" fill="url(&quot;#SvgjsLinearGradient1093&quot;)"></rect><path d="M1440 0L1353.15 0L1440 144.87z" fill="rgba(255, 255, 255, .1)"></path><path d="M1353.15 0L1440 144.87L1440 343.67L841.8400000000001 0z" fill="rgba(255, 255, 255, .075)"></path><path d="M841.84 0L1440 343.67L1440 465.15000000000003L676.63 0z" fill="rgba(255, 255, 255, .05)"></path><path d="M676.63 0L1440 465.15000000000003L1440 513.8000000000001L321.06 0z" fill="rgba(255, 255, 255, .025)"></path><path d="M0 560L633.38 560L0 300.19z" fill="rgba(0, 0, 0, .1)"></path><path d="M0 300.19L633.38 560L719.17 560L0 174.45999999999998z" fill="rgba(0, 0, 0, .075)"></path><path d="M0 174.45999999999998L719.17 560L745.9 560L0 133.82z" fill="rgba(0, 0, 0, .05)"></path><path d="M0 133.82L745.9 560L985.96 560L0 110.10999999999999z" fill="rgba(0, 0, 0, .025)"></path></g><defs><mask id="SvgjsMask1092"><rect width="1440" height="560" fill="#ffffff"></rect></mask><linearGradient x1="15.28%" y1="-39.29%" x2="84.72%" y2="139.29%" gradientUnits="userSpaceOnUse" id="SvgjsLinearGradient1093"><stop stop-color="#0e2a47" offset="0"></stop><stop stop-color="#00459e" offset="1"></stop></linearGradient></defs></svg>