<svg width="40" height="40" viewBox="0 0 40 40" fill="none" xmlns="http://www.w3.org/2000/svg">
<path d="M33.6 0H6.4C2.86538 0 0 2.86538 0 6.4V33.6C0 37.1346 2.86538 40 6.4 40H33.6C37.1346 40 40 37.1346 40 33.6V6.4C40 2.86538 37.1346 0 33.6 0Z" fill="#07A081"/>
<path d="M14.9368 26.9839H20.6096V21.5479H22.32C23.5203 21.5479 24.6714 21.0711 25.5201 20.2224C26.3688 19.3736 26.8456 18.2225 26.8456 17.0223C26.8456 15.822 26.3688 14.6709 25.5201 13.8222C24.6714 12.9735 23.5203 12.4967 22.32 12.4967H14.9368V26.9839ZM23.5472 29.8815H12V9.59987H22.32C24.1989 9.57319 26.0178 10.2606 27.4093 11.5234C28.8009 12.7861 29.6613 14.5299 29.8167 16.4025C29.9721 18.2751 29.411 20.1369 28.2466 21.6117C27.0823 23.0865 25.4015 24.0645 23.544 24.3479L23.5472 29.8815Z" fill="white"/>
</svg>
